<svg height="960" viewBox="0 0 960 960" width="960" xmlns="http://www.w3.org/2000/svg"><path d="m651.45839 73.1419277c202.874929 32.1208493 336.28007 240.9821283 300.834291 464.6986873-32.56452 205.531448-197.591737 356.917291-383.990608 353.092418l-5.031073-.146033-.429906.044846c-2.960563.279505-6.002718.230694-9.08546-.180727l-.712103-.101395-3.451531-.522724-.571736-.042684c-8.102859-.632383-16.197988-1.560378-24.275993-2.784923l-2.202661-.341321c-7.958793-1.260102-15.845319-2.799702-23.651317-4.615211l-167.663293-25.743861-.940242-.08726c-5.243871-.510222-10.483038-1.143536-15.714827-1.900195l-2.241736-.331835c-6.772105-1.025477-13.490658-2.251712-20.150287-3.676513l-6.302849-.978134c-3.55784-.551106-6.937835-1.557408-10.087775-2.951794l-.096284-.043269-3.918403-1.06338c-105.832127-29.653-187.4601733-108.452802-228.1727154-208.902622l-32.5126039-.003645c-5.52284753 0-10.00000003-4.477152-10.00000003-10v-52.032776c0-5.532066 4.4915502-10.013028 10.02360153-10l11.1721193.028941c-8.5075529-43.877646-9.7543476-90.248082-2.647775-137.313541l.9339497-5.899c4.1866779-25.272427 10.6272321-49.696319 19.0777163-73.041455l5.4028931-101.786175c.2814982-5.309659 4.6688597-9.470581 9.9859759-9.470581l46.0126705-.00361c60.299381-77.261038 147.140477-129.701387 243.786257-141.5256091l2.364314-.2715469.456027-.1322888c1.950173-.5493107 3.961665-.9555037 6.022569-1.2065825l.563281-.0646213 191.720123-20.6345074.49162-.0791549c34.701841-5.4811862 69.976783-5.5316818 105.00377.0140826zm-379.298954 357.2567363c-31.282427 197.50947 84.97867 379.594258 258.957766 407.149839 173.979096 27.555582 340.817263-109.690687 372.09969-307.200158 31.282427-197.50947-84.97867-379.594258-258.957766-407.149839-173.979095-27.5555822-340.817263 109.690687-372.09969 307.200158zm219.148336-311.081167-132.784309 14.294308-.066581.665963c-145.319929 13.495502-271.7446819 132.559548-298.4235408 293.603586-29.435714 177.685496 73.1287208 342.642141 232.0196238 381.558425l-.052965.556692 7.438193 1.152169c6.212527 1.354028 12.507586 2.516858 18.880797 3.481932 5.951947.901284 11.894814 1.618394 17.823483 2.155358l114.854635 17.645869c-141.088949-63.139227-226.712511-229.612362-198.591438-407.161825 23.365019-147.520928 119.047386-263.504489 238.902102-307.952477zm159.282627 28.780425c77.537857 12.280791 144.618505 58.76928 188.900704 128.122788 45.296099 70.941449 63.349992 160.221411 49.101324 250.183955-14.248667 89.962544-59.007964 169.293875-124.009228 222.765937-63.546286 52.275154-141.709507 75.759275-219.247364 63.478484-77.537858-12.28079-144.618506-58.769279-188.900705-128.122787-45.296099-70.941449-63.349991-160.221411-49.101324-250.183955 14.248667-89.962545 59.007965-169.293875 124.009228-222.765937 63.546287-52.275154 141.709508-75.759275 219.247365-63.478485zm-206.541489 78.923896c-61.191646 50.338152-103.47088 125.273821-116.961337 210.449215s3.563089 169.508452 46.204457 236.292139c41.299237 64.681677 103.48513 107.777985 175.172494 119.132148s144.147154-10.416364 203.4128-59.170129c61.191645-50.338152 103.470879-125.273821 116.961337-210.449215 13.490457-85.175394-3.563089-169.508453-46.204458-236.292139-41.299237-64.681677-103.48513-107.777985-175.172494-119.132148s-144.147153 10.416364-203.412799 59.170129zm125.95109 346.978182v58.160367l-7.332036.16524-111 2.501582-7.667964.172811v-58.902253l7.375905-.1228 111-1.848015zm227.708937-4 .039636 7.721714.213274 41.54995.038153 7.432929-7.329848.201778-104.720431 2.88278-7.659346.210849-.039288-7.767064-.213274-42.163748-.037813-7.47545 7.37281-.159746 104.720431-2.268982zm-776.6196593 14.550578v32.009l15.0466333.003102c-3.5809144-10.470517-6.7291118-21.145493-9.427122-31.996185zm118.2030923-171.064803c23.218684 0 38.769867 30.269267 38.769867 65.998491 0 35.729225-15.551183 65.998492-38.769867 65.998492-23.218685 0-38.769868-30.269267-38.769868-65.998492 0-35.729224 15.551183-65.998491 38.769868-65.998491zm0 20c-3.334907 0-7.627571 3.534021-11.448595 10.97137-4.594471 8.942811-7.321273 21.491207-7.321273 35.027121 0 13.535915 2.726802 26.084311 7.321273 35.027121 3.821024 7.43735 8.113688 10.971371 11.448595 10.971371 3.334906 0 7.62757-3.534021 11.448594-10.971371 4.594471-8.94281 7.321273-21.491206 7.321273-35.027121 0-13.535914-2.726802-26.08431-7.321273-35.027121-3.821024-7.437349-8.113688-10.97137-11.448594-10.97137zm446.70763-143.485775 7.729584.152428 43.516715.858156 7.388493.145702.02055 7.362457.323499 115.900487.021159 7.58077-7.609011-.02931-43.516715-.167625-7.508648-.028923-.020756-7.480779-.323499-116.591017zm-499.5833499-32.957295-21.8949576.003061-2.1139564 39.78011c7.2779616-13.794518 15.3022197-27.075664 24.008914-39.783171z"/></svg>