<?xml version="1.0" encoding="UTF-8"?>
<svg width="960px" height="960px" viewBox="0 0 960 960" version="1.1" xmlns="http://www.w3.org/2000/svg" xmlns:xlink="http://www.w3.org/1999/xlink">
    <title>cloud.shelly/drivers/shelly_wave_plug_uk/assets/pair</title>
    <style type="text/css">
        #led {
            animation: flash 12s infinite;
        }
        #button {
            animation: press 12s infinite;
        }

        @keyframes press {
            0%,  40%, 60%, 85%, 100% {
                fill: rgba(0,0,0,0);
            }
            5%, 35%, 65%, 80% {
                fill: #0074CC;
            }
        }

        @keyframes flash {
            0%,30%, 75%,77%,79%,81%,83%,85%,87%,89%,91%,93%,95%,97%,99% {
                fill: rgba(0,0,0,0);
            }
            33%,74%, 76%,78%,80%,82%,84%,86%,88%,90%,92%,94%,96%,98% {
                fill: #0074CC;
            }
        }
    </style>    
    <g id="cloud.shelly/drivers/shelly_wave_plug_uk" stroke="none" stroke-width="1" fill="none" fill-rule="evenodd">
        <path d="M262.282553,428.834319 C294.389796,226.117162 466.106915,84.8573159 645.823471,113.321622 C825.540028,141.785928 945.201019,329.195533 913.093775,531.91269 C880.986532,734.629847 709.269414,875.889693 529.552857,847.425387 C349.836301,818.961081 230.17531,631.551476 262.282553,428.834319 Z M649.026054,157.974806 C572.04901,145.78284 497.02434,170.49375 437.695972,219.299112 C376.210223,269.879203 331.417111,346.210875 317.210689,435.906688 C303.004268,525.602502 322.017265,612.040069 364.86358,679.144735 C406.206525,743.894867 469.923135,790.580237 546.900179,802.772203 C623.877224,814.964169 698.901893,790.253259 758.230261,741.447897 C819.716011,690.867806 864.509123,614.536134 878.715544,524.840321 C892.921965,435.144507 873.908968,348.70694 831.062653,281.602274 C789.719708,216.852142 726.003098,170.166772 649.026054,157.974806 Z" id="led" fill="#0074CC"></path>
        <ellipse id="button" fill="#0074CC" cx="139.29237" cy="479.484266" rx="28.7698672" ry="55.9984915"></ellipse>
        <path d="M648.330782,92.8958657 C839.731426,123.20001 966.334338,321.411609 932.539085,534.710844 C901.166675,732.718275 741.534157,877.442545 563.357211,870.781966 L562.322278,870.733784 L562.289006,870.740795 C560.388621,871.05353 558.407685,871.094565 556.392046,870.82556 L556.035994,870.774862 L551.837,870.139 L550.576161,870.044929 C542.955385,869.450162 535.341,868.577271 527.741449,867.425245 L525.669218,867.104134 C518.385166,865.950862 511.166673,864.548989 504.020526,862.901624 L502.703,862.593 L333.676,836.641 L331.959063,836.479895 C327.200919,836.012926 322.446593,835.438207 317.698253,834.755497 L315.324593,834.405141 C308.760437,833.411153 302.251042,832.216985 295.801681,830.824919 L288.938529,829.760767 C286.753689,829.422338 284.702983,828.740591 282.834773,827.777695 L282.674,827.693 L282.205812,827.574376 C181.071142,801.021412 102.630766,726.879867 63.1606296,631.56142 L18.0892777,631.560353 C15.3278539,631.560353 13.0892777,629.321777 13.0892777,626.560353 L13.0892777,574.527577 C13.0892777,571.761544 15.3350528,569.521063 18.1010784,569.527577 L43.7398929,569.590679 C34.0439455,525.32903 32.1718634,478.170025 39.4158379,430.210558 L40.3022572,424.612666 C43.8782554,403.02654 49.1806195,382.096123 56.040023,361.97945 L62.0447705,248.781057 C62.1855196,246.126227 64.3792004,244.045766 67.0377585,244.045766 L121.032756,244.040863 C177.944742,173.760208 258.279549,126.266257 347.237362,115.372108 L351.508,114.88 L351.536128,114.869688 C352.96065,114.338933 354.462947,113.965008 356.022313,113.768777 L356.38317,113.726656 L548.626,93.036 L549.621344,92.8756096 C582.249237,87.7269217 615.400231,87.6820265 648.330782,92.8958657 Z M267.220995,429.616491 C235.526159,629.729805 353.487203,814.477001 530.335029,842.486945 C707.182856,870.496889 876.460498,731.243832 908.155333,531.130518 C939.850169,331.017204 821.889125,146.270008 645.041299,118.260064 C468.193473,90.2501199 298.91583,229.503177 267.220995,429.616491 Z M515.05193,116.753776 L358.523463,133.611805 L358.456882,134.277768 C213.136953,147.77327 86.7122001,266.837316 60.0333412,427.881354 C30.5976272,605.56685 133.162062,770.523495 292.052965,809.439779 L292,809.996471 L299.438193,811.14864 C305.65072,812.502668 311.945779,813.665498 318.31899,814.630572 C324.270937,815.531856 330.213804,816.248966 336.142473,816.78593 L472.321982,837.704299 C321.953015,782.55327 228.307616,611.381365 257.344111,428.052147 C281.843627,273.368292 386.732724,153.904942 515.05193,116.753776 Z M649.808226,153.036364 C725.88346,165.085497 791.740419,210.725942 835.276878,278.911492 C879.909295,348.8135 897.7131,436.856736 883.653986,525.622493 C869.594871,614.38825 825.455589,692.620665 761.40673,745.30925 C698.930604,796.704056 622.193241,819.759778 546.118007,807.710645 C470.042773,795.661511 404.185814,750.021067 360.649355,681.835517 C316.016939,611.933509 298.213133,523.890273 312.272248,435.124516 C326.331362,346.358759 370.470644,268.126344 434.519503,215.437759 C496.995629,164.042953 573.732993,140.987231 649.808226,153.036364 Z M440.872441,223.160465 C378.728391,274.282095 335.829141,350.316679 322.149131,436.688861 C308.469121,523.061042 325.772754,608.630827 369.077805,676.453953 C411.122783,742.303588 474.532364,786.247942 547.682352,797.833761 C620.832339,809.419581 694.717986,787.220656 755.053792,737.586544 C817.197842,686.464914 860.097093,610.43033 873.777102,524.058148 C887.457112,437.685967 870.153479,352.116182 826.848428,284.293056 C784.803451,218.44342 721.393869,174.499067 648.243882,162.913248 C575.093894,151.327428 501.208247,173.526353 440.872441,223.160465 Z M570,574 L570,632.160367 L562.667964,632.325607 L451.667964,634.827189 L444,635 L444,576.097747 L451.375905,575.974947 L562.375905,574.126932 L570,574 Z M797.708937,570 L797.748573,577.721714 L797.961847,619.271664 L798,626.704593 L790.670152,626.906371 L685.949721,629.789151 L678.290375,630 L678.251087,622.232936 L678.037813,580.069188 L678,572.593738 L685.37281,572.433992 L790.093241,570.16501 L797.708937,570 Z M23.0892777,579.538578 L23.0892777,621.559578 L59.1924901,621.561403 C54.0229585,607.949212 49.6359154,593.936026 46.0766808,579.595387 L23.0892777,579.538578 Z M139.29237,418.485775 C158.846291,418.485775 173.062237,446.156098 173.062237,479.484266 C173.062237,512.812435 158.846291,540.482758 139.29237,540.482758 C119.738448,540.482758 105.522502,512.812435 105.522502,479.484266 C105.522502,446.156098 119.738448,418.485775 139.29237,418.485775 Z M139.29237,428.485775 C127.067973,428.485775 115.522502,450.95821 115.522502,479.484266 C115.522502,508.010323 127.067973,530.482758 139.29237,530.482758 C151.516766,530.482758 163.062237,508.010323 163.062237,479.484266 C163.062237,450.95821 151.516766,428.485775 139.29237,428.485775 Z M586,290 L593.729584,290.152428 L637.246299,291.010584 L644.634792,291.156286 L644.655342,298.518743 L644.978841,414.41923 L645,422 L637.390989,421.97069 L593.874274,421.803065 L586.365626,421.774142 L586.34487,414.293363 L586.021371,297.702346 L586,290 Z M113.206898,254.044448 L71.7796925,254.045766 L67.6956925,331.062766 L68.9470828,329.093013 C80.9642554,302.146136 95.8745582,276.983386 113.206898,254.044448 Z" id="Combined-Shape" fill="#000000" fill-rule="nonzero"></path>
    </g>
</svg>