<?xml version="1.0" encoding="UTF-8"?>
<svg width="960px" height="960px" version="1.1" viewBox="0 0 960 960" xmlns="http://www.w3.org/2000/svg">
  <g>
    <path id="Shape" d="m792.32 56.396-660.52 20.951-56.379-0.78125c-12.361-0.17112-24.107 5.3826-31.818 15.045l-31.975 40.064c-5.6556 7.0866-8.7363 15.884-8.7363 24.951v482.64c1e-7 32.902 5.3785 51.789 21.34 69.738 1.1412 1.2833 3.2717 3.4918 5.4824 5.7461l0.49219 0.50195c0.08214 0.0836 0.16592 0.16654 0.24805 0.25l0.49024 0.5c1.3093 1.3277 2.588 2.6149 3.6465 3.6758l0.75 0.75c0.11709 0.11711 0.22952 0.22961 0.33789 0.33789l0.38476 0.38477 0.07227 0.0703 0.26562 0.26562c0.20836 0.20768 0.38332 0.38022 0.51758 0.51368l0.14062 0.14062c0.12165 0.12077 0.18187 0.18217 0.17188 0.17188 1.1376 1.1719 2.6256 2.6772 4.4961 4.5527l0.9668 0.96875c0.08331 0.0833 0.16728 0.16733 0.25195 0.25195l0.78125 0.7793c5.2375 5.2262 12.866 12.759 23.41 23.125 3.379 3.3221 11.344 11.141 19.939 19.578l0.89258 0.875c0.4466 0.43837 0.8931 0.87793 1.3418 1.3184l1.2305 1.209 0.86719 0.84961c1.2986 1.2746 2.5968 2.5482 3.8809 3.8086l0.85352 0.83789c8.6572 8.4974 16.543 16.239 19.557 19.199 0.35216 0.34596 0.35294 0.34545 0.70508 0.69141 35.359 34.739 57.542 56.728 69.414 68.932 14.218 14.615 28.508 25.068 43.684 32.408 11.002 5.3214 17.194 7.2807 33.85 11.707 5.0311 1.3371 7.4561 2.081 9.3555 2.8613 12.965 5.3267 32.851 11.476 60.494 18.842 15.501 4.1303 31.616 5.3255 47.512 3.5176 97.133-11.046 171.77-19.62 224.91-25.836-9.7524-11.501-18.432-23.942-25.68-37.309-48.484 5.6451-107.31 12.427-187.26 21.527-14.809-4.5764-27.498-14.687-45.324-32.33l-133.39-136.13c-9.4803-9.4098-19.428-19.281-29.84-29.617v-387.07c9.6009 7.3124 18.785 12.628 27.686 15.904 6.516 2.3987 19.49 2.3346 56.646 0.97461 30.26-1.1075 74.264-3.2364 132.05-6.3867 115.44-6.293 285.99-16.67 511.67-31.131 2.0522-0.1315 4.0294-0.57233 5.8789-1.2812l-5.0625 311.84c14.766 12.524 27.836 26.974 38.869 42.977 0.12733-0.89071 0.34883-1.7604 0.41601-2.6621l5.3398-71.682c0.0702-0.9422 0.108-1.8872 0.11133-2.832l1.1543-328.6v-0.6582c-0.0992-7.6469-2.3427-14.783-6.1641-20.828l-0.33203-0.51367v-33.75c0-10.094-3.8147-19.815-10.682-27.213l-64.408-69.389c-4.669-5.0301-10.553-8.7749-17.088-10.873l-54.395-17.465c-4.3574-1.3991-8.9238-2.0396-13.498-1.8945zm1.2695 39.979 54.395 17.467 7.666 8.2578-620.3 29.342c-1.5119 0.0715-2.9995 0.31377-4.4356 0.71484l-50.4-22.465c-0.62013-0.2764-1.2665-0.48941-1.9297-0.63477l-53.857-11.805 7.4414 0.10352zm-724.96 28.004c1.1612 0.92829 2.5472 1.6113 4.0977 1.9512l100.57 22.043 40.18 17.908-38.596 40.125-36.744-37.953c-1.3814-1.4269-3.1553-2.4099-5.0976-2.8242l-83.176-17.74zm804.82 16.902 38.938 41.949v35.924l-39.355 2.0781 0.27148-79.127c9.4e-4 -0.27438-0.0105-0.54754-0.0312-0.81641zm-20.148 0.95313-0.27344 80.053-607.01 32.051 0.26368-82.887c5.3e-4 -0.16903-2e-3 -0.33886-0.01-0.50586zm-810.41 24.617 82.996 17.701 38.297 39.561c-0.039 0.50818-0.0586 1.02-0.0586 1.5332v473.29c0 5.3298 2.1276 10.438 5.9102 14.193l1.832 1.8184c9.1391 9.072 17.917 17.784 26.33 26.135l1.5684 1.5586 133.3 136.04c0.0715 0.0729 0.14419 0.14689 0.2168 0.21875l1.0293 1.0137c7.5623 7.436 14.467 13.681 21.057 18.859-3.9934-0.49737-7.9598-1.2683-11.871-2.3105-26.093-6.9533-44.625-12.683-55.594-17.189-19.713-8.0993-42.16-5.7363-73.42-37.869-31.259-32.133-132.58-130.49-148.56-146.95-15.974-16.456-23.041-18.624-23.041-55.186zm183.36 14.998-0.23437 73.545-41.895 2.2109v-31.959zm692.63 56.99-7.9883 32.428c-451.24 28.915-681.97 41.494-692.18 37.734s-21.743-11.501-34.594-23.223v-8.1445l676.02-35.693c0.89257 0.26485 1.8383 0.40876 2.8164 0.41211 1.3742 5e-3 2.6834-0.26818 3.877-0.76563z"/>
    <!-- Terminals -->
    <path id="1" d="M300.986253,172.471831 L301.612202,172.475384 C322.427443,172.76355 339.105529,190.520567 339.105529,211.988535 C339.105529,233.54087 322.294161,250.974316 301.387798,250.684888 C280.572557,250.396722 263.894471,232.639705 263.894471,211.171737 C263.894471,190.050449 280.040109,172.884941 300.362836,172.479177 L300.986253,172.471831 Z M310.097571,190.781906 L310.284694,191.199392 C312.027336,195.13778 313,199.513483 313,204.112477 C313,217.395623 304.885926,228.591386 293.5415,232.677737 C296.039727,233.800088 298.766559,234.435988 301.612202,234.475384 C313.29064,234.63706 322.894471,224.677854 322.894471,211.988535 C322.894471,202.568255 317.598747,194.456888 310.097571,190.781906 Z"     />
    <path id="2" d="M387.000734,166.647856 L387.612406,166.651236 C407.949318,166.932781 424.120264,184.746101 424.120264,206.165277 C424.120264,227.666831 407.818351,245.173052 387.387594,244.890208 C367.050682,244.608663 350.879736,226.795343 350.879736,205.376167 C350.879736,184.304644 366.536093,167.070239 386.391613,166.655502 L387.000734,166.647856 Z M396.336489,185.33635 L396.369686,185.41354 C398.057934,189.345316 399,193.71278 399,198.303063 C399,211.611605 391.081123,222.827907 380.018719,226.899191 C382.37711,227.995336 384.94328,228.614285 387.612406,228.651236 C398.661879,228.804205 407.879736,218.905377 407.879736,206.165277 C407.879736,197.012276 403.116085,189.145449 396.336489,185.33635 Z"    />
    <path id="3" d="M470.000803,162.81693 L470.612129,162.820308 C490.937708,163.101696 507.100244,180.905753 507.100244,202.314331 C507.100244,223.805085 490.807064,241.301928 470.387871,241.019244 C450.062292,240.737856 433.899756,222.933799 433.899756,201.525221 C433.899756,180.464282 449.547726,163.239095 469.392026,162.824572 L470.000803,162.81693 Z M478.812419,181.178558 L478.900953,181.364422 C480.882591,185.575074 482,190.326741 482,195.343688 C482,208.218454 474.641121,219.142414 464.20123,223.572939 C466.226413,224.353271 468.383393,224.789453 470.612129,224.820308 C481.673167,224.973437 490.899756,215.065231 490.899756,202.314331 C490.899756,192.915651 485.880728,184.871593 478.812419,181.178558 Z" />
    <path id="4" d="M555.000807,157.994802 L555.612114,157.99818 C575.937053,158.279559 592.099114,176.083093 592.099114,197.491073 C592.099114,218.981217 575.806427,236.477531 555.387886,236.194856 C535.062947,235.913477 518.900886,218.109943 518.900886,196.701963 C518.900886,175.641622 534.548383,158.416955 554.39205,158.002444 L555.000807,157.994802 Z M564.392391,176.669361 L564.534039,177.008576 C566.118262,180.869993 567,185.142898 567,189.628859 C567,203.032579 559.128103,214.316251 548.165277,218.316559 C550.483938,219.368532 552.998695,219.962 555.612114,219.99818 C566.673804,220.151318 575.900886,210.242583 575.900886,197.491073 C575.900886,188.350894 571.154349,180.491765 564.392391,176.669361 Z"    />
    <path id="5" d="M640.000807,154.171544 L640.612114,154.174922 C660.937053,154.456301 677.099114,172.259835 677.099114,193.667815 C677.099114,215.157959 660.806427,232.654273 640.387886,232.371598 C620.062947,232.090219 603.900886,214.286685 603.900886,192.878705 C603.900886,171.818364 619.548383,154.593698 639.39205,154.179186 L640.000807,154.171544 Z M649.392391,172.846103 L649.534039,173.185318 C651.118262,177.046735 652,181.319641 652,185.805601 C652,199.208914 644.12858,210.492308 633.166275,214.492937 C635.484661,215.545445 637.999071,216.138747 640.612114,216.174922 C651.673804,216.328061 660.900886,206.419325 660.900886,193.667815 C660.900886,184.527636 656.154349,176.668507 649.392391,172.846103 Z"/>
    <path id="6" d="M723.000807,150.320599 L723.612114,150.323976 C743.937053,150.605355 760.099114,168.408889 760.099114,189.816869 C760.099114,211.307013 743.806427,228.803327 723.387886,228.520652 C703.062947,228.239273 686.900886,210.435739 686.900886,189.027759 C686.900886,167.967418 702.548383,150.742752 722.39205,150.32824 L723.000807,150.320599 Z M732.392391,168.995157 L732.534039,169.334372 C734.118262,173.195789 735,177.468695 735,181.954655 C735,195.357968 727.12858,206.641362 716.166275,210.641991 C718.484661,211.694499 720.999071,212.287801 723.612114,212.323976 C734.673804,212.477115 743.900886,202.568379 743.900886,189.816869 C743.900886,180.67669 739.154349,172.817561 732.392391,168.995157 Z"  />
    <path id="7" d="M804.002565,147.395783 L804.612752,147.399242 C824.901049,147.680114 841.145219,165.004124 841.145219,185.938235 C841.145219,206.957017 824.767238,223.970259 804.387248,223.688118 C784.098951,223.407247 767.854781,206.083236 767.854781,185.149125 C767.854781,164.550719 783.584194,147.799233 803.394854,147.402962 L804.002565,147.395783 Z M813.488324,166.113344 L813.526051,166.201193 C815.116006,169.97921 816,174.153545 816,178.533656 C816,191.153103 808.6623,201.861314 798.246313,206.219644 C800.255165,206.956009 802.396382,207.368558 804.612752,207.399242 C815.712992,207.552914 824.854781,198.056537 824.854781,185.938235 C824.854781,177.285765 820.191509,169.795029 813.488324,166.113344 Z" />
    <!-- Connectivity -->
    <path id="zwave" d="M837.499376,617.370332 C717.222566,617.370332 619.51195,715.086514 619.51195,835.370177 L648.736193,835.370177 C649.117381,730.995568 733.524612,646.621654 837.512079,646.621654 L837.512079,617.370332 L837.499376,617.370332 Z M837.512079,675.370291 C749.374711,675.370291 677.511984,747.218913 677.511984,835.370177 L706.768197,835.370177 C707.149637,763.140054 765.674782,704.631116 837.512079,704.631116 L837.512079,675.370291 Z M837.518426,748.370239 C814.436839,748.343293 792.292659,757.499571 775.970308,773.819514 C759.647956,790.139457 750.488428,812.282269 750.512027,835.363829 C750.491811,858.445524 759.652019,880.587676 775.97327,896.908906 C792.29452,913.230135 814.436701,922.390331 837.518426,922.370115 C860.600017,922.393714 882.742857,913.234198 899.062821,896.911868 C915.382786,880.589537 924.539075,858.445387 924.51213,835.363829 C924.542465,812.282406 915.386857,790.137591 899.06579,773.816546 C882.744723,757.4955 860.59988,748.339904 837.518426,748.370239 L837.518426,748.370239 Z M808.121818,788.37021 L881.512105,788.37021 L842.399614,850.032369 L881.512105,850.032369 L863.631379,877.370147 L789.51205,877.370147 L829.724506,814.959876 L791.353844,814.959876 L808.109032,788.37021 L808.121818,788.37021 Z"/>
  </g>
</svg>
