<?xml version="1.0" encoding="UTF-8"?>
<svg width="960px" height="960px" viewBox="0 0 960 960" version="1.1" xmlns="http://www.w3.org/2000/svg" xmlns:xlink="http://www.w3.org/1999/xlink">
  <g stroke="none" fill="none" fill-rule="nonzero">
    <path id="7" d="M804.002565,147.395783 L804.612752,147.399242 C824.901049,147.680114 841.145219,165.004124 841.145219,185.938235 C841.145219,206.957017 824.767238,223.970259 804.387248,223.688118 C784.098951,223.407247 767.854781,206.083236 767.854781,185.149125 C767.854781,164.550719 783.584194,147.799233 803.394854,147.402962 L804.002565,147.395783 Z M813.488324,166.113344 L813.526051,166.201193 C815.116006,169.97921 816,174.153545 816,178.533656 C816,191.153103 808.6623,201.861314 798.246313,206.219644 C800.255165,206.956009 802.396382,207.368558 804.612752,207.399242 C815.712992,207.552914 824.854781,198.056537 824.854781,185.938235 C824.854781,177.285765 820.191509,169.795029 813.488324,166.113344 Z"  fill="#000000"></path>
    <path id="6" d="M723.000807,150.320599 L723.612114,150.323976 C743.937053,150.605355 760.099114,168.408889 760.099114,189.816869 C760.099114,211.307013 743.806427,228.803327 723.387886,228.520652 C703.062947,228.239273 686.900886,210.435739 686.900886,189.027759 C686.900886,167.967418 702.548383,150.742752 722.39205,150.32824 L723.000807,150.320599 Z M732.392391,168.995157 L732.534039,169.334372 C734.118262,173.195789 735,177.468695 735,181.954655 C735,195.357968 727.12858,206.641362 716.166275,210.641991 C718.484661,211.694499 720.999071,212.287801 723.612114,212.323976 C734.673804,212.477115 743.900886,202.568379 743.900886,189.816869 C743.900886,180.67669 739.154349,172.817561 732.392391,168.995157 Z"   fill="#000000"></path>
    <path id="5" d="M640.000807,154.171544 L640.612114,154.174922 C660.937053,154.456301 677.099114,172.259835 677.099114,193.667815 C677.099114,215.157959 660.806427,232.654273 640.387886,232.371598 C620.062947,232.090219 603.900886,214.286685 603.900886,192.878705 C603.900886,171.818364 619.548383,154.593698 639.39205,154.179186 L640.000807,154.171544 Z M649.392391,172.846103 L649.534039,173.185318 C651.118262,177.046735 652,181.319641 652,185.805601 C652,199.208914 644.12858,210.492308 633.166275,214.492937 C635.484661,215.545445 637.999071,216.138747 640.612114,216.174922 C651.673804,216.328061 660.900886,206.419325 660.900886,193.667815 C660.900886,184.527636 656.154349,176.668507 649.392391,172.846103 Z" fill="#000000"></path>
    <path id="4" d="M555.000807,157.994802 L555.612114,157.99818 C575.937053,158.279559 592.099114,176.083093 592.099114,197.491073 C592.099114,218.981217 575.806427,236.477531 555.387886,236.194856 C535.062947,235.913477 518.900886,218.109943 518.900886,196.701963 C518.900886,175.641622 534.548383,158.416955 554.39205,158.002444 L555.000807,157.994802 Z M564.392391,176.669361 L564.534039,177.008576 C566.118262,180.869993 567,185.142898 567,189.628859 C567,203.032579 559.128103,214.316251 548.165277,218.316559 C550.483938,219.368532 552.998695,219.962 555.612114,219.99818 C566.673804,220.151318 575.900886,210.242583 575.900886,197.491073 C575.900886,188.350894 571.154349,180.491765 564.392391,176.669361 Z"     fill="#000000"></path>
    <path id="3" d="M470.000803,162.81693 L470.612129,162.820308 C490.937708,163.101696 507.100244,180.905753 507.100244,202.314331 C507.100244,223.805085 490.807064,241.301928 470.387871,241.019244 C450.062292,240.737856 433.899756,222.933799 433.899756,201.525221 C433.899756,180.464282 449.547726,163.239095 469.392026,162.824572 L470.000803,162.81693 Z M478.812419,181.178558 L478.900953,181.364422 C480.882591,185.575074 482,190.326741 482,195.343688 C482,208.218454 474.641121,219.142414 464.20123,223.572939 C466.226413,224.353271 468.383393,224.789453 470.612129,224.820308 C481.673167,224.973437 490.899756,215.065231 490.899756,202.314331 C490.899756,192.915651 485.880728,184.871593 478.812419,181.178558 Z"  fill="#000000"></path>
    <path id="2" d="M387.000734,166.647856 L387.612406,166.651236 C407.949318,166.932781 424.120264,184.746101 424.120264,206.165277 C424.120264,227.666831 407.818351,245.173052 387.387594,244.890208 C367.050682,244.608663 350.879736,226.795343 350.879736,205.376167 C350.879736,184.304644 366.536093,167.070239 386.391613,166.655502 L387.000734,166.647856 Z M396.336489,185.33635 L396.369686,185.41354 C398.057934,189.345316 399,193.71278 399,198.303063 C399,211.611605 391.081123,222.827907 380.018719,226.899191 C382.37711,227.995336 384.94328,228.614285 387.612406,228.651236 C398.661879,228.804205 407.879736,218.905377 407.879736,206.165277 C407.879736,197.012276 403.116085,189.145449 396.336489,185.33635 Z"     fill="#000000"></path>
    <path id="1" d="M300.986253,172.471831 L301.612202,172.475384 C322.427443,172.76355 339.105529,190.520567 339.105529,211.988535 C339.105529,233.54087 322.294161,250.974316 301.387798,250.684888 C280.572557,250.396722 263.894471,232.639705 263.894471,211.171737 C263.894471,190.050449 280.040109,172.884941 300.362836,172.479177 L300.986253,172.471831 Z M310.097571,190.781906 L310.284694,191.199392 C312.027336,195.13778 313,199.513483 313,204.112477 C313,217.395623 304.885926,228.591386 293.5415,232.677737 C296.039727,233.800088 298.766559,234.435988 301.612202,234.475384 C313.29064,234.63706 322.894471,224.677854 322.894471,211.988535 C322.894471,202.568255 317.598747,194.456888 310.097571,190.781906 Z"      fill="#000000"></path>
    <path d="M805.819831,58.2909583 L860.214827,75.7566395 C866.74932,77.8547986 872.63405,81.5989729 877.303081,86.6290833 L941.710305,156.017236 C948.577248,163.415233 952.393377,173.135867 952.393377,183.229691 L952.392856,216.979857 L952.724166,217.494073 C956.545495,223.539163 958.790238,230.676108 958.88946,238.322983 L958.88946,238.979665 L957.733938,567.583769 C957.730616,568.52857 957.69382,569.472957 957.62362,570.415153 L952.845058,634.55993 C945.30045,614.228644 931.268625,597.048893 913.26406,585.535154 L918.060166,289.945244 C916.210665,290.654162 914.234398,291.095635 912.182195,291.227136 C686.503449,305.688267 515.955398,316.06482 400.515773,322.357855 C342.725205,325.508229 298.719677,327.636729 268.460011,328.744244 C231.303079,330.104201 218.329771,330.168721 211.813744,327.770058 C202.912723,324.493437 193.730106,319.177558 184.129163,311.865122 L184.129027,698.936817 C194.541235,709.272668 204.487485,719.145508 213.967777,728.555337 L347.359581,864.68261 C365.186287,882.32584 377.874598,892.434413 392.683909,897.010836 C456.258092,889.774419 509.883958,883.630449 553.561603,878.578899 C556.077038,892.646853 561.569679,905.683805 569.361177,917.017318 C520.160902,922.719539 457.32815,929.917752 380.717577,938.629861 C364.821938,940.437775 348.706425,939.242101 333.205694,935.1118 C305.563008,927.745519 285.676582,921.596413 272.711755,916.269741 C270.812421,915.489389 268.386965,914.744683 263.355849,913.407609 C246.700496,908.981267 240.508093,907.021835 229.505983,901.700396 C214.330343,894.360328 200.039909,883.908828 185.821696,869.293365 C173.949885,857.089861 151.767649,835.101303 116.408142,800.362166 C116.056,800.016205 116.056,800.016205 115.70384,799.670244 C112.690183,796.709663 104.803139,788.968357 96.1459552,780.470978 L95.2920899,779.632873 C94.0080003,778.372485 92.7100747,777.098511 91.4114915,775.823876 L90.5458165,774.974164 L89.3152656,773.766296 C88.8665699,773.325869 88.4186465,772.886197 87.9720432,772.447819 L87.0807587,771.572945 C78.4851577,763.135572 70.5193734,755.31528 67.1403449,751.993212 C56.5964053,741.627011 48.9669728,734.095279 43.7294985,728.869096 L42.949046,728.089695 C42.8643752,728.005067 42.780384,727.921093 42.6970697,727.837771 L41.72963,726.869039 C39.8590883,724.993511 38.3726189,723.487614 37.2350494,722.315746 C37.2450442,722.326043 37.1842298,722.26597 37.0625774,722.145204 L36.9210148,722.004566 C36.7867621,721.871106 36.6125688,721.697739 36.4042052,721.490063 L36.1381364,721.224742 L36.0667533,721.153518 L35.6823737,720.76971 C35.5740001,720.661433 35.4610825,720.548563 35.3439902,720.431458 L34.5942944,719.680874 C33.535783,718.619981 32.2573605,717.333923 30.9481071,716.006191 L30.4560611,715.506697 C30.3739357,715.423241 30.2917822,715.339713 30.2096467,715.256156 L29.7174198,714.754833 C27.5066972,712.50057 25.3764402,710.290921 24.2352589,709.007635 C8.27394371,691.058751 2.89485647,672.172028 2.89485647,639.27019 L2.89485647,156.627033 C2.89485647,147.560282 5.97514845,138.762512 11.6307862,131.675923 L43.6057359,91.6108897 C51.316973,81.9486079 63.0625438,76.3947072 75.423514,76.5658328 L131.802856,77.3468571 L792.323056,56.3959632 C796.89726,56.2508765 801.462439,56.8918437 805.819831,58.2909583 Z M42.8938565,166.851857 L42.8948565,639.27019 C42.8948565,675.831723 49.9619913,677.99876 65.9362092,694.454601 C81.9104271,710.910442 183.233413,809.268532 214.492927,841.401421 C245.752441,873.534311 268.199601,871.171432 287.912984,879.270786 C298.881842,883.777403 317.412694,889.50735 343.50554,896.460627 C347.41684,897.502826 351.383343,898.273668 355.376743,898.771042 C348.786611,893.592615 341.881871,887.348643 334.319541,879.912602 L333.290787,878.897709 C333.218186,878.825856 333.146137,878.753447 333.074646,878.68049 L199.769027,742.641906 L198.200619,741.084719 C189.787074,732.733654 181.010763,724.022118 171.871685,714.95011 L170.039033,713.130902 C166.256423,709.376032 164.129027,704.266657 164.129027,698.936817 L164.129027,225.645918 C164.129027,225.132765 164.148751,224.621591 164.187787,224.113415 L125.889856,184.553033 L42.8938565,166.851857 Z M918.889708,238.839056 L866.843998,241.588059 C865.650444,242.085506 864.340056,242.358232 862.965874,242.353557 C861.987753,242.350208 861.042912,242.206543 860.150345,241.941687 L184.129027,277.634565 L184.129027,285.779898 C196.979327,297.501562 208.510595,305.242045 218.722833,309.001348 C228.935072,312.760651 459.661877,300.182892 910.90325,271.268071 L918.889708,238.839056 Z M226.257856,181.848857 L184.129027,225.645918 L184.128856,257.605857 L226.022856,255.393857 L226.257856,181.848857 Z M853.306856,142.233857 L246.280901,170.946148 C246.288658,171.113148 246.292316,171.281214 246.291777,171.450245 L246.026856,254.337857 L853.033856,222.287857 L853.306856,142.233857 Z M873.45574,141.280906 L873.278147,141.28967 C873.298912,141.558539 873.309038,141.830373 873.308104,142.10475 L873.037856,221.231857 L912.392856,219.153857 L912.393302,183.229719 L873.45574,141.280906 Z M68.6301937,124.379409 L49.8668565,147.888857 L133.042445,165.629527 C134.984801,166.043809 136.759807,167.027076 138.141211,168.453996 L174.883856,206.406857 L213.480856,166.281857 L173.300806,148.373 L72.7287876,126.330114 C71.1783349,125.990278 69.7914274,125.307707 68.6301937,124.379409 Z M793.591157,96.3758571 L132.166727,117.35522 L124.724856,117.251857 L178.582124,129.056736 C179.245322,129.202098 179.891992,129.414623 180.512125,129.691022 L230.912112,152.155319 C232.348126,151.754244 233.834937,151.512119 235.346848,151.440607 L855.651856,122.099857 L847.986153,113.841538 L793.591157,96.3758571 Z" id="Combined-Shape" fill="#000000"></path>

    <path id="matter" d="M896.080068,755.757336 C861.274935,765.236175 830.073936,787.812258 810.608134,821.338781 C791.142332,854.865304 787.072448,893.04901 796.217718,927.757141 L830.322047,908.167541 C827.560723,890.960931 829.215186,873.339539 835.131911,856.938529 L914.827655,902.683665 L933.557831,891.91934 L933.557831,870.420987 L853.862086,824.68018 C865.19005,811.380241 879.711377,801.139175 896.080068,794.906239 L896.080068,755.757336 Z M648.025662,755.757336 L648.025662,794.905254 C664.396639,801.13637 678.919589,811.377452 690.247234,824.678446 L610.557771,870.42243 L610.557771,891.920242 L629.28954,902.684296 L708.979003,856.940311 C715.029935,873.68151 716.492606,891.296991 713.802335,908.168034 L747.896505,927.757141 C757.042554,893.045555 752.976676,854.867138 733.504865,821.341459 C714.84502,789.111065 684.114211,765.532779 648.025662,755.757336 L648.025662,755.757336 Z M772.053465,612.757499 L753.394501,623.573382 L753.394501,715.612895 C735.849958,712.42996 719.849127,704.831845 706.545455,694.011607 L672.557783,713.701392 C698.120086,739.086498 733.265542,754.757337 772.057801,754.757337 C810.850059,754.757337 845.995516,739.086498 871.557819,713.701392 L837.583155,694.011607 C824.022304,705.058211 807.903556,712.488225 790.721101,715.612895 L790.721101,623.573382 L772.053465,612.757499 Z" fill="#000000"></path>
  </g>
</svg>
