<?xml version="1.0" encoding="UTF-8"?>
<svg width="960" height="960" version="1.1" viewBox="0 0 960 960" xmlns="http://www.w3.org/2000/svg">
  <style type="text/css">
    .blink {
      animation: blink 2s infinite;
    }

    @keyframes blink {
      0%, 25%, 50%, 75%, 100% {
        opacity: 1;
      }
      26%, 49%, 76%, 99% {
        opacity: 0;
      }
    }
  </style>
 <path d="m739.42 212.99c113.28 17.929 196.18 112 215.79 227.78 5.9506 32.465 6.5849 66.877 1.0454 101.85-1.4754 9.3154-3.355 18.457-5.6153 27.406-31.387 131.22-140.19 226.49-264.34 227.02l-2.5313-0.01-0.26285 0.0128c-0.66185 0-1.3274 0-1.9961-0.021l-0.40988-0.018-1.1357-0.0193c-6.1018-0.13308-12.205-0.49762-18.302-1.0948l-0.83407-0.0859-364.48-21.821c-3.4624-0.20729-6.7976-0.84986-9.9546-1.8719l-0.30845-0.10261-0.51847-0.0564c-2.047-0.23156-4.0863-0.48731-6.1175-0.76731l-2.0286-0.2881c-60.366-8.8258-114.06-38.421-153.67-83.185l-0.24778-0.28188-2.5309-0.87406c-80.384-28.529-129.03-117.98-115.8-211.96l0.44844-3.0331c11.936-77.071 63.149-139.85 130.12-160.97l0.18675-0.0574 1.1357-1.1864c50.507-52.327 118.95-83.125 190.56-84.103l1.4776-0.0131 360.25-15.198c1.3747-0.058 2.7355-0.0461 4.079 0.0325l0.37185 0.0249 0.45596-0.0129c15.358-0.37793 30.468 0.5797 45.165 2.9058zm-23.747 37.528-2.4425 0.0836c-107.46 4.6095-202.74 94.802-222.3 218.32-21.982 138.79 59.942 267.1 182.98 286.58 3.4608 0.54814 6.9173 1.0044 10.368 1.3703l1.0304 0.1041c7e-3 -0.94452 0.14942-1.9096 0.44426-2.873l4.125-13.479c1.2863-4.2032 5.1666-7.0737 9.5622-7.0737h32.487c4.7072 0 8.7772 3.2829 9.7735 7.8835l1.5503 7.154c86.044-25.407 156.35-105.78 172.84-209.82 21.974-138.64-59.923-266.81-182.92-286.28-5.7669-0.91271-11.604-1.5703-17.494-1.9803zm-91.862 2.3146-293.69 12.397c-62.868 0.29491-122.11 27.753-165.19 72.856-28.499 34.24-48.282 76.164-56.147 122.05-14.739 85.992 5.0993 160.96 54.4 211.13 11.202 11.149 23.617 21.079 37.085 29.56 2.7917 1.7346 5.6435 3.4101 8.5522 5.0279 0.36396 0.20243 0.71034 0.42423 1.0386 0.66338 22.107 12.351 46.768 20.926 73.347 24.812 5.1372 0.75109 10.33 1.3151 15.566 1.6971l-0.0347 1.0399 302.82 18.137c-94.151-49.759-149.66-164.67-130.38-286.4 15.469-97.669 75.37-176.28 152.64-212.96zm-497.54 104.94-0.68072 0.36074c-40.683 21.799-72.068 65.496-80.44 119.55-10.641 68.709 19.135 133.25 69.701 162.19-28.323-50.468-37.664-113.79-25.781-183.12 6.1223-35.72 18.954-69.218 37.201-98.981zm587-57.101c3.1872 0.39133 5.3743 3.9382 4.8852 7.9222-0.48916 3.984-3.4694 6.8964-6.6566 6.505-3.1872-0.39133-5.3743-3.9382-4.8852-7.9222 0.48916-3.984 3.4694-6.8964 6.6566-6.505z" fill-rule="evenodd"/>
 <g class="blink">
   <path d="m658.34 471.4 3.3811-0.35276c1.8732-0.19543 3.3811 1.1441 3.3811 3.0035v34.928c0 1.8594-1.508 3.5136-3.3811 3.709l-3.3811 0.35276c-1.8732 0.19542-3.3811-1.1441-3.3811-3.0035v-34.928c0-1.8594 1.508-3.5136 3.3811-3.709z" stroke="#000" stroke-linecap="round" stroke-linejoin="round" stroke-width="2.6949"/>
   <path d="m605.64 532.4 3.3811-0.35276c1.8732-0.19542 3.3811 1.1441 3.3811 3.0035v34.928c0 1.8594-1.508 3.5136-3.3811 3.709l-3.3811 0.35276c-1.8732 0.19543-3.3811-1.1441-3.3811-3.0035v-34.928c0-1.8594 1.508-3.5136 3.3811-3.709z" stroke="#000" stroke-linecap="round" stroke-linejoin="round" stroke-width="2.6949"/>
   <path d="m655.1 573.89v3.3562c0 1.8594-1.508 3.5136-3.3811 3.709l-35.187 3.6711c-1.8732 0.19542-3.3811-1.1441-3.3811-3.0035v-3.3562c0-1.8594 1.508-3.5136 3.3811-3.709l35.187-3.6711c1.8732-0.19543 3.3811 1.1441 3.3811 3.0035z" stroke="#000" stroke-linecap="round" stroke-linejoin="round" stroke-width="2.6949"/>
   <path d="m655.1 518.55v3.3562c0 1.8594-1.508 3.5136-3.3811 3.709l-35.187 3.6711c-1.8732 0.19542-3.3811-1.1441-3.3811-3.0035v-3.3562c0-1.8594 1.508-3.5136 3.3811-3.709l35.187-3.6711c1.8732-0.19543 3.3811 1.1441 3.3811 3.0035z" stroke="#000" stroke-linecap="round" stroke-linejoin="round" stroke-width="2.6949"/>
   <path d="m655.1 463.21v3.3562c0 1.8594-1.508 3.5136-3.3811 3.709l-35.187 3.6711c-1.8732 0.19542-3.3811-1.1441-3.3811-3.0035v-3.3562c0-1.8594 1.508-3.5136 3.3811-3.709l35.187-3.6711c1.8732-0.19543 3.3811 1.1441 3.3811 3.0035z" stroke="#000" stroke-linecap="round" stroke-linejoin="round" stroke-width="2.6949"/>
   <path d="m693.97 467.69 3.3811-0.35276c1.8731-0.19542 3.3811 1.1441 3.3811 3.0035v34.928c0 1.8594-1.508 3.5136-3.3811 3.709l-3.3811 0.35276c-1.8732 0.19543-3.3811-1.1441-3.3811-3.0035v-34.928c0-1.8594 1.508-3.5136 3.3811-3.709z" stroke="#000" stroke-linecap="round" stroke-linejoin="round" stroke-width="2.6949"/>
   <path d="m693.97 523.18 3.3811-0.35276c1.8731-0.19542 3.3811 1.1441 3.3811 3.0035v34.928c0 1.8594-1.508 3.5136-3.3811 3.709l-3.3811 0.35276c-1.8732 0.19543-3.3811-1.1441-3.3811-3.0035v-34.928c0-1.8594 1.508-3.5136 3.3811-3.709z" stroke="#000" stroke-linecap="round" stroke-linejoin="round" stroke-width="2.6949"/>
   <path d="m746.67 517.68 3.3811-0.35276c1.8732-0.19543 3.3811 1.1441 3.3811 3.0035v34.928c0 1.8594-1.508 3.5136-3.3811 3.709l-3.3811 0.35276c-1.8731 0.19542-3.3811-1.1441-3.3811-3.0035v-34.928c0-1.8594 1.508-3.5136 3.3811-3.709z" stroke="#000" stroke-linecap="round" stroke-linejoin="round" stroke-width="2.6949"/>
   <path d="m743.44 564.67v3.3562c0 1.8594-1.508 3.5136-3.3811 3.709l-35.187 3.6711c-1.8732 0.19542-3.3811-1.1441-3.3811-3.0035v-3.3562c0-1.8594 1.508-3.5136 3.3811-3.709l35.187-3.6711c1.8732-0.19543 3.3811 1.1441 3.3811 3.0035z" stroke="#000" stroke-linecap="round" stroke-linejoin="round" stroke-width="2.6949"/>
   <path d="m743.44 509.34v3.3562c0 1.8594-1.508 3.5136-3.3811 3.709l-35.187 3.6711c-1.8732 0.19542-3.3811-1.1441-3.3811-3.0035v-3.3562c0-1.8594 1.508-3.5136 3.3811-3.709l35.187-3.6711c1.8732-0.19543 3.3811 1.1441 3.3811 3.0035z" stroke="#000" stroke-linecap="round" stroke-linejoin="round" stroke-width="2.6949"/>
   <path d="m782.31 458.47 3.3811-0.35276c1.8731-0.19542 3.3811 1.1441 3.3811 3.0035v34.928c0 1.8594-1.508 3.5136-3.3811 3.709l-3.3811 0.35276c-1.8731 0.19542-3.3811-1.1441-3.3811-3.0035v-34.928c0-1.8594 1.508-3.5136 3.3811-3.709z" stroke="#000" stroke-linecap="round" stroke-linejoin="round" stroke-width="2.6949"/>
   <path d="m835.01 452.97 3.3811-0.35276c1.8732-0.19543 3.3811 1.1441 3.3811 3.0035v34.928c0 1.8594-1.508 3.5136-3.3811 3.709l-3.3811 0.35276c-1.8731 0.19542-3.3811-1.1441-3.3811-3.0035v-34.928c0-1.8594 1.508-3.5136 3.3811-3.709z" stroke="#000" stroke-linecap="round" stroke-linejoin="round" stroke-width="2.6949"/>
   <path d="m782.31 513.96 3.3811-0.35276c1.8731-0.19542 3.3811 1.1441 3.3811 3.0035v34.928c0 1.8594-1.508 3.5136-3.3811 3.709l-3.3811 0.35276c-1.8731 0.19542-3.3811-1.1441-3.3811-3.0035v-34.928c0-1.8594 1.508-3.5136 3.3811-3.709z" stroke="#000" stroke-linecap="round" stroke-linejoin="round" stroke-width="2.6949"/>
   <path d="m831.77 500.12v3.3562c0 1.8594-1.508 3.5136-3.3811 3.709l-35.187 3.6711c-1.8732 0.19543-3.3811-1.1441-3.3811-3.0035v-3.3562c0-1.8594 1.508-3.5136 3.3811-3.709l35.187-3.6711c1.8732-0.19543 3.3811 1.1441 3.3811 3.0035z" stroke="#000" stroke-linecap="round" stroke-linejoin="round" stroke-width="2.6949"/>
   <path d="m831.77 444.78v3.3562c0 1.8594-1.508 3.5136-3.3811 3.709l-35.187 3.6711c-1.8732 0.19543-3.3811-1.1441-3.3811-3.0035v-3.3562c0-1.8594 1.508-3.5136 3.3811-3.709l35.187-3.6711c1.8732-0.19543 3.3811 1.1441 3.3811 3.0035z" stroke="#000" stroke-linecap="round" stroke-linejoin="round" stroke-width="2.6949"/>
 </g>
</svg>
