<svg height="960" viewBox="0 0 960 960" width="960" xmlns="http://www.w3.org/2000/svg"><path d="m747.5 242c1.615752 0 3.229676.043229 4.840851.129543l59.890164 1.874457.043512-.000745c22.703846.1909 44.02759 8.771423 62.538335 23.987735l.629956.521306c16.212223 13.505535 30.080675 31.958858 41.3733 54.20017 21.360069 42.069578 33.183882 97.127434 33.183882 155.287534s-11.823813 113.217956-33.183882 155.287534c-11.292625 22.241312-25.161077 40.694635-41.3733 54.20017-18.656248 15.541523-40.206447 24.315972-63.168291 24.509041l-.051512-.000745-60.002 1.879-.348131.019312c-1.091768.052817-2.184753.085858-3.278669.099078l-1.094215.00661c-37.55142 0-69.923779-22.40172-93.754203-59.079602-15.432379-23.752283-27.308333-53.544643-34.934988-86.887481l-.274794-1.208917-.374568-.026354c-4.131104-.290912-8.132395-.517304-12.002965-.679472l-1.285347-.051678c-6.761486-.26032-15.605112-.168873-26.447866.285232l-.761702 2.455374c-27.375462 86.908303-97.327789 148.789734-180.32897 150.169356l-2.834597.023542c-.547112 0-1.094024-.002656-1.640724-.007967l-1.608261-.024033-.137026.007693c-1.852284.071445-3.733385.014843-5.634041-.178043l-.713644-.078736-.084289-.010914-1.483496-.091853c-6.432351-.428438-12.822941-1.229925-19.154925-2.396775l-.012579-.002372-.984136-.121496c-31.032383-3.826053-54.674841-7.040698-71.161576-9.685471l-.592791-.095346c-16.164666-2.606908-32.024627-5.735958-47.578371-9.388217l-1.420342-.33747-1.485134-.251578c-47.883429-8.369968-90.533212-36.062717-120.576442-76.755696l-.730208-.997726-1.194104-.81099c-28.0119621-19.184242-49.6884909-44.794293-62.4483936-74.185389l-.3115028-.724621-.1961854-.05792c-3.3933041-1.026794-6.5779195-2.487778-9.4987301-4.31126l-.2470845-.15782-.1749313-.079173c-27.1656761-12.678313-41.50355421-43.435138-32.9848265-73.544403l.3064519-1.050031c6.395156-21.260358 22.8799744-37.42587 42.8391035-44.235386l.8202024-.274007.5234637-1.163323c12.9045081-28.420794 34.1961105-53.179138 61.4799157-71.839837l1.087621-.73884.177789-.243081c26.470963-36.179335 62.951928-62.296895 104.362156-73.736386l.300055-.081533.048219-.019346c1.34123-.525326 2.721113-.982169 4.135997-1.365787l.532216-.140414c19.213727-4.929525 38.499072-8.153703 57.832981-9.660294 17.89077-1.394135 51.517625-2.76059 101.497023-4.14874.901417-.025036 1.796539-.020092 2.684424.013915l.07714.004666.068806-.002143c.546266-.010616 1.092755-.01858 1.639455-.02389l1.640724-.007967c86.461278 0 158.997812 65.548617 185.11922 156.688689l.751795 2.686311.248367.012105c7.578316.359682 14.0692.544522 19.446954.556445l.552348.000617c3.794123 0 7.97686-.089038 12.542404-.267999l.422927-.017168.120348-.792538c5.893064-38.572483 17.172921-73.726855 32.966236-102.033334l.625762-1.113796c11.244303-19.875243 24.69353-36.261833 40.19418-48.21551 17.941385-13.835904 38.384521-21.503822 60.009459-21.503822zm-353 54.5-2.514809.024632c-.053674.001052-.107345.002138-.161012.003258-84.345027 1.759871-152.324179 86.56724-152.324179 190.97211 0 95.011897 56.297643 173.79392 129.994502 188.526754l2.238524.426796.459773.08045 1.934.329.151.025.464.072 1.869.28.2.029.192.026 1.824.237.678586.084524 1.666414.183476.915135.094218c.562755.056982 1.126753.108278 1.691581.155844l-.609716-.056062.878773.075396c.327203.026672.654622.052082.982261.076229.919099.067736 1.839925.125529 2.76254.173356 1.33861.075604 2.683182.124982 4.031938.153124.053869.001132.107873.002224.16188.003282l2.513809.024613 2.401951-.022645c.259562-.004896.518987-.010585.778273-.017064.531123-.012885 1.061566-.029354 1.591343-.0491l-.216768.006809 1.207354-.0485c.826079-.037464 1.650686-.082952 2.473768-.136403.835594-.054265 1.669616-.116738 2.502008-.18736 30.327287-2.573031 58.491842-15.962843 81.739757-37.260763l.804809-.742285.310304-.290689-.863.807.916579-.850744.925421-.874256-.487.458.775937-.734293.254063-.244707.195-.187.038-.036.37852-.362233.31748-.311767.410808-.398416.383192-.378584.089-.088-.064934.065948.096934-.096948.82044-.816107c8.230473-8.255354 15.760415-17.530974 22.462711-27.670593-24.844181 29.044135-58.702688 46.9667-96.24195 46.9667-35.611319 0-67.910247-16.128902-92.342308-42.581049-.384356-.418792-.768035-.838131-1.149596-1.259859l-.026985-.028718c-.041768-.046272-.083513-.092575-.125235-.138908-6.309057-6.994883-12.037032-14.643051-17.128778-22.835607-.028231-.048188-.057377-.095115-.086501-.14206-.201287-.321851-.40048-.645488-.598682-.969962-.051545-.086701-.103968-.172657-.15632-.25867-.163714-.26684-.325796-.534918-.487204-.803557-.09621-.161989-.192794-.323277-.289134-.484762-.155151-.258444-.309132-.518224-.462486-.778519-.071511-.122739-.143325-.244928-.215-.367228l-.486063-.833866c-.164486-.285231-.328602-.570812-.491965-.856985-.05823-.101514-.116004-.203005-.173684-.304572-.473585-.83395-.940994-1.672851-1.40197-2.516634-.119907-.22028-.239973-.441286-.359602-.662629-.140575-.258989-.279804-.518056-.41843-.777573l-.054258-.101842-.027-.051-.008-.016-.023-.043-.014-.026-.494328-.934627c-7.192412-13.714129-12.711572-28.660581-16.353453-44.404331-.020515-.088738-.040885-.176976-.061196-.265242-.16539-.719697-.326918-1.441165-.484505-2.164251-.015337-.067731-.030175-.13592-.044979-.204127l-.055842-.261209c-.137851-.640003-.272616-1.281263-.404283-1.923753-.026878-.125883-.052859-.253184-.07872-.380542l-.074891-.376582c-.12463-.620537-.246373-1.242206-.365218-1.864983-.057112-.291232-.112238-.583467-.166731-.875988-.100183-.546849-.199613-1.09378-.29681-1.641533-.065481-.358609-.128283-.718088-.190129-1.077983-.06665-.399199-.133873-.797888-.199914-1.196997-.092233-.544988-.180488-1.092306-.266535-1.640551-.045426-.302944-.092094-.604924-.138088-.907134-.083985-.53765-.163831-1.077036-.241537-1.617292-.057836-.417281-.116438-.834083-.173756-1.251305-.072675-.513146-.141409-1.02835-.208197-1.544316-.002838-.050424-.009133-.099153-.015411-.147888l-.016647-.117749c-.044936-.350759-.088967-.701806-.13209-1.053136-.017923-.12888-.03374-.25883-.049433-.388827l-.05279-.45889c-.071665-.605105-.140639-1.211037-.206913-1.817774-.016082-.129355-.030104-.258972-.044003-.388635l-.058874-.574624c-.052933-.507157-.103981-1.014867-.153137-1.523116-.003163-.042486-.007219-.084516-.011261-.126551-.017139-.150519-.031522-.302157-.045739-.453855l-.064206-.716351c-.042807-.474455-.083967-.949369-.123475-1.424731-.016672-.18286-.031637-.366169-.046357-.549561l-.055037-.718556c-.038094-.496004-.074391-.992485-.108886-1.489432-.0218-.297465-.041841-.596201-.061233-.895151-.014138-.241134-.029362-.481781-.044163-.722537-.028346-.454716-.054737-.909327-.079619-1.364305-.004967-.075711-.009063-.151542-.013117-.227386l-.013873-.277631c-.012261-.234874-.02412-.469845-.035576-.704912-.002098-.048605-.004457-.097304-.006798-.146006l-.017004-.35504c-.01631-.352445-.031714-.705103-.046211-1.057971-.005312-.116758-.009994-.23344-.014577-.350154l-.004313-.127532c-.016316-.416589-.031185-.833236-.044787-1.250165-.001276-.042945-.002647-.085336-.004005-.127729l-.008474-.266399c-.006168-.200922-.012043-.401909-.017623-.60296-.004468-.151844-.008495-.303478-.012356-.455161-.00488-.202991-.009766-.405963-.014352-.609001-.009075-.399418-.016934-.799542-.023626-1.199907-.000784-.048969-.001587-.097997-.002373-.147029l-.001377-.085191c-.007444-.47769-.013227-.955722-.017345-1.434087-.00122-.142606-.0023-.285197-.003232-.427819-.002931-.448058-.004394-.896141-.004394-1.344505l-.000201-.219.001-.158.004-.995.001-.147v-.038l.005308-.580519c.003726-.360119.00841-.720121.014037-1.079929.00363-.229916.007612-.459634.011979-.689269l.007998-.402332.008812-.402c.004157-.178424.008499-.357475.013075-.536475.001885-.086209.004133-.172386.006434-.258548l.007736-.272606.016456-.558046c.006571-.209045.013338-.417762.020421-.626406.012328-.367576.025789-.735229.040233-1.102657l.005816-.141909.000727-.035484c.003145-.078494.006336-.156976.009571-.235443l.020793-.476693c.011468-.262593.023439-.525069.035911-.787426.001804-.032424.003364-.065056.004933-.097686l.015066-.314253c.009519-.192057.019306-.38405.029362-.575978.009771-.201853.02062-.40362.031764-.605293.004943-.067536.008763-.135845.012618-.204145.023117-.416386.047833-.832051.073806-1.2474l.033527-.518059c.019756-.327887.041785-.654677.064588-.981208.01178-.143548.022057-.288107.032486-.432625l.001037-.022181c.027648-.382914.056366-.765548.086152-1.147898.011571-.166459.024639-.331813.037906-.497098l.065069-.773196c.029224-.34697.059328-.6937.090311-1.040186l.016476-.201513.062182-.675748.046497-.471491c.056648-.589032.115836-1.177342.177555-1.764908l.044959-.441747.051786-.459751c.062134-.566976.126627-1.133249.19347-1.6988.01795-.16946.038096-.338144.05845-.506748l.063837-.505867c.071181-.577121.144812-1.153477.220883-1.72905.042823-.340464.088519-.67954.135056-1.018281.067886-.478252.135436-.957054.204674-1.435292.073034-.519459.150155-1.037644.229241-1.555011.046912-.292949.092582-.587373.138892-.881574.082464-.537079.168907-1.071772.257448-1.605565.07064-.413923.140751-.828635.212138-1.242884.066649-.39765.136292-.79431.207092-1.190458.093276-.512163.186795-1.02407.282265-1.53524.047449-.262496.096967-.52449.146992-.786253.126077-.652349.253947-1.304062.38499-1.954527.016561-.088028.034192-.175158.051879-.262262l.087801-.424746c.129766-.632469.262534-1.263746.398293-1.893803l.157823-.728133c3.168182-14.434471 7.907719-28.221991 14.063816-41.030951.051324-.104143.101982-.20933.152735-.31445.157652-.328924.317176-.656606.47763-.983636.057822-.115847.115264-.232653.172824-.349375.140323-.286305.282039-.571602.424464-.856395.068141-.134855.135815-.269808.203647-.404645.197394-.393453.396718-.785815.597393-1.177197.023494-.04517.047142-.091264.070809-.137345.180394-.351671.361922-.702034.544536-1.051601.041957-.080274.084299-.161216.1267-.242113l.466798-.883984c.083111-.156874.166621-.31344.250349-.46984l.432672-.802028c6.613098-12.200188 14.557853-23.371976 23.674812-33.198682.168846-.182837.338247-.364841.508021-.54635.37078-.394258.742882-.78715 1.116883-1.177814.289048-.305926.58092-.608775.87385-.910177.104495-.102334.207252-.207573.31015-.312645 24.052611-24.608249 55.194831-39.481172 89.391501-39.481172 37.539262 0 71.397769 17.922565 96.240557 46.967138-5.847441-8.848891-12.326558-17.039375-19.351484-24.468043l-.011274-.012095-.522-.548.146.151-.394-.411.094.099-.635-.66.38.393-.320786-.334892-.224214-.229108-.053-.055-.637-.652-.053-.054-.011-.011-.055-.056-.017-.018-.023-.023-.048-.049-.081487-.083341-.663513-.667659.274.277-.463218-.46633-.041782-.04167.03.029-.743899-.739313c-.259623-.256203-.519929-.511398-.780914-.765581-.527461-.513712-1.057697-1.023288-1.590674-1.528688l.262173.254738c-22.903342-21.782433-50.815597-35.784297-81.015708-39.058053-.123806-.017487-.248253-.030726-.372743-.043783-.809781-.084936-1.621334-.162198-2.434611-.231726-.81998-.070102-1.641714-.132342-2.46515-.18666-.865904-.05712-1.733691-.105479-2.603305-.145008l1.272831.065074-1.080488-.055286-.892512-.038714-.383-.015-1.322-.042-.976417-.022794zm353-14-1.544397.023988c-.181996.005656-.363883.012311-.545658.01996-.336545.013852-.67233.031315-1.007696.052149l1.007696-.052149c-.570629.024015-1.14016.057839-1.708549.101394l.700853-.049245c-.499037.031002-.997147.069468-1.494302.115343l.793449-.066098c-.559654.042887-1.118201.095208-1.675601.156889l.882152-.090791c-.495492.045722-.990036.098805-1.483604.159194l.601452-.068403c-.519241.057458-1.037485.12304-1.554701.196683l.953249-.12828c-.496671.060769-.992354.128938-1.487022.204451l.533773-.076171c-.535861.076298-1.070617.16125-1.604231.254789l1.070458-.178618c-.468529.071523-.936147.149635-1.402831.234289l.332373-.055671c-.518327.090859-1.035576.18982-1.551713.296822l1.21934-.241151c-.464291.084221-.927657.174917-1.390075.272044l.170735-.030893c-.500011.103658-.998979.214862-1.496873.333557l1.326138-.302664c-.458974.096403-.917015.199141-1.3741.30817l.047962-.005506c-19.917181 4.748114-38.11526 21.481964-52.613453 46.624618-.167535.288812-.333797.579464-.499562.871217l.499562-.871217c-.228331.39597-.455744.794025-.682232 1.194151-.3344.590869-.666519 1.186414-.996581 1.786395l.996581-1.786395c-.361058.637867-.719764 1.280999-1.076087 1.929338l.079506-.142943c-14.459399 26.284091-24.969165 61.081757-29.520671 100.425454-.009495.067941-.017355.136182-.025197.204438l.025197-.204438c-.105365.91079-.207538 1.824016-.306492 2.73963l.281295-2.535192c-.135874 1.182605-.266399 2.369486-.391519 3.560542l.110224-1.02535c-.102564.949008-.20167 1.90058-.297292 2.854662l.187068-1.829312c-.105904 1.008128-.207936 2.019247-.306062 3.033297l.118994-1.203985c-.100583 1.003578-.19731 2.009934-.290149 3.019001l.171155-1.815016c-.101121 1.044997-.198094 2.093105-.290883 3.144259l.119728-1.329243c-.086929.944837-.17045 1.892053-.250535 2.841594l.130807-1.512351c-.090786 1.028462-.177565 2.059839-.260305 3.094069l.129498-1.581718c-.074718.885907-.146446 1.773838-.215163 2.663752l.085665-1.082034c-.081374 1.017156-.15884 2.037072-.232365 3.059688l.1467-1.977654c-.083176 1.077186-.161941 2.157277-.236254 3.240197l.089554-1.262543c-.068757.956303-.134067 1.914968-.195905 2.875946l.106351-1.613403c-.599617 8.737851-.909455 17.659878-.909455 26.726464 0 19.309345 1.405341 37.963013 4.022267 55.578288.02073.144823.042196.288807.06374.432714l-.06374-.432714c.156851 1.055808.318055 2.107886.483569 3.156151l-.419829-2.723437c.142359.950882.28818 1.898463.437432 2.842692l-.017603-.119255c6.025935 38.164531 17.765864 71.275234 33.206486 95.355328.039728.064299.07997.126845.120238.189329l-.120238-.189329c.338672.528169.679124 1.051992 1.021335 1.571429l-.901097-1.3821c.449012.696745.901066 1.385764 1.35611 2.06697l-.455013-.68487c.333963.506917.6696 1.009656 1.006894 1.508179l-.551881-.823309c15.06423 22.551322 33.404767 36.539967 53.090367 38.822875.200532.025639.402048.047612.603723.068366l-.603723-.068366c.445268.051637.891224.097285 1.337846.136908l-.734123-.068542c.506056.052076 1.013114.096474 1.521144.133136l-.787021-.064594c.47065.041755.94204.076818 1.414143.105148l-.627122-.040554c.554127.039988 1.109411.070772 1.665816.092279l-1.038694-.051725c.486984.029224.974727.051282 1.463201.066129l1.505773.022874 1.616353-.026145c53.291762-1.731206 96.383647-88.550052 96.383647-195.473855s-43.091885-193.742649-96.377128-195.473657zm118.5 195.5c0 84.219081-25.175771 158.359478-64.787185 193.828806l10.287185-.328806c54.031883 0 98-86.597104 98-193.5s-43.968117-193.5-98.015629-193.500244l-10.270556-.327667c39.610838 35.46968 64.786185 109.609538 64.786185 193.827911zm-551.555489-178.892231-.361204.022575c-9.46582.44674-17.137788.890977-23.01562 1.332691l-1.028842.078718c-16.396961 1.27773-32.783543 3.966817-49.160006 8.067398l-1.375839.347849.002057.306999-.385252.093238c-36.320709 8.790285-68.536866 32.251423-90.947248 65.715131l-.154751.148441-.920859.566561c-19.52617 29.584546-31.096947 66.360509-31.096947 106.21263 0 39.848763 11.568827 76.621887 31.092012 106.205152.306058.189779.613539.379081.921956.567512l.154773.148462c24.7329 36.934097 61.286203 61.546669 102.069752 67.929247 15.489616 3.711472 31.323682 6.871788 47.50222 9.480934 1.150586.185557 2.340228.374345 3.568968.566369-49.672451-37.519453-82.309681-104.145783-82.309681-179.397676 0-81.700674 38.470667-153.23409 95.444511-188.392231zm433.055489.892231c53.50026 0 93.423469 80.398229 93.423469 178s-39.923209 178-93.423469 178-93.423469-80.398229-93.423469-178 39.923209-178 93.423469-178zm0 20c-38.64676 0-73.423469 70.034095-73.423469 158s34.776709 158 73.423469 158 73.423469-70.034095 73.423469-158-34.776709-158-73.423469-158zm-329 20c-4.810111 0-9.557734.360064-14.225741 1.060113 60.893614 8.802863 107.408281 71.34448 107.408281 146.439887s-46.514667 137.637024-107.406216 146.440086c4.665942.69985 9.413565 1.059914 14.223676 1.059914 64.945773 0 118.5-65.640395 118.5-147.5s-53.554227-147.5-118.5-147.5zm347.5-1c.741276 0 1.481871.0183 2.221435.05485 5.466827.270178 10.584048 2.769083 14.158651 6.91413 22.941038 26.602024 36.619914 76.806078 36.619914 132.03102 0 55.224407-13.67859 105.427855-36.619332 132.029651-3.58821 4.160844-8.73014 6.662282-14.21858 6.917033l-.341779.015864c-.190008.008819-.380133.014927-.570316.018323l-.892988.015942c-.11899.003187-.237996.003187-.357005.003187-24.080447 0-43.445475-18.049912-56.396333-46.589767-11.3119-24.928075-17.603667-57.709066-17.603667-92.410233s6.291767-67.482158 17.603667-92.410233c12.950858-28.539855 32.315886-46.589767 56.396333-46.589767zm-376.5 21c-6.280928 0-12.481544.709792-18.546212 2.101899 35.315181 26.437676 57.728752 73.458395 57.728752 125.398101 0 51.94017-22.41407 98.961788-57.727129 125.399154 5.801354 1.330981 11.728703 2.038303 17.731744 2.096881l.812845.003965c55.933889 0 102.18254-56.686089 102.18254-127.5s-46.248651-127.5-102.18254-127.5zm-88.601201 109.3-.004.037-.025.25.001-.003-.151083 1.621333c-.146176 1.646375-.270401 3.29946-.372385 4.958717l-.008532.12795-.031632.54572c-.012981.224669-.025554.44945-.037719.674341l-.017988.332871-.017483.310172-.036605.759866-.016573.37703.004-.068-.009.192-.008.178.007-.146-.03.727v-.016l-.005.139-.001.023-.027554.729243c-.015856.45868-.030028.917922-.04251 1.377717l-.010518.420943-.040725 2.100503c-.001202.087631-.002343.175275-.003422.262932-.009403.760762-.01407 1.523505-.01407 2.287662l.014649 2.332745c.00064.050967.001301.101928.001984.152885l-.000834.00337.001.052.002.123.003.157.002.127.025 1.283.002.107.018514.733527.058556 1.818129c.004266.114748.008638.229471.013117.344167l.018853.494146.029952.691057.025008.536974-.014821-.348485c.013643.293003.027979.585825.043006.878461.004197.0872.00876.174933.013385.26265l.032699.634584.025658.449289.021073.363501-.045-.813.100838 1.652011.115077 1.648135.005014.074634-.001929-.02578.101027 1.285341c.072606.888517.151601 1.775128.236939 2.659748l.007034.082911.021.212.017.166-.009-.084.056756.568921.033244.323079-.012-.12.157381 1.466671c1.032697 9.296121 2.767318 18.361196 5.150694 27.096416 3.302526-4.21472 8.228034-6.889087 13.730126-6.889087 9.941125 0 18 8.730447 18 19.5s-8.058875 19.5-18 19.5c-.444835 0-.885901-.017481-1.322645-.051843l.349378.678869.381959.727092.241107.452882.077.145-.052-.099.202.378.593885 1.097031c.227224.415084.456102.828642.686622 1.240659l.696469 1.231414.065543.115573.015481.027323-.007-.013.191.33.829409 1.422904c5.735293 9.705356 12.39943 18.500889 19.822731 26.187711l.51196.325279c1.555398.988962 3.128782 1.926703 4.718887 2.812599 35.853347-19.941005 60.159289-64.368311 60.672468-114.876815l.008286-1.631678c0-51.180943-24.440927-96.351019-60.679326-116.508683l-.408346.228744c-1.451382.81823-2.888681 1.67977-4.310931 2.584143l-.513957.326175c-7.818588 8.096312-14.794985 17.422567-20.730934 27.746379-.053125.091745-.105564.183208-.157917.274742l-.508577.904345c9.299886.759649 16.627448 9.17487 16.627448 19.444155 0 10.769553-8.058875 19.5-18 19.5-4.93644 0-9.408756-2.152747-12.660661-5.638933-2.781304 9.3501-4.810985 19.104284-6.02198 29.136261l-.00056.001672-.157891 1.353845c-.051156.452394-.100649.905338-.148474 1.358822l-.001635.009333-.01026.095543-.00174.010457.002-.011-.031.3-.014.135v.003l-.004.035-.009.088-.016.164.007-.076-.017933.176559-.004067.042441.005-.043-.009.09-.003.029zm465.101201-110.3c-29.823376 0-54 53.278115-54 119s24.176624 119 54 119l.892989-.015943.341778-.015864c18.835916-21.841891 31.765233-66.912573 31.765233-118.968193 0-52.056303-12.929656-97.127485-31.765787-118.96953-.410292-.020277-.821712-.03047-1.234213-.03047zm-658.437988 52.584762-.403762.542936c-15.196748 20.535138-23.65825 44.60438-23.65825 69.872302 0 25.491353 8.611766 49.76241 24.062884 70.414924-7.227412-21.207431-11.2662535-44.069-11.5471647-67.762325l-.0157193-2.652599c0-24.665006 4.071686-48.436788 11.562012-70.415238zm460.407159 43.677763.029466.185974.110686.891038.047897.393831c1.214633 10.053081 1.84278 20.326852 1.84278 30.766632 0 13.257865-1.013038 26.248034-2.95379 38.858508 16.305772-.891616 29.434961-1.145112 39.38504-.762029 8.052331.310019 16.562766.872344 25.530147 1.686979-1.946162-15.865313-2.961397-32.37117-2.961397-49.283458 0-7.640607.207213-15.19826.61362-22.651608-11.056704.731318-20.722435 1.095775-28.994936 1.095775-8.600002 0-19.482812-.393906-32.649513-1.181642zm-431.969171-7.262525c8.284271 0 15 13.2076 15 29.5s-6.715729 29.5-15 29.5-15-13.2076-15-29.5 6.715729-29.5 15-29.5zm-70.9604992 10.746502c-6.5077307 3.268089-11.7819964 9.123506-13.9822052 16.437984-3.6321338 12.074836 2.3846142 23.898813 13.5927395 27.740522-1.0132894-6.373802-1.5678178-12.855839-1.6415622-19.416902l-.0084729-1.508106c0-7.878316.6932793-15.646349 2.0395008-23.253498z"/></svg>