<?xml version="1.0" encoding="UTF-8"?>
<svg width="960px" height="960px" viewBox="0 0 960 960" version="1.1" xmlns="http://www.w3.org/2000/svg" xmlns:xlink="http://www.w3.org/1999/xlink">
    <title>cloud.shelly/drivers/shelly_wave_outdoor_plug_s_eu /assets/pair</title>
    <style type="text/css">
        #button {
            animation: pair 15s infinite;
        } 
        
        @keyframes pair {
            10%, 30%, 50%, 70% {
                fill: #0074CC;
            }
            0%, 7%, 35%, 45%, 75%, 100% {
                fill: rgba(255,255,255,0);
            }
        }
        .led {
            animation: blink 15s infinite;
        } 
        
        @keyframes blink {
            28%, 65%, 71%, 75%, 79%, 83%, 87%, 91%, 95%  {
                fill: #FFF67A;
            }
            0%, 25%, 67%, 73%,  77%, 81%,  85%, 89%, 93%, 97%, 100%  {
                fill: rgba(255,255,255,0);
            }
        }
    </style>
    <g id="cloud.shelly/drivers/shelly_wave_outdoor_plug_s_eu-" stroke="none" fill="none">
        <path d="M707,74 L707,114 L527,114 L527,84 L433,84 L433,114 L243,114 L243,74 L707,74 Z" class="led" fill="#FFF67A" fill-rule="evenodd"></path>
        <circle class="led" fill="#FFF67A" fill-rule="evenodd" cx="480.5" cy="433.5" r="47.5"></circle>
        <circle id="button" fill="#0074CC" fill-rule="evenodd" cx="480.5" cy="433.5" r="47.5"></circle>
        <path d="M725,1.51634996 C743.225397,1.51634996 758,16.2909532 758,34.51635 L758,60.2046293 C758,78.430026 743.225397,93.2046293 724.999938,93.2046293 L541.256,93.203 L541.257,101.885 L671.191898,101.885287 C695.547655,101.885287 715.384128,121.234644 716.167845,145.400778 L716.179,145.875 L720.396588,145.875312 C740.954838,145.875312 757.662857,162.37081 758,182.849548 L758,481.503741 C758,501.646359 742.157593,518.086384 722.254565,519.054657 L721.773,519.073 L721.603636,519.093082 C711.530527,520.234067 698.158347,521.202451 681.415428,522.010568 L680.985,522.031 L680.985075,553.855195 C680.985181,569.370327 673.043718,583.429315 660.536604,591.572288 L660.081,591.864 L660.081023,723.516469 C660.079874,743.994126 646.258772,761.860082 626.501397,767.040715 L625.90088,767.19381 C619.657319,768.740482 612.626832,770.111727 604.792568,771.317105 L603.971,771.442 L603.970149,920.296375 C603.970149,941.458043 586.986777,958.653031 565.90656,959 L565.266525,959 C543.891103,959 526.5629,941.671797 526.5629,920.296317 L526.563,777.51 L526.102838,777.525271 C511.634096,777.97995 495.95559,778.221286 479.060811,778.250233 L477.308736,778.25247 L475.599147,778.253186 C457.37717,778.253186 440.540132,778.010799 425.082887,777.524881 L424.634,777.51 L424.635394,920.296375 C424.635394,941.458043 407.652023,958.653031 386.571805,959 L385.93177,959 C364.556348,959 347.228145,941.671797 347.228145,920.296468 L347.227,771.441 L347.06745,771.417776 C339.710864,770.30068 333.048766,769.038016 327.059299,767.620195 L326.208234,767.416593 L325.297896,767.19393 C305.220146,762.220743 291.118431,744.200971 291.117271,723.515347 L291.117,588.685 L291.017254,588.604609 C281.001914,580.356882 274.793143,567.965819 274.617884,554.443943 L274.614072,553.855331 L274.614,521.812 L274.265973,521.794519 C259.546461,521.032683 247.619687,520.136768 238.428578,519.09673 L238.231,519.074 L237.745435,519.054657 C218.047593,518.096366 202.327079,501.983685 202,482.125515 L202,183.471322 C202,162.705735 218.837503,145.875312 239.603386,145.875312 L239.419,145.876 L239.431303,145.399888 C240.207022,121.481229 259.64865,102.280673 283.663093,101.891315 L284.40725,101.885287 L418.742,101.885 L418.742,93.203 L235,93.2046293 C216.956857,93.2046293 202.295837,78.7240406 202,60.7503446 L202,34.51635 C202,16.2909532 216.774603,1.51634996 235,1.51634996 L725,1.51634996 Z M367.225573,764.631435 L367.228,920.29535 C367.228145,930.626102 375.602043,939 385.93177,939 C396.261496,939 404.635394,930.626102 404.635394,920.296375 L404.63311,767.435751 C390.854085,766.737919 378.388506,765.804531 367.225573,764.631435 Z M546.564895,767.435778 L546.5629,920.296375 C546.5629,930.626102 554.936798,939 565.266525,939 C575.596251,939 583.970149,930.626102 583.970149,920.296375 L583.973263,764.631385 C572.810314,765.80451 560.344453,766.737928 546.564895,767.435778 Z M311.117287,588.38671 L311.117271,723.515347 C311.117916,735.006737 318.952202,745.017722 330.106507,747.780603 L330.958148,747.988821 C340.692735,750.342326 352.782476,752.291107 367.22737,753.835163 L367.226164,754.577208 C378.308909,755.763147 390.778069,756.710585 404.633644,757.419523 L404.634427,756.674407 C424.78881,757.704532 447.87665,758.230554 473.897947,758.252471 L477.300334,758.252471 C503.321425,758.230554 526.409105,757.704541 546.563378,756.674443 L546.56373,757.41953 C560.420073,756.71054 572.889852,755.763007 583.973062,754.576919 L583.971077,753.8352 C598.840149,752.245827 611.213719,750.227625 621.091787,747.780603 C632.246093,745.017722 640.080379,735.006737 640.081023,723.515347 L640.082503,589.398244 C604.168256,598.522383 550.186028,603 477.799574,603 L477,603 C402.126836,603 346.96309,598.192614 311.117287,588.38671 Z M660,535.011127 L659.980181,535.01112 C658.601833,535.01138 657.228947,535.184315 655.893592,535.525887 C618.097734,545.190415 558.466488,550.022397 477,550.022397 C395.533512,550.022397 335.902266,545.190415 298.106408,535.525887 C296.939804,535.22748 295.770423,535.061772 294.614125,535.018609 L294.614072,553.855331 C294.613998,564.788123 301.711824,574.419462 312.079436,577.693663 L311.970776,578.084453 C346.507087,588.004902 401.605922,592.976724 477.267282,592.999918 L477,593 C550.549939,593 604.698746,588.319882 639.446461,578.959765 C639.435618,578.916582 639.425651,578.873755 639.415576,578.83097 C640.554025,578.531294 641.672103,578.226718 642.769809,577.917243 C651.232767,575.530927 657.639401,568.954083 659.998482,560.817075 C659.999269,560.727183 660,560.637215 660,560.547118 L660,535.011127 Z M294.613711,512.527592 L294.614,525.01435 L294.659763,525.015434 C296.647685,525.065144 298.633088,525.338645 300.583735,525.837602 C337.387776,535.24852 396.300202,540.022397 477,540.022397 C557.699798,540.022397 616.612224,535.24852 653.415469,525.837806 C655.559973,525.289261 657.76475,525.011537 659.978298,525.01112 L660.008652,525.011132 C660.338443,525.011442 660.664497,525.027715 660.986082,525.059218 L660.987998,512.690403 C618.650318,514.2092 559.620027,514.975124 483.774557,515 L480,515 C399.65305,515 337.905138,514.180393 294.613711,512.527592 Z M720.396588,166 L239.603412,166 C230.09979,166 222.355146,173.535819 222.011871,182.961514 L222.002976,183.281152 L222,183.581089 L222,481.360782 C222,491.070549 229.881316,498.94187 239.603412,498.94187 C273.670311,502.940236 352.548545,504.959411 476.238115,504.999394 L480,505 C605.853383,505 685.985579,502.980623 720.396588,498.94187 C730.118684,498.94187 738,491.070549 738,481.360782 L738,183.581089 L737.997024,183.281152 L737.988129,182.961514 C737.644854,173.535819 729.90021,166 720.396588,166 Z M480.5,376 C512.256373,376 538,401.743627 538,433.5 C538,465.256373 512.256373,491 480.5,491 C448.743627,491 423,465.256373 423,433.5 C423,401.743627 448.743627,376 480.5,376 Z M480.5,386 C454.266474,386 433,407.266474 433,433.5 C433,459.733526 454.266474,481 480.5,481 C506.733526,481 528,459.733526 528,433.5 C528,407.266474 506.733526,386 480.5,386 Z M673.602206,121.999982 L281.997053,121.999972 C269.320732,123.212563 259.407249,133.891216 259.407249,146.885287 L259.407,155.99935 L696.191,155.99935 L696.191898,146.885287 C696.191898,133.891254 686.278473,123.212625 673.602206,121.999982 Z M521.256,83.51635 L438.742,83.51635 L438.742,111.99935 L521.257,111.99935 L521.256,83.51635 Z M725.076371,21.5165696 L234.923,21.51635 L234.693144,21.5199004 C227.655192,21.6829216 222,27.4392154 222,34.51635 L222,60.2046293 C222,67.384331 227.820298,73.2046293 235,73.2046293 L438.742,73.204 L438.742,73.51635 L521.256,73.51635 L521.257,73.204 L725,73.2046293 C732.179702,73.2046293 738,67.384331 738,60.2046293 L738,34.51635 C738,27.3621224 732.22093,21.5576689 725.076371,21.5165696 Z" id="Combined-Shape" fill="#000000" fill-rule="nonzero"></path>
    </g>
</svg>