<svg height="960" viewBox="0 0 960 960" width="960" xmlns="http://www.w3.org/2000/svg"><path d="m308 242.084739c1.861477 0 3.722859.026655 5.583571.079956l455.985639 13.061849c105.391454 3.017583 189.297043 89.260192 189.418889 194.694881.0119 6.899407.0119 13.79451.0119 20.691908v11.848946l-.015638 11.842365c-.136777 103.553513-81.190728 188.940315-184.597074 194.464759l-455.9864 24.35612c-20.049681 1.070932-39.874878-.916114-58.959174-5.816704l-.413417-.10708-71.399296-12.636-1.834262-.313124c-62.970805-10.887854-98.9818026-29.988693-134.6222488-72.764304l-1.0909466-1.316869c-20.5406233-24.935566-35.2868849-60.734601-44.78944736-107.367635l-.28326805-1.401017-.00754462-.037284c-.02799448-.138756-.12942148-.642507-.23777822-1.181803l-.08152779-.405989c-.0807489-.402359-.15604384-.778382-.19782896-.989084-.21946481-1.106652-.40781362-2.088551-.59038628-3.088707-1.50638407-8.252155-2.40439423-16.882705-2.76476349-28.925125-.4626149-15.459151.19185332-24.730063 1.96161008-36.80808 6.84526715-46.716733 21.81501749-82.517076 45.55087949-106.956475 43.4067128-44.693297 77.6728076-63.227423 139.0893776-73.593611l.109231-.018126 77.702904-12.672767.783835-.173736c13.124552-2.858699 26.58042-4.36164 40.211976-4.461892zm31.46064 41.359637c-102.724964 0-186 83.275036-186 186v16.710166c0 3.310108.088361 6.619626.264989 9.925018 5.242209 98.101749 85.591532 174.375403 182.320606 176.051588l424.248447-22.66091c89.484118-11.201734 157.826625-87.459627 157.826625-178.983192 0-94.964503-75.540526-172.700848-170.466059-175.42118l-402.866494-11.545161c-1.775583-.050884-3.551803-.076329-5.328114-.076329zm-105.335109 8.9305-39.737432 6.483881c-52.852037 8.920625-79.458807 23.311912-117.0523453 62.019731-17.175285 17.684365-28.9450801 45.831976-34.6677565 84.88739-1.4509381 9.902182-1.94379 16.883709-1.5568974 29.812456.3008727 10.05423.990712 16.684103 2.1324193 22.938515.142405.780112.2937782 1.56925.4765241 2.490747.0395555.199458.1167023.584501.1990958.99487l.0622735.310023c.1078939.536923.2109892 1.048942.2382248 1.183974l.0050927.025088.2503737 1.238889c8.3031629 40.774317 20.646829 70.757391 36.4803359 89.97869 29.8746794 36.266768 57.6457384 50.986124 113.4326594 60.402113l.15666.027082 37.164937 6.580946c-55.69589-34.244978-94.202786-94.373514-97.955573-164.602504-.195621-3.660811-.293483-7.326191-.293483-10.992225v-16.710166c0-75.281157 40.381377-141.130738 100.664891-177.0695zm347.070084 226.880729c17.639894-.152479 31.939854 14.483538 31.939854 32.691976v51.051948l-63.879708 1.801734v-51.813033c0-18.479891 14.29996-33.581822 31.939854-33.732625zm231.371935-104.448671 2.594235.093903c27.913687 1.010392 50.497465 24.099602 50.497465 51.767097v15.350347c0 27.667494-22.583778 50.756704-50.497465 51.767096l-2.594235.093903c-28.340435 1.025839-51.22093-22.145875-51.22093-51.372701v-16.326944c0-29.226826 22.880495-52.39854 51.22093-51.372701zm-31.22093 51.372701v16.326944c0 18.113063 13.706077 31.993588 30.497464 31.385791l2.594235-.093904c17.218136-.623244 31.220931-14.939426 31.220931-31.780185v-15.350347c0-16.84076-14.002795-31.156941-31.220931-31.780186l-2.594235-.093904c-16.791387-.607797-30.497464 13.272728-30.497464 31.385791zm-158.379072-106.134477 27.418285.941352v115.522222l-27.418285-.042821zm-114.662779-3.243895 30.031154.827462v118.724387l-30.031154-.038218z"/></svg>