<?xml version="1.0" encoding="UTF-8"?>
<svg width="960px" height="960px" viewBox="0 0 960 960" version="1.1" xmlns="http://www.w3.org/2000/svg" xmlns:xlink="http://www.w3.org/1999/xlink">
    <title>cloud.shelly/drivers/shelly_wave_plug_us/assets/pair</title>
    <style type="text/css">
        #led {
            animation: flash 12s infinite;
        }
        #button {
            animation: press 12s infinite;
        }

        @keyframes press {
            0%,  40%, 60%, 85%, 100% {
                fill: rgba(0,0,0,0);
            }
            5%, 35%, 65%, 80% {
                fill: #0074CC;
            }
        }

        @keyframes flash {
            0%,30%, 75%,77%,79%,81%,83%,85%,87%,89%,91%,93%,95%,97%,99% {
                fill: rgba(0,0,0,0);
            }
            33%,74%, 76%,78%,80%,82%,84%,86%,88%,90%,92%,94%,96%,98% {
                fill: #0074CC;
            }
        }
    </style>
    <g id="cloud.shelly/drivers/shelly_wave_plug_us" stroke="none" stroke-width="1" fill="none" fill-rule="evenodd">
        <path d="M308,252.084739 C309.766017,252.084739 311.531943,252.110027 313.297235,252.160594 L769.283005,265.222448 C869.26977,268.085283 948.872509,349.905194 948.988106,449.932925 C948.999999,456.828499 948.999999,463.71977 948.999999,470.610034 L948.999999,482.45238 L948.98437,494.291436 C948.854607,592.534512 871.957269,673.542504 773.853906,678.783638 L317.867508,703.139757 C298.846258,704.155757 280.048346,702.273091 261.954702,697.629685 L261.15611,697.421739 L189.395174,684.722837 C127.458929,674.268935 93.2295455,656.350244 58.8421367,615.071404 L57.8000169,613.813364 C38.4361727,590.306365 24.2905599,555.96132 15.0878474,510.792965 L14.8132666,509.434804 L14.795224,509.345437 C14.7157342,508.951035 14.3964043,507.364175 14.2931215,506.843372 C14.0828364,505.783008 13.9037315,504.849299 13.7312008,503.904155 C12.3159859,496.151435 11.4700184,488.021054 11.1245233,476.475682 C10.680839,461.649132 11.2949031,452.950566 12.9849552,441.416508 C19.5495747,396.615105 33.7193362,362.727945 55.815054,339.977305 C97.7684732,296.780376 130.119737,279.281961 189.449789,269.268101 L267.442,256.547739 L268.501346,256.312836 C280.922024,253.6108 293.657835,252.188351 306.565155,252.090194 L308,252.084739 Z M308,272.084739 C305.419396,272.084739 302.846794,272.143906 300.283557,272.26178 C208.027979,290.486848 138.46064,371.84145 138.46064,469.444376 L138.46064,486.154542 C138.46064,489.731594 138.556127,493.308009 138.746999,496.879965 C143.74272,590.368992 211.858261,665.513747 299.569907,683.206067 C305.278152,683.486165 311.026651,683.476644 316.800748,683.168227 L772.787039,658.812114 C784.119033,658.206706 795.133784,656.467822 805.723642,653.708873 C865.669666,631.478545 911.450071,580.796571 927.19279,518.412275 C928.363508,510.527508 928.973557,502.465169 928.984383,494.268328 L929,482.439181 L929,470.606734 C929,463.727438 929,456.843834 928.988119,449.955981 C928.975794,439.291011 927.950343,428.858114 926.00182,418.749852 C908.962598,358.238479 862.757957,309.820576 803.302324,289.866938 C792.178343,287.148509 780.606154,285.55485 768.710466,285.214251 L312.724562,272.152394 C311.150112,272.107293 309.575096,272.084739 308,272.084739 Z M245.739118,280.349168 L192.723791,288.998226 C137.730621,298.280242 109.209019,313.707238 70.1621871,353.911427 C51.3467578,373.28455 38.776974,403.345344 32.7736499,444.316088 C31.2430071,454.762229 30.7097511,462.316102 31.1155743,475.87745 C31.4313211,486.428728 32.1732032,493.55877 33.4060796,500.312617 C33.5585266,501.14774 33.7191437,501.985068 33.9110693,502.952854 C33.977272,503.286681 34.1427809,504.110688 34.2676526,504.73153 L34.3218907,505.001121 C34.3740882,505.260501 34.412044,505.448902 34.4204133,505.490298 C43.0212779,548.374085 56.0548583,580.238758 73.2369653,601.097208 C104.733702,639.333095 134.678555,655.204616 192.802121,665.015315 L243.147392,673.929084 C178.600562,640.74516 132.913332,575.114965 128.761246,497.413568 C128.560877,493.663903 128.46064,489.909557 128.46064,486.154542 L128.46064,469.444376 C128.46064,386.575885 176.232504,314.865111 245.739118,280.349168 Z M581.195615,519.255605 C598.835509,519.103126 613.135469,533.739143 613.135469,551.947581 L613.135469,602.999529 L549.255761,604.801263 L549.255761,552.98823 C549.255761,534.508339 563.555721,519.406408 581.195615,519.255605 Z M622.967548,360.045158 L650.385833,360.98651 L650.385833,476.508732 L622.967548,476.465911 L622.967548,360.045158 Z M508.304769,356.801263 L538.335923,357.628725 L538.335923,476.353112 L508.304769,476.314894 L508.304769,356.801263 Z" id="Combined-Shape" fill="#000000" fill-rule="nonzero"></path>
        <ellipse id="button" fill="#0074CC" cx="814" cy="473.5" rx="42" ry="48.5"></ellipse>
        <path d="M814,420 C840.13005,420 861,444.099823 861,473.5 C861,502.900177 840.13005,527 814,527 C787.86995,527 767,502.900177 767,473.5 C767,444.099823 787.86995,420 814,420 Z M814,430 C793.738131,430 777,449.328556 777,473.5 C777,497.671444 793.738131,517 814,517 C834.261869,517 851,497.671444 851,473.5 C851,449.328556 834.261869,430 814,430 Z" id="Oval" fill="#000000" fill-rule="nonzero"></path>
        <ellipse id="Oval" fill="#000000" cx="245" cy="476.5" rx="10.8247423" ry="12.5"></ellipse>
        <ellipse id="led" fill="#0074CC" cx="245" cy="476.5" rx="10.8247423" ry="12.5"></ellipse>
    </g>
</svg>