<svg height="960" viewBox="0 0 960 960" width="960" xmlns="http://www.w3.org/2000/svg">
  <path d="m959.999715 235.022384v21.924l-135.714678 60.937053c2.254095 3.34108 3.9869 7.002783 5.141395 10.857364l130.573283-61.108417v22.082l-131.546985 61.563527c-.173002.365543-.354002.7271-.542843 1.084403-.106547.201909-.215788.402518-.327469.601651l-.03734.066089-.037379.065967c-.138059.24331-.279833.484195-.425198.722772-.105213.172679-.212308.344149-.321262.51438-.042298.065921-.084732.131612-.127447.197122-.037445.057554-.075133.114873-.113033.172045-.020681.031101-.0413.062076-.061984.093009-.064325.096262-.129236.192003-.194746.287324-.175168.254914-.354141.506205-.537368.754498-.032888.044362-.065849.088733-.098943.133004-1.792045 2.398237-3.98333 4.512341-6.509874 6.234852l-.057361.038269c-.115442.079012-.232051.156785-.349355.233725-.018512.011495-.036563.023308-.054629.0351-.270303.17702-.544889.349354-.823093.517127l-.140018.083462c-.239715.143039-.482336.282435-.727567.418372-.04356.023893-.086562.047586-.129641.071171-.109574.060209-.22018.119768-.331302.178624-.036318.019057-.072672.038214-.109079.057293-.274501.143989-.552157.283554-.832873.41874l-20.286211 9.768474-28.016 13.492 37.007692 18.117927c21.532097 10.540708 35.514063 32.077888 36.378634 56.035981l2.20637 61.140614c.71661 19.857938-7.94519 38.483775-22.717612 50.748847l-.423621.346862-.115722.353108c-5.419631 16.188541-17.308344 29.819428-33.36635 37.221806l-.700794.317906-.322226.142125-.373707.16287-.323267.139199-366.338201 155.837651c-41.142241 17.501615-88.562104 11.096339-123.586558-16.693553l-170.358823-135.169936c-13.88517-11.017084-22.291667-27.528901-23.031685-45.236201l-.017667-.435975-.131561-.144246c-9.1471003-10.237408-14.6395615-23.345517-15.4163463-37.235172l-.0312071-.613279-.0164052-.401984-.0151274-.422859-.0123584-.402021-1.5544495-60.462845c-.8335857-32.423675 20.1149679-61.40211 51.1649009-70.777142l376.009846-113.530177c19.816765-5.983356 41.163255-4.25039 59.755391 4.851105l103.754854 50.790389 52.371359-21.253506.989164-.420574c1.211822-.508717 2.432404-.995566 3.661148-1.460341l1.231274-.457385c2.879606-1.050086 5.802564-1.979617 8.761276-2.785975l1.164173-.310441 46.208463-12.051382.456143-.115396.247357-.0594c.114983-.027111.229666-.05352.344412-.079263.071995-.016181.144348-.032139.216732-.047835.113741-.024655.227718-.048712.341748-.072116.043844-.008985.087188-.017781.130542-.026484.142881-.028712.286189-.056445.429568-.083153.052692-.009755.105362-.019421.158045-.028949.075443-.013723.151149-.027135.226873-.040261.133248-.022994.266299-.045157.399421-.066446.323718-.051925.647677-.098531.971787-.139979.032262-.003916.064581-.007995.096904-.012024.16127-.020325.32254-.039156.483831-.056715l.041962-.004288c.139327-.015228.278641-.029254.41796-.042334.078195-.007061.156246-.014088.234304-.020818.083668-.007507.167661-.014412.251653-.020973.102266-.007685.203981-.015123.305703-.022061.084395-.00607.169534-.01153.254666-.016639.077143-.004311.154103-.008642.231065-.012686.343867-.018393.687275-.030738 1.03041-.037409l.229775-.0033c.069275-.001155.138264-.001758.20724-.002132l.274829-.000278c.141024.000479.281985.001914.422875.004304.051898.001168.104246.002185.156586.003333.160062.003236.319608.007972.479043.013929.009644.00062.01898.000973.028315.001329.354464.013304.708734.032927 1.062302.058555.074519.005583.149538.011286.22453.017261.123815.009702.247368.020297.370825.031625l.082118.00778c.141474.013221.282876.027548.42414.042835.063233.006939.126606.013988.189956.021231.110575.012566.220957.025793.331247.039607l.190226.024464c.141574.018572.283243.038191.424745.058778.030714.004475.061657.009022.092593.013615.343672.051054.686036.107767 1.027257.170143.068875.012514.137931.025373.206946.038466.114228.021763.22823.044058.342095.066985l.184066.037525c.12558.026188.250917.053016.376075.080613.040503.008797.081469.017914.122418.027114.104917.023712.209249.047722.313452.072266.296293.069634.591728.143788.88613.222282.129696.034736.259233.070169.388539.106436l.07623.021331c.133288.037901.266403.076558.39926.116101.089478.026492.178833.053526.268079.080966.063546.019668.126863.039354.19012.059242.057674.018011.11554.036392.173359.054944l.013045.004703zm-182.74029 334.279463-374.65873 158.335997c-26.9678 11.396945-58.007184 7.152339-80.925064-11.066426l-179.898511-143.010122c1.117369 4.437064 3.665985 8.43008 7.31172 11.322762l170.358824 135.169936c23.541026 18.678451 55.413393 22.983637 83.066374 11.220256l366.338202-155.837651.373707-.16287c3.148271-1.405203 5.869107-3.46349 8.033478-5.971882zm-652.281808-103.926005.000678.028486c.001773.143792.00451.287744.008215.431849l1.554449 60.462854c.15968 6.211045 3.061511 12.032558 7.925062 15.89888l199.655325 158.717704c17.188409 13.664073 40.467948 16.847528 60.693798 8.299819l395.032174-166.945761c6.114721-2.584161 10.677435-7.608174 12.773617-13.637177.222206-1.430012.312029-2.894617.258496-4.378056l-2.041611-56.599063c-1.885428 1.317305-3.953298 2.437188-6.18599 3.319026l-389.958576 154.020542c-27.174648 10.733074-57.957211 6.757001-81.512774-10.528711l-188.794903-138.542833c-3.86809-2.83851-7.062177-6.44096-9.40796-10.547559zm397.758696-140.526345-376.009846 113.530177c-.970212.29294-1.918233.628945-2.842259 1.00552-2.854171 3.324366-4.108212 7.935418-2.968239 12.511254.790365 3.172512 2.666155 5.968353 5.302059 7.902651l188.794903 138.542833c18.013077 13.218486 41.552684 16.259012 62.333298 8.051368l389.958575-154.020542c2.89906-1.145032 4.96445-3.494088 5.849036-6.246814-1.872984-1.828555-4.048361-3.377688-6.472561-4.564419l-233.338547-114.227315c-9.522801-4.661742-20.456369-5.549358-30.606419-2.484713zm63.26589 62.38242c9.03455 0 17.623848 1.512716 24.315784 4.299144 8.711356 3.627286 14.635767 9.459555 14.635767 17.755875 0 8.296319-5.924411 14.128588-14.635767 17.755874-6.691936 2.786428-15.281234 4.299144-24.315784 4.299144-9.034551 0-17.623849-1.512716-24.315784-4.299144-8.711357-3.627286-14.635768-9.459555-14.635768-17.755874 0-8.29632 5.924411-14.128589 14.635768-17.755875 6.691935-2.786428 15.281233-4.299144 24.315784-4.299144zm0 20c-5.477954 0-10.581793.743264-14.502775 1.989468l-.201777.065532.201777.065569c3.770175 1.198274 8.633968 1.93155 13.872409 1.986184l.630366.003284c5.477953 0 10.581792-.743263 14.502774-1.989468l.200674-.065569-.200674-.065532c-3.770175-1.198273-8.633968-1.93155-13.872409-1.986183zm213.410202-84.510191-.014086-.003001c-.382722-.085606-.770123-.151207-1.160589-.196369-.066339-.007759-.132396-.014798-.198518-.02125l.028503.002278-.055-.005-.051-.005-.071985-.005855-.029015-.002145-.013-.001-.132-.01.024335.001567c-.114346-.008075-.228848-.014399-.343467-.018966l.100557.004494-.107425-.005095h-.002l-.03584-.001067c-.04845-.00174-.096929-.003167-.145432-.004279l.178272.005346-.25876-.006911c-.090268-.001415-.180588-.001741-.270941-.000974l-.17282.002787-.166958.00525-.040521.001848-.12947.006023-.16853.009977-.012.001h.002l.01-.001.155-.01-.145497.009773-.019503.001227h-.003l-.066.005-.022.002-.059.005h-.003-.001l-.024667.002054-.026333.002946-.036.003-.082809.00753-.026969.002692-.046222.004778-.1.011-.017856.002135c-.054686.006378-.109363.013164-.164027.020359l.164883-.020494-.179.022-.151831.021598-.003169.000402h-.005l-.026396.004724.017396-.003724.009-.001h.001l-.01.001-.148673.024221.131277-.020497-.175829.027798-.120775.020478-.015325.003035-.015675.002965-.023819.004149.013819-.002149-.095.017-.065.012-.135.028.086-.018-.113113.023966-.126887.027034.111456-.023804-.207456.045804-.217.053-.068602.018049-46.208572 12.051367c-4.451926 1.161078-8.808267 2.661824-13.030711 4.489039-.069983.030285-.140311.059768-.210968.088443l-35.877147 14.560102 44.745 21.904 13.335359-5.569506.500597-.248937.847825-.412776 48.664779-23.435644.06644-.034137.187447-.094279.120302-.065137.118842-.067202.113409-.067382.147512-.090345.046488-.031655.0323-.019214c.037364-.024349.074479-.049016.111342-.073996l.121048-.083794.09931-.072996-.098.072.099256-.071074c.034155-.02501.068065-.050292.10173-.075841l-.083118.061864.108132-.081949.089179-.06835c.037743-.029823.075162-.059987.112254-.090488l-.093923.075637c.066117-.052586.131266-.106247.195425-.160953l-.096935.081154.1055-.088151.0975-.085849.010595-.008438.092405-.084562.092203-.08533.006797-.00767.099442-.09552c.058849-.058495.119156-.120303.178341-.183116l-.074304.077946c.055273-.057001.109583-.114842.162913-.173495l-.082392.087185.101-.109.071791-.079451c.029812-.034017.059301-.068294.088465-.102825l.018744-.023724.074435-.08887.001565-.00313.076541-.094767c.025759-.03285.051239-.065916.07644-.099195l-.05995.078074.074969-.099112.0712-.095158c.249044-.343282.466002-.702577.651481-1.078082l.076222-.158719.072581-.161124c.037185-.085268.072808-.171329.106839-.258145l-.046703.115911c.069031-.167691.132-.338108.188714-.510926l.017666-.057757.019199-.057484.001801-.007516.035366-.116094c.227762-.785406.328033-1.607993.285863-2.446432-.24862-4.943203-2.334134-9.615422-5.847905-13.101177l-.37835-.375334c-.945142-.937607-2.032899-1.684305-3.20618-2.224717l-.060478-.027669-.038316-.017577-.065894-.029008-.105106-.045992.1.044-.15-.065.05.021-.059-.025-.14-.058-.137332-.054724-.123668-.047276.119614.04577-.143074-.054788-.07854-.028982-.002-.001-.039-.014-.082997-.029896-.093003-.032104-.031-.011-.102-.034-.083-.027-.002-.001-.035-.011-.116263-.035955-.130737-.039045.133.039-.130223-.038345-.055985-.016061-.098792-.027594-.058-.016-.115425-.030936-.163575-.041064.127477.031911-.15868-.039587.026203.006676-.036-.009-.129-.03.091.021z"/>
</svg>
