<?xml version="1.0" encoding="UTF-8"?>
<svg width="960" height="960" version="1.1" viewBox="0 0 960 960" xmlns="http://www.w3.org/2000/svg">
 <path d="m696.56 170.73c9.1786 0.38774 18.357 1.2725 27.51 2.658l1.6584 0.25658c153.88 24.32 254.69 181.87 227.98 350.1-24.253 152.8-146.57 266.59-286.75 265.76l-0.3022 1.4e-4c-0.68688 7e-3 -1.3776 7e-3 -2.0719-0.0145l-0.47982-0.0203-0.74779-0.0119c-11.042-0.22087-22.086-1.16-33.09-2.8222l-1.7371-0.26848c-2.0262-0.32023-4.0464-0.6643-6.0604-1.0321l-237.66-24.038c-8.0342-1.5577-11.185-2.4738-19.067-4.919-33.435-8.2799-60.737-22.541-88.278-42.464l-0.69191-0.50274-0.82986-0.0344c-6.8101-0.31081-13.619-0.98753-20.408-2.0324l-1.4544-0.22955c-95.078-15.378-163-98.415-174.38-198.14l-38.205-1.9532c-2.9623-0.15134-5.5281-1.5659-7.2426-3.6707l-0.08147-0.10258-0.46471-0.20109c-19.42-8.6437-29.423-32.592-23.801-56.537l0.19319-0.79815c6.656-26.696 30.632-44.41 54.364-38.493 1.0784 0.26887 2.141 0.58378 3.1861 0.94378l0.70271 0.25231 18.765 1.4506c26.745-100.18 108.83-172.75 203.21-176.02l1.474-0.0386 0.88059-0.61115c47.694-32.901 103.73-50.796 161.17-50.496l0.1014 2e-3 127.28-9.3997 1.507-0.11219 88.948-6.5677c1.8818-0.13896 3.7405-0.14591 5.5674-0.029l0.61401 0.0454 1.3216-0.0391c5.4527-0.1416 10.911-0.10824 16.369 0.10085zm-15.114 52.778c-107.61 11.816-198.35 103.07-217.7 222.47-23.036 142.18 62.522 273.17 190.53 292.99 30.394 4.7059 60.495 2.7292 89.039-4.9247-22.688 4.1956-46.219 4.6762-69.972 0.91799-125.05-19.786-207.9-149.41-185.76-289.07 18.555-117.03 105.93-206.78 210.27-218.76 7.9036-0.79047 20.888-2.4823 30.974-2.7335 10.086-0.25119 6.4688-0.46005 24.517-1.5896-22.378-3.2761-71.276 0.62875-71.901 0.69738zm23.121 23.04c-97.047 8.8261-179.77 92.366-197.23 202.48-20.49 129.24 55.551 248.21 169.13 266.18 78.432 12.41 154.74-26.511 201.2-94.344 17.806-30.626 30.526-65.534 36.535-103.39 9.1709-57.779 1.3464-113.85-19.447-161.91-17.476-33.173-42.495-61.201-73.461-80.763-8.8786-5.6089-25.447-17.211-53.759-23.597l-1.5096-0.33843-1.5069-0.33368c-1.2042-0.26502-2.4049-0.52537-3.6003-0.7808l-1.4318-0.30412c-22.15-4.6768-49.188-3.4162-54.924-2.8946zm42.831 22.813c104.75 16.59 174.07 125.16 155.56 242.05-18.514 116.89-118 198.73-222.74 182.14-62.176-9.8478-111.87-52.105-138.12-109.27-0.0622-0.13242-0.12595-0.26522-0.18776-0.4005-10.515-23.015-17.104-48.149-19.362-74.22-0.0106-0.12193-0.0189-0.24339-0.0251-0.36434-1.5012-17.596-1.0392-35.748 1.5877-54.128l0.0114-0.0802c0.17139-1.1962 0.35178-2.3923 0.54117-3.5881 0.3589-2.266 0.74876-4.5223 1.1693-6.7685 0.0195-0.1039 0.039-0.20781 0.0586-0.31168 0.2058-1.0916 0.41889-2.1807 0.6392-3.2673 0.013-0.0632 0.0259-0.12695 0.0389-0.19064 0.21397-1.0517 0.43477-2.1007 0.66231-3.1473 0.021-0.0956 0.042-0.19153 0.0629-0.28745 0.47536-2.175 0.97995-4.3392 1.5134-6.4925 0.0276-0.10911 0.0547-0.21808 0.0819-0.32701 3.2691-13.121 7.6096-25.835 12.963-38.023 0.0466-0.10604 0.0943-0.21059 0.14328-0.31365 37.025-83.943 119.44-136.62 205.41-123.01zm-491.13 401.52-1.5967-1.694c-37.838-40.339-62.079-92.905-68.631-149.93l-66.013-6.0219c10.784 79.191 63.761 143.84 136.24 157.65zm416.71-376.15-2.116 0.69123c-46.907 15.754-87.237 53.215-109.86 103.41l5e-3 50.792c1.4585-0.0666 2.938 0.0122 4.4249 0.2477 13.328 2.111 22.203 16.01 19.822 31.044-2.3812 15.034-15.116 25.51-28.445 23.399-6.2276-0.98635-11.483-4.5462-15.072-9.5929 0.0489 2.1399 0.13354 4.2711 0.24923 6.3938l11.776 3.3722c4.2898 1.2292 7.2456 5.1516 7.2456 9.6138l-8e-3 63.423c15.507 32.968 39.612 60.194 69.621 77.548 0.26414-0.0461 0.52924-0.0774 0.79763-0.0983 55.294-4.304 105.93-37.184 135.69-87.35-0.22314-0.82783-0.3408-1.6958-0.3408-2.588v-71.636c0-5.5228 4.4772-10 10-10l16.964 4.3e-4c0.73626-9.0259 0.84947-18.028 0.34866-26.955l-17.705-0.69662c-5.3658-0.21108-9.6069-4.6224-9.6069-9.9923v-68.386c0-2.1802 0.69887-4.2016 1.8877-5.8482-21.684-36.962-55.302-64.369-95.149-76.611-0.17759-0.0546-0.35257-0.11362-0.52484-0.17701zm123.74 208.67h-9.955l7.2e-4 52.844c0.10308 0.0815 0.20423 0.16489 0.30342 0.24995l51.158 7.8145 0.621-55.542zm-678.5-10.406 66.255 6.0462c-0.48809-12.044-0.1918-24.241 0.92558-36.521l-65.812-6.0071c-1.4551 12.332-1.8873 24.531-1.3684 36.482zm607.41-45.871c12.186 1.9301 20.3 14.638 18.123 28.383s-13.821 23.324-26.006 21.394c-12.186-1.93-20.3-14.638-18.123-28.383 2.1771-13.745 13.821-23.324 26.006-21.394zm-661.17-14.99-0.22531 0.20435c-6.0038 5.573-10.775 13.544-13.125 22.966-3.4949 14.017-0.74764 27.716 6.2445 36.502l20.836 1.0645c-0.61081-16.673 0.35002-33.703 3.0119-50.866 0.43833-2.8262 0.91971-5.6352 1.4433-8.4261l-17.316-1.3384c-0.29185-0.0226-0.58218-0.058-0.87019-0.10593zm80.279 5.3894-1.9138 1.0265 45.091 4.1159c0.057-0.34995 0.1146-0.69994 0.17292-1.05zm697.08-52.32-55.05 1.8403v49.1l15.502 0.60911 0.0582-6e-3c0.98459-0.10009 1.9503-0.0538 2.8755 0.12134l36.01 1.4163zm-565.81-105.99-2.4844 0.37086c-68.376 10.769-127.61 67.603-148.01 145.56l12.441-6.6707c1.7353-0.93103 3.7068-1.329 5.6674-1.144l48.478 4.5747c13.382-55.784 43.056-105.34 83.912-142.7zm580.47 87.387c-25.125-40.834-64.666-69.947-112.19-77.474-11.193-1.7728-22.334-2.2699-33.305-1.5881l-5e-4 -2e-4 -2.3012 0.16301c33.663 17.247 61.61 44.834 80.378 79.259l60.507-2.0209c1.422-0.0475 2.0883 0.28314 5.5978 3.2349s7.4664 11.879 7.4664 11.879c5.1268 11.63 8.032 20.006 11.502 30.164 4.3089 12.615 7.1368 25.378 8.4771 38.278 0.62929 6.0567-4.2549 11.265-10.34 11.026l-25.523-1.0033-32.594-1.2822c0.4402 9.3351 0.27203 18.738-0.51234 28.158l58.828 7.4939c5.4649 0.69615 9.3374 5.6811 8.6606 11.148-1.981 16.003-4.55 29.378-7.7424 40.175-3.0758 10.403-8.1847 21.846-15.308 34.384l-1e-3 0.0254s-2.7841 4.9218-5.9782 6.1403c-3.1941 1.2185-11.748 0.10108-11.748 0.10108l-55.218-8.4363c-27.053 46.41-70.288 79.806-119.53 92.909l-1.0203 0.26812c6.0988 1.7743 12.358 3.1807 18.763 4.1951 68.669 10.876 135.41-26.261 172.58-89.097l1.4225-2.4357c12.577-21.93 21.579-46.896 25.867-73.975 7.6204-48.113-0.96977-94.481-21.283-132.22l7.9e-4 2e-3zm-242.46-146.31c6.011-2.4566 12.117-4.6785 18.308-6.656v2.5e-4l-177.05 13.078c-37.364-0.45526-73.612 8.1124-106.43 23.954-0.8631 2.1329-2.4637 3.9793-4.6674 5.1202-70.906 36.709-122.12 106.12-136.13 187.9-15.318 89.372 16.85 176.15 80.184 229.86 0.7477-0.0205 1.132 1.2147 1.875 1.1859 27.858 22.714 60.724 39.036 98.009 46.558l0.74227 0.22081 205.28 20.77c-106.54-46.142-171.28-168.76-150.1-299.49 16.574-102.29 82.274-185.59 167.58-221.49"/>
 <path d="m272.89 414.13c27.016 2.3636 44.038 35.18 40.817 71.996-3.221 36.817-25.684 66.178-52.699 63.815s-44.038-35.18-40.817-71.996c3.221-36.817 25.684-66.178 52.699-63.815zm-32.775 65.558c-2.3785 27.186 9.0081 49.137 22.636 50.329 13.628 1.1923 28.654-18.448 31.032-45.634s-9.0081-49.137-22.636-50.329c-13.628-1.1923-28.654 18.448-31.032 45.634z"/>
</svg>
