<svg height="960" viewBox="0 0 960 960" width="960" xmlns="http://www.w3.org/2000/svg"><path d="m154.779414 154.027762.921586.034238.203369-.001342c.337949.000029.676.002016 1.014146.005969l1.014715.017768 463 10.805081c14.268865.332994 27.800483 4.071267 39.701042 10.452795l.988728.539729.258309-.078307c3.670709-1.082052 7.540139-1.812468 11.573548-2.164366l.713474-.058165c.24514-.018587.490447-.034913.735889-.048978l93.82078-5.375184.422522-.029536c1.670721-.103176 3.341595-.143729 5.009967-.121608l.267511.006144 1.233511-.017888c.445238-.002864.890667-.002434 1.336268.001315l1.337296.021221 95 2.217025c46.576023 1.08695 85.06677 38.026436 85.06677 84.135212v452.26223c0 46.108776-38.490747 83.048262-85.06677 84.135212l-.184359.003877-118.398845 2.217025-.880574.014678c-.708063.008114-1.412372.007688-2.113121-.001442l-.613176-.012465-.449995.008209c-1.661031.016892-3.314233-.023429-4.959509-.124866l-.986213-.068227c-.491878-.037754-.983015-.084605-1.47316-.140528l-46.694123-5.327588-.256266-.021462c-9.099174-.85021-17.607301-3.411513-25.337729-7.346508l-.663005-.34503-.318376.230973c-13.538758 9.616058-29.976444 15.523824-47.670883 16.213936l-1.399511.043615-463 10.805081c-.682171.01592-1.36392.023804-2.04513.023663l-.2001-.001268-.896083.033731c-2.053333.06057-4.109274.028371-6.158476-.108899l-1.023995-.074544-70.5955288-5.662316c-21.6709429-1.727542-40.5342676-13.61014-53.3940762-31.364509-11.3691936-15.696413-17.619841-35.420269-17.619841-55.716589v-467.089748c0-20.29632 6.2506474-40.020176 17.619841-55.716589 12.8598086-17.754369 31.7231333-29.636967 53.3746314-31.362955l70.5955306-5.662306c2.397696-.193491 4.796875-.255317 7.189411-.185514zm-49.071378 43.6719-25.5155226 2.047872c-18.8840037 1.505376-34.1925134 22.63935-34.1925134 47.207592v467.089748c0 24.568242 15.3085097 45.702216 34.1925134 47.207592l25.5137896 2.045662c-9.194248-11.190559-14.706303-25.552174-14.706303-41.298128v-483c0-15.746944 5.5127478-30.109374 14.708036-41.300338zm670.770925 10.293208-.219134-.000617c-.228327-.000098-.456235.001367-.683707.004366l.683796-.004284c-.335705-.000072-.670517.003299-1.004402.010078l.320606-.005794c-.22852.003013-.4566.007575-.684223.013656l.363617-.007862c-24.41007.495654-43.856669 19.210307-43.856669 42.70068v459.593814c0 4.109575-.081034 8.072981-.090949 11.818237v1.31268c.042315 17.000388 1.976208 29.198226 20.666293 29.571054.150867.003008.302403.005241.455034.006705l-.455034-.006705c.439498.008767.88826.010995 1.346482.006593l-.169278.001328c.279312-.001695.562167-.005874.848607-.012559l118.398845-2.217025c25.405099-.592882 46-20.357764 46-44.1461v-452.26223c0-23.788336-20.594901-43.553218-46-44.1461l-95-2.217025zm-50.262292 2.664387-49.024156 2.80942c-.91599.069452-1.768514.18283-2.561573.338377 7.169905 10.326045 11.36906 22.736666 11.36906 36.074705v461.240482c0 9.421483-2.095157 18.380234-5.852052 26.469034 5.700787 5.704959 12.77749 9.362806 20.443411 9.944048l14.27565 1.62983c-1.883969-4.955378-2.846968-10.271131-3.274409-16.438045-.200326-2.890205-.279899-5.338631-.285635-9.022483v-.75374c0-1.79948.019229-3.892359.04724-6.449091.025126-2.293454.037944-3.694107.042573-5.003068l.00136-.488127.000707-460.305506c0-15.340878 5.569726-29.248154 14.817824-40.045836zm-181.270457 27.561879.330536.006178 60 1.661126c9.756807.270122 17.723252 8.184156 17.723252 17.943539v56.978405c0 9.844719-8.09753 17.714415-17.938695 17.774722l-60.000373.368179c-9.964767.060377-18.060932-7.986282-18.060932-17.951285v-59c0-9.939975 8.050376-17.876703 17.946212-17.780864zm2.053788 20.061221v54.657l56-.342v-52.765zm-355.936709-25.280357c16.631461 0 30.113924 13.655315 30.113924 30.5s-13.482463 30.5-30.113924 30.5-30.113924-13.655315-30.113924-30.5 13.482463-30.5 30.113924-30.5zm471.684924.549585-.091215-.217585-.029-.068-.005-.013-.041-.096-.045-.105.035.08-.092958-.217343-.069042-.157657-.034-.078-.002-.004-.039223-.090561-.017777-.039439-.012-.027-.017552-.040303-.016448-.035697.015.035-.17-.378h.001l-.008-.016-.377292-.805149c-.261622-.543253-.534283-1.08087-.817702-1.612578-.020236-.037964-.040323-.075516-.060463-.113039l-.320811-.587042c-.322758-.580194-.658435-1.153065-1.006659-1.718248l-.103395-.166997-.068666-.110011-.035569-.05671-.026443-.041226-.003-.005-.015-.023-.039-.062-.08671-.137499-.16529-.257501.036.057-.036237-.056954-.094763-.145046-.021-.032-.013-.02-.061413-.094092-.009493-.014404-.176094-.264504-.116-.173-.02-.029-.015-.023-.008-.011-.024838-.037048-.018162-.026952-.167502-.243979-.01244-.018005-.131058-.187016-.044-.064-.009-.012h.001l-.02452-.034696-.07648-.108304.043.062-.164-.232-.077-.107-.078418-.109488-.066582-.091512-.024-.033-.077-.105-.031279-.043278-.003721-.004722-.048-.065-.028-.038-.024-.032-.095842-.129835-.124158-.165165-.023-.03-.054409-.072962-.081591-.106038.009.011-.007754-.010707-.116246-.151293.1.131-.207397-.270744c-.27743-.358055-.560261-.71213-.848378-1.062108-.281316-.341706-.567191-.678958-.857978-1.012212-.491694-.563505-.997588-1.115739-1.517009-1.656015l-.173238-.178921-.025044-.026067c-.066311-.068136-.132838-.136079-.199581-.203827l-.126079-.12749-.078296-.078616.031.032-.08703-.088144-.044874-.044776-.209675-.207623-.008011-.007881-.15741-.153576-.086-.084-.007714-.007572-.093286-.089428-.116-.112-.043754-.041921-.242246-.229079-.05-.047-.059-.055-.116607-.109435-.016922-.015709-.039471-.036856-.002-.002-.203703-.18702-.222297-.20198-.001-.001-.09-.081-.171-.153-.062-.055-.154289-.136173-.196711-.171827-.003-.002-.049299-.043463-.160687-.1386-.107014-.091937.212.183-.3-.257.058.049-.075-.064-.163342-.137983.111037.093642c-.51926-.439281-1.048621-.86791-1.587695-1.285505-.109149-.084551-.218467-.168477-.32818-.251949-.669861-.50966-1.35485-1.002728-2.053791-1.478149-.044381-.030188-.08899-.060422-.133656-.090583l-.140373-.094473-.029-.019-.154169-.103092-.199831-.131908.107917.071078-.294917-.193078-.153-.099-.005-.003-.058033-.037572-.138967-.088428-.23-.146-.202528-.1268-.036472-.0222-.050771-.031956-.263229-.162044-.002-.001-.021-.013-.223-.135-.023-.014h-.001l-.037-.023-.240823-.143171.077823.046171-.116-.069-.015-.009-.106-.062-.135-.079-.017-.01-.025034-.014436-.177966-.102564-.110655-.063866-.230345-.131134-.056-.032-.189-.105-.211-.117-.187237-.102549c-.087892-.047871-.175958-.09548-.264196-.142827l.053294.02864c-.384935-.207171-.773165-.409333-1.164591-.60639-.051636-.025995-.103083-.051779-.154584-.077474-.521665-.260275-1.04896-.511498-1.581653-.753442l-.1418-.064128-.056233-.02583-.113852-.050361-.288148-.127639.287.127-.287493-.126857c-.105792-.046316-.211791-.092267-.317994-.137853l-.323513-.13729-.273772-.114333-.097812-.040306-.230416-.094361-.29-.116.213.085-.210903-.084051-.074097-.029949.072.029-.094577-.037336-.247304-.096842-.023119-.009822-.012-.004h.001l-.024-.009-.021656-.008082-.087344-.033918-.11-.042-.068-.026-.003-.001-.013-.005-.003-.001-.013-.005-.257-.096-.072-.027-.079-.029-.200833-.073768-.082167-.029232-.003-.001-.152-.055-.208465-.07425-.112535-.03975-.101914-.035241-.122179-.042218-.126907-.043541-.162-.055-.305889-.101769-.169111-.055231.171.055-.348081-.112401.136081.044401-.13739-.044821-.26561-.084179.266919.084599c-.209139-.06717-.418919-.132968-.629328-.197381l-.030591-.009218h.001l-.009-.002-.020354-.006786-.209646-.063214.208.063.01.003.012.004.008.002-.014-.004-.016-.005-.308-.093-.292-.086-.23632-.067869c-.831538-.237018-1.672483-.452529-2.522124-.645838l-.322556-.072293-.332-.072-.019-.004-.013-.003-.055213-.011353-.316312-.065654-.241475-.048993-.088278-.017108-.094722-.018892-.236529-.045114c-.114789-.021766-.229725-.043128-.344805-.064086l.207311.038221-.238977-.044021-.034-.006h.003l-.024-.004-.01327-.002291-.11573-.020709-.074-.013-.057-.01-.026591-.004667-.034611-.006011c-.228739-.039638-.458038-.07768-.687883-.114112l.348239.056498-.354084-.057424-.32907-.051284.328.051-.328591-.050767-.042409-.006233-.077-.012-.124-.018-.16537-.023853-.03163-.005147-.074-.01-.105-.015-.061441-.007877c-.114989-.015739-.230109-.031077-.345358-.04601l.232959.030759-.355718-.046507-.102442-.013365-.152382-.018312-.083618-.010688-.018089-.001574.014089.001574-.290869-.033843-.319131-.035157-.034-.004-.046-.005.027.003.019.002h-.002l.036.004.017.002-.053494-.005951.000494-.000049-.017-.002-.039-.004-.020008-.001915.012008.000915.008.001.012.001-.073-.007-.053-.006-.186893-.018494.102893.010494.084.008.026.003.027.003.040992.004085-.067992-.007085-.11-.011-.137-.014-.428126-.039953-.424284-.035992-.27459-.021055-.192-.015-.058-.004-.077-.005-.392-.025-.354159-.019648-.351217-.017254-.146624-.006098-.392758-.015493c-.183158-.006325-.366575-.011633-.550242-.015919l-463-10.805081c-.492175-.011486-.982544-.0152-1.470996-.011427l-.376637.004737c-24.548532.396819-44.152367 20.146892-44.152367 44.933183v483c0 24.538428 19.213719 44.140859 43.417409 44.915487l.558591.013513.553007.008748c.488449.003945.978818.000231 1.470993-.011255l463-10.805081c25.405098-.592881 46-20.740592 46-45.001171v-461.240482l-.004-.442759-.002163-.283809c-.003808-.224403-.009377-.448439-.016695-.672094-.00756-.211367-.016346-.422783-.026824-.633873l-.005498-.139395c-.044664-.877561-.11623-1.749003-.213927-2.613571l-.106379-.86225-.046514-.333008-.007-.049-.01-.068-.018-.124-.003516-.028712-.001484-.005288-.007616-.055733-.001384-.006267-.006-.037-.005-.033-.003-.021-.019-.125-.004-.025-.005-.033-.012-.075-.013-.08-.004-.024-.027374-.173706-.000626-.001294-.011859-.073792.009859.064792-.022-.132-.012-.073-.01-.06-.015-.087-.01-.054-.003759-.025164-.031241-.171836-.008-.043-.002-.011-.056-.304-.005-.025-.017-.088-.003-.017-.005-.025-.022-.114-.02191-.114065-.02809-.136935-.003-.013-.016-.082-.009-.043-.016413-.081765-.007587-.033235-.001-.004-.011-.052-.013-.063-.038-.178-.008-.038-.022-.099v-.002l-.005-.023-.016-.07.009.037-.027-.121v-.001l-.001-.005-.02-.085-.016-.071-.145911-.620488c-.062327-.255592-.126965-.510389-.193891-.764368-.096382-.365761-.197466-.729674-.303226-1.091828l-.18307-.610025c-.050182-.162816-.101312-.325266-.153383-.487342l-.004519-.013949-.015-.045-.037-.114-.052-.159-.065746-.198623-.043254-.126377-.026-.076-.02-.059-.019-.054-.005373-.018617-.028627-.081383-.078314-.225048-.002686-.005952-.062-.173-.036-.101-.008507-.025537-.011493-.030463-.003-.009-.002-.005-.097-.264-.007-.02-.088-.235-.004989-.013919-.029516-.07789-.013495-.034191-.031-.081-.019-.049-.063-.163-.022-.055-.055-.141-.028-.071-.097-.243-.006477-.016927-.092523-.225073z"/></svg>