<?xml version="1.0" encoding="UTF-8"?>
<svg width="960px" height="960px" viewBox="0 0 960 960" version="1.1" xmlns="http://www.w3.org/2000/svg" xmlns:xlink="http://www.w3.org/1999/xlink">
    <title>cloud.shelly/drivers/shelly_wave_door_window/assets/pair</title>
    <style type="text/css">
        #led {
            animation: flash 12s infinite;
        }
        #pair {
            animation: press 12s infinite;
        }

        @keyframes press {
            0%,  40%, 60%, 85%, 100% {
                fill: rgba(0,0,0,0);
            }
            5%, 35%, 65%, 80% {
                fill: #0074CC;
            }
        }

        @keyframes flash {
            0%,30%, 75%,77%,79%,81%,83%,85%,87%,89%,91%,93%,95%,97%,99% {
                fill: rgba(0,0,0,0);
            }
            33%,74%, 76%,78%,80%,82%,84%,86%,88%,90%,92%,94%,96%,98% {
                fill: #0074CC;
            }
        }
    </style>
    <g id="cloud.shelly/drivers/shelly_wave_door_window" stroke="none" stroke-width="1" fill="none" fill-rule="evenodd">
        <circle id="Oval" fill="#000000" cx="510.5" cy="334.5" r="7.5"></circle>
        <path d="M634,138 C671.003078,138 701,167.996922 701,205 L701,755 C701,792.003078 671.003078,822 634,822 L76,822 C38.9969218,822 9,792.003078 9,755 L9,205 C9,167.996922 38.9969218,138 76,138 L634,138 Z M634,158 L76,158 C50.0426168,158 29,179.042617 29,205 L29,755 C29,780.957383 50.0426168,802 76,802 L634,802 C659.957383,802 681,780.957383 681,755 L681,205 C681,179.042617 659.957383,158 634,158 Z" id="Rectangle" fill="#000000" fill-rule="nonzero"></path>
        <path d="M883,138 C920.003078,138 950,167.996922 950,205 L950,755 C950,792.003078 920.003078,822 883,822 L776,822 C738.996922,822 709,792.003078 709,755 L709,205 C709,167.996922 738.996922,138 776,138 L883,138 Z M883,158 L776,158 C750.042617,158 729,179.042617 729,205 L729,755 C729,780.957383 750.042617,802 776,802 L883,802 C908.957383,802 930,780.957383 930,755 L930,205 C930,179.042617 908.957383,158 883,158 Z" id="Rectangle" fill="#000000" fill-rule="nonzero" transform="translate(829.5, 480) scale(-1, 1) translate(-829.5, -480)"></path>
        <path d="M139,226 C158.882251,226 175,242.117749 175,262 C175,281.882251 158.882251,298 139,298 C119.117749,298 103,281.882251 103,262 C103,242.117749 119.117749,226 139,226 Z M139,236 C124.640597,236 113,247.640597 113,262 C113,276.359403 124.640597,288 139,288 C153.359403,288 165,276.359403 165,262 C165,247.640597 153.359403,236 139,236 Z" id="Oval" fill="#000000" fill-rule="nonzero"></path>
        <circle id="led" fill="#0074CC" cx="510.5" cy="334.5" r="7.5"></circle>
        <rect id="pair" fill="#0074CC" x="530" y="217" width="92" height="91" rx="11"></rect>
        <path d="M611,212 C619.836556,212 627,219.163444 627,228 L627,297 C627,305.836556 619.836556,313 611,313 L541,313 C532.163444,313 525,305.836556 525,297 L525,228 C525,219.163444 532.163444,212 541,212 L611,212 Z M611,222 L541,222 C537.686292,222 535,224.686292 535,228 L535,297 C535,300.313708 537.686292,303 541,303 L611,303 C614.313708,303 617,300.313708 617,297 L617,228 C617,224.686292 614.313708,222 611,222 Z" id="Rectangle" fill="#000000" fill-rule="nonzero"></path>
    </g>
</svg>