<?xml version="1.0" encoding="UTF-8"?>
<svg width="960px" height="960px" version="1.1" viewBox="0 0 960 960" xmlns="http://www.w3.org/2000/svg">
  <g>
    <path id="Shape" d="m352-0.10706 1.4809 0.087777 167.53 12.289c5.7422 0.41418 10.916 1.2614 16.053 2.8813 7.8093 2.4626 14.947 6.5695 20.926 12.845 6.1688 6.474 9.9606 14.072 11.846 22.167l0.19276 0.85748 0.0844 0.40572 23.756 1.858c3.8164 0.30598 6.8222 0.55347 9.0223 0.74289l1.2415 0.10829c6.6482 0.58867 12.707 1.8373 18.634 4.199 8.3898 3.343 15.752 8.7047 21.341 16.166 5.0323 6.7183 7.8453 13.98 9.1937 21.634 0.78063 4.4314 1.0102 8.3997 1.0102 13.27l-2.6e-4 24.701 0.22353 0.1718c9.5187 7.4321 16.119 18.465 17.947 32.259l0.095 0.76309 27.104 1.1131c9.8326 0.38871 16.515 0.62826 19.999 0.71706l0.43383 0.0107c6.9273 0.16363 13.234 1.0332 19.595 3.1333 9.1517 3.0214 17.292 8.3577 23.591 16.088 5.6699 6.9578 9.0553 14.788 10.85 23.273 1.1447 5.4113 1.62 10.935 1.6647 17.149l3e-3 1.061-0.21653 200-0.0835 141.75 0.0145 79.186c0.0329 45.398 0.11358 73.129 0.24676 78.856l0.0156 0.56291c0.30997 9.0984-0.58308 17.403-3.0878 25.228-3.1997 9.9971-8.9383 18.699-17.089 25.23-7.0595 5.6566-14.774 8.8845-22.953 10.532-4.0677 0.81949-7.0003 1.1112-11.504 1.3408l-20.904 1.0783-26.549 1.4221-2e-3 71.71c-0.0147 4.6458-0.0816 7.1753-0.3043 10.473-0.47181 6.9875-1.5587 13.222-3.8968 19.604-7.215 19.694-23.881 32.041-44.941 34.568l-0.63953 0.0736c-6.4525 0.7105-33.995 2.8769-78.592 6.2453l-26.536 1.9949c-11.143 0.83422-22.578 1.6862-34.053 2.538l-21.793 1.614-0.154 0.0895c-6.8056 3.9127-14.031 6.7665-22.299 7.9956l-0.80333 0.11385c-1.2306 0.1659-2.472 0.29101-3.7242 0.37265l-3.3652 0.19207c-5.7625 0.3572-18.811 1.2693-32.783 2.2761l-24.665 1.8072c-8.714 0.65045-16.095 1.2175-20.139 1.556l-0.76357 0.0646c-22.574 1.9336-37.984-1.7504-54.521-14.397-10.959-8.381-18.84-18.292-22.622-29.518l-0.12407-0.37787-0.41173-0.31306c-9.6378-7.447-15.375-18.901-15.54-31.118v-246.74c0-11.736 5.0288-22.21 12.98-29.495l0.4458-0.40269-0.97501-242.8-0.29765-0.28234c-7.3484-7.1274-11.97-17.051-12.148-28.054l-5e-3 -0.66147v-264.34c0-13.417 6.7271-25.941 17.914-33.35l21.433-14.226 10.255-6.8508c3.0616-2.0561 4.9945-3.3706 5.7339-3.8992l1.3743-0.97708c1.1387-0.80303 2.0025-1.3898 3.0694-2.0773 2.5938-1.6716 5.1873-3.1134 8.1437-4.4019 7.4037-3.2269 15.069-4.5242 23.043-4.1528zm5.9989 879.53 8.1e-4 31.429c0 2.6068-0.42155 5.0036-1.2065 7.1339l16.224-1.2356c5.2711-0.39309 10.989-0.81384 16.74-1.2322l19.152-1.3747c2.9004-0.20505 5.6684-0.39907 8.2356-0.57705l-4.1443-2.3207c-5.1039-2.8755-11.386-6.4701-18.725-10.708l-8.3545-4.8375zm-13.96-837.97h-0.54205c-0.92018 0.52978-1.8867 1.1891-2.9996 1.9773l-1.1456 0.81516c-3.3307 2.3462-16.103 10.875-38.318 25.587v264.34h12.334l1.2169 302.88-13.551-1.1891v246.21l11.132 7.9145c0.54613 0.25688 1.0766 0.56706 1.5846 0.93167l15.157 10.914c0.95574 0.68962 1.9351 1.3965 2.938 2.1205 1.9926 1.4386 3.9458 2.5886 5.7059 3.3823l0.44741 0.19565 8.1e-4 -32.175c0-3.3969 0.12813-5.9785 0.45338-8.1516l0.056-0.35848c0.61541-3.7719 1.866-6.7999 4.7133-9.2311 3.5914-3.0665 7.8412-3.4607 11.925-2.2535 1.8686 0.55241 3.5818 1.3712 5.8824 2.6812l32.547 18.982 9.7346 5.6431c13.012 7.5185 22.765 13.053 28.413 16.091l0.28848 0.15488c2.2957 1.2304 4.2544 2.0609 5.8554 2.5412l0.40011 0.1141 3.8e-4 -155.73c0-6.7281 1.185-11.469 5.4795-14.966l0.28451-0.22634c2.769-2.1522 6.0205-2.9495 9.3809-2.7256 1.9865 0.13236 3.9437 0.60449 6.1158 1.3758l4.6177 1.6698c5.6443 2.01 14.973 5.2596 24.775 8.6355l6.1971 2.1294 9.9683 3.4031c9.3524 3.1781 17.397 5.8649 20.913 6.943l0.43932 0.13306 6e-3 -0.14165c0.0288-0.74003 0.0451-1.5798 0.0495-2.5295v-541.51l-6.4562 1.9225c-6.1933 1.8603-14.492 4.3838-22.928 6.971l-15.075 4.6482c-10.407 3.2282-18.968 5.9323-21.146 6.7298l-0.17783 0.0663c-5.4508 2.075-9.7808 2.7307-14.219 1.0029-6.1099-2.3784-8.564-7.7661-8.564-14.098l-5e-5 -53.998-0.156 0.0426c-7.7477 1.9935-15.631-2.8054-15.818-12.443l-3e-3 -0.35045v-60.915c0-1.1698-0.0514-2.0283-0.14373-2.6342l-0.0232-0.14383-0.10825-0.04912c-0.24684-0.10956-0.57206-0.23272-0.98335-0.36353l-0.21285-0.06601c-2.9839-0.90283-7.72 0.26275-12.092 2.352l-20.659 10.198-10.72 5.3429c-2.2774 1.1451-3.9652 2.005-4.9958 2.5468l-0.539 0.2866c-2.0177 1.0896-3.7985 1.8559-5.5759 2.3149-3.0147 0.77863-6.057 0.70778-9.0437-0.82868-3.2468-1.6702-5.1419-4.4396-6.0078-7.5878-0.45415-1.6512-0.59856-3.2434-0.59856-5.1461v-50.227c0-0.64906-0.011-1.238-0.0315-1.7675l-2e-3 -0.01568-0.0343-3e-3c-1.3971-0.1398-3.0213-0.25966-4.5289-0.31643l-0.37426-0.01286-0.83748-0.02431zm114.23 708.64-8e-3 154 71.946-5.3576 37.991-2.8802c25.575-1.9593 46.471-3.6142 51.346-4.151 13.616-1.4993 14.148-11.304 14.163-26.212v-91.916l-104.66-0.47436c-1.0659-5e-3 -2.0922-0.17628-3.0541-0.48954-1.4889-0.23663-3.0579-0.6028-4.7426-1.0894l-1.2561-0.37702c-5.0151-1.5482-17.614-5.7945-30.653-10.261l-12.82-4.4135c-6.7689-2.3418-12.979-4.5093-17.509-6.1139zm88.227-541.78v541.32c-5e-3 1.2607-0.0258 2.4416-0.0697 3.5523l148.29 0.67242 23.333-1.2127c1.0938-0.0505 2.1908-0.10426 3.2733-0.19434l0.53996-0.0482 0.46206-0.047c7.4509-0.80482 13.936-3.8601 13.511-20.272l-0.0396-1.4379c-0.13016-6.1634-0.20644-29.841-0.24537-63.795l-0.0325-58.037 0.0193-85.089c0.0213-42.155 0.0571-85.968 0.0962-126.51l0.18651-167.43c0-15.663-3.7775-20.248-16.268-20.631l-3.2994-0.0919c-0.76593-0.0237-1.6101-0.0512-2.5326-0.0823l-167.23-1.8185c6e-3 0.38095 9e-3 0.76746 9e-3 1.1596zm72.239 402.65c2.2272-21.19 20.11-36.679 39.941-34.594 19.832 2.0844 34.103 20.952 31.876 42.142-2.2272 21.19-20.11 36.679-39.941 34.594-19.832-2.0844-34.103-20.952-31.876-42.142zm-160.81-451.76v48.992l2.5685-0.82744c6.326-2.0268 15.967-5.0294 25.885-8.0835l13.612-4.1713c10.858-3.3109 20.254-6.1345 23.689-7.1022l1.1062-0.30767c1.9286-0.52691 3.0201-0.75968 4.5387-0.92155 1.78-0.18974 3.5204-0.13616 5.2079 0.23794l98.457 1.0698v-13.62c0-6.587-2.7969-9.5547-7.1972-10.525zm-16.021-73.589c0.03 0.64623 0.0448 1.3068 0.0448 1.9816l-9.5e-4 51.089 0.2653-0.0165c0.3032-0.0154 0.60937-0.0232 0.91868-0.023l0.46635 6e-3c0.7457 0.0196 1.4663 0.0869 2.1608 0.19939l168.55 4.7599v-34.203c0-9.5539-1.3185-14.229-13.312-15.388l-4.7307-0.40508c-9.2459-0.76487-27.198-2.1594-53.856-4.1835zm-71.7-44.317 8e-3 0.10294c0.0222 0.704 0.0328 1.4338 0.0328 2.1914l-2.9e-4 39.658 9.5729-4.7618 19.326-9.5412c2.953-1.4561 6.094-2.7167 9.7972-3.6664 5.7138-1.4654 11.317-1.7447 16.681-0.27015l0.19327-0.0053 0.27823-9.01e-4 0.27985 0.0068 104.95 3.9841v-4.5568c0-7.9629-1.6829-11.362-12.802-12.239z"/>
    <path id="led-1" d="m698.68 239.9c-7.3351-0.77095-13.953 4.9907-14.781 12.869-0.82805 7.8784 4.4462 14.889 11.781 15.66 7.3351 0.77094 13.953-4.9907 14.781-12.869 0.82806-7.8784-4.4462-14.889-11.781-15.66z"/>
    <path id="led-2" d="m698.68 285.4c-7.3351-0.77095-13.953 4.9907-14.781 12.869-0.82805 7.8784 4.4462 14.889 11.781 15.66 7.3351 0.77095 13.953-4.9907 14.781-12.869 0.82806-7.8784-4.4462-14.889-11.781-15.66z"/>
    <path id="led-3" d="m698.68 330.91c-7.3351-0.77094-13.953 4.9907-14.781 12.869-0.82805 7.8784 4.4462 14.889 11.781 15.66s13.953-4.9907 14.781-12.869c0.82806-7.8784-4.4462-14.889-11.781-15.66z"/>
    <path id="led-4" d="m698.68 376.41c-7.3351-0.77095-13.953 4.9907-14.781 12.869-0.82805 7.8784 4.4462 14.889 11.781 15.66 7.3351 0.77094 13.953-4.9907 14.781-12.869 0.82806-7.8784-4.4462-14.889-11.781-15.66z"/>
    <path id="led-5" d="m698.68 421.92c-7.3351-0.77095-13.953 4.9907-14.781 12.869-0.82805 7.8784 4.4462 14.891 11.781 15.662 7.3351 0.77094 13.953-4.9907 14.781-12.869 0.82806-7.8784-4.4462-14.891-11.781-15.662z"/>
    <!-- Upper top -->
    <path id="top-1" d="M405.115688,45.4751192 C414.498444,48.2545473 420.165951,58.0778534 418.689844,68.3176409 C418.393421,70.3739364 416.572128,71.8609989 414.498094,71.740151 L407.284436,71.3201492 L391.414951,82.1801374 C389.931248,83.1954736 387.961546,83.0922364 386.594463,81.9514123 L386.433375,81.8095381 C380.804144,76.5796163 378.556978,68.1999335 380.757218,60.2730559 C383.849683,49.131726 394.701326,42.3901014 405.115688,45.4751192 Z"/>
    <path id="top-2" d="M459.47174,49.4589645 C468.33796,52.0931054 473.823343,61.2083955 472.800217,70.9216026 C472.575549,73.0545199 470.708663,74.6306805 468.568273,74.4945171 L438.711424,72.5951388 C436.497759,72.4543139 434.821404,70.539091 434.974974,68.3262737 C435.077995,66.8418165 435.331141,65.3612755 435.734168,63.9050071 C438.743937,53.0297168 449.316821,46.4419533 459.47174,49.4589645 Z"/>
    <path id="top-3" d="M513.439903,53.4325836 C522.297104,55.9843035 527.819318,64.8672612 526.802266,74.3641533 C526.574177,76.493965 524.708812,78.0660978 522.57114,77.9301519 L492.717616,76.0316086 C490.492968,75.8901316 488.813208,73.9574353 488.983121,71.7347793 C489.091779,70.3134067 489.345156,68.8966105 489.742843,67.5031796 C492.768483,56.901837 503.330678,50.520161 513.439903,53.4325836 Z"/>
    <!-- Upper bottom -->
    <path id="top-4" d="M481.115688,96.4751192 C491.474205,99.5435944 497.165856,111.09411 494.086768,122.187243 C490.994302,133.328572 480.142659,140.070197 469.728297,136.985179 C459.36978,133.916704 453.67813,122.366188 456.757218,111.273056 C459.849683,100.131726 470.701326,93.3901014 481.115688,96.4751192 Z"/>
    <path id="top-5" d="M535.47174,98.4589645 C545.565663,101.457854 551.105067,112.732467 548.109818,123.555291 C545.100048,134.430582 534.527164,141.018345 524.372246,138.001334 C514.278322,135.002444 508.738918,123.727832 511.734168,112.905007 C514.743937,102.029717 525.316821,95.4419533 535.47174,98.4589645 Z"/>
    <path id="top-6" d="M589.439903,100.432584 C599.5412,103.342722 605.124766,114.362842 602.101142,124.957119 C599.075502,135.558461 588.513308,141.940137 578.404082,139.027715 C568.302786,136.117576 562.71922,125.097457 565.742843,114.50318 C568.768483,103.901837 579.330678,97.520161 589.439903,100.432584 Z"/>
    <!-- Lower top -->
    <path id="bottom-1" d="M489.245879,887.44844 C498.381839,892.531175 510.362476,888.368675 516.005381,878.151236 C521.648286,867.933798 518.816605,855.530556 509.680645,850.447822 C500.544685,845.365087 488.564048,849.527587 482.921143,859.745025 C477.278238,869.962464 480.109919,882.365705 489.245879,887.44844 Z"/>
    <path id="bottom-2" d="M538.526762,883.194224 C547.662722,888.276959 559.64336,884.114459 565.286265,873.89702 C570.929169,863.679582 568.097489,851.27634 558.961528,846.193606 C549.825568,841.110871 537.844931,845.273371 532.202026,855.490809 C526.559121,865.708248 529.390802,878.111489 538.526762,883.194224 Z"/>
    <path id="bottom-3" d="M588.726874,879.855269 C597.862834,884.938004 609.843472,880.775504 615.486377,870.558066 C621.129281,860.340627 618.297601,847.937386 609.16164,842.854651 C600.02568,837.771916 588.045043,841.934416 582.402138,852.151855 C576.759233,862.369293 579.590914,874.772535 588.726874,879.855269 Z"/>
    <!-- Lower bottom -->
    <path id="bottom-4" d="M373.10009,880.999905 L400.000143,896.961134 C399.62216,898.089426 399.134594,899.204477 398.533804,900.290376 C393.746108,908.94388 383.581205,912.469247 375.82985,908.164505 C368.078499,903.859754 365.675976,893.355015 370.46366,884.701505 C371.218868,883.336507 372.107871,882.099105 373.10009,880.999905 Z"/>
  </g>
</svg>
