<?xml version="1.0" encoding="UTF-8"?>
<svg width="960px" height="960px" version="1.1" viewBox="0 0 960 960" xmlns="http://www.w3.org/2000/svg">
  <g>
    <path id="Shape" d="m778.46 47.088c-3.7555-0.13205-7.5894-0.11692-11.51 0.04883-10.336 0.43698 14.117-1.1269-334.94 21.307-1.5764 0.10131-1.576 0.10182-3.1523 0.20312-209.57 13.468-316.63 20.214-334.57 20.963-25.412 1.0602-47.522 11.23-63.605 29.98-14.261 16.626-22.637 38.497-26.307 65.08-0.25019 1.8125-0.375 3.641-0.375 5.4707v549.17c0.016887 11.604 0.41791 18.409 2.1797 27.32 2.5313 12.804 7.5294 24.848 15.502 36.492 12.9 18.856 42.74 47.849 92.408 90.824 15.977 13.864 36.958 20.628 58.109 18.748 165.14-14.913 294.04-26.71 407.77-37.162-6.6401-12.238-12.124-25.192-16.375-38.699-100.01 9.1933-200.23 18.415-355.63 32.465-0.32741 2e-3 -0.65773 0.0204-0.99023 0.0547l-2.9414 0.30273c-11.638 1.0521-23.43 2.1164-35.377 3.1953-0.42737 0.038-0.85415 0.07-1.2812 0.0937-20.529-1.1242-36.76-18.09-36.76-39.121v-445.6l28.721-15.857 741.76-55.338 14.902 5.6484v17.711c0 0.0234-1.6e-4 0.0469 0 0.0703v264.07c15.399 13.558 28.881 29.2 40 46.578v-337.13c-0.11039-6.3688-1.735-12.625-4.748-18.244l-8.2754-15.43 2e-3 -104.15c0-8.3583-2.6195-16.507-7.4883-23.301-7.8128-10.902-14.894-20.356-21.338-28.438l-1.0117-1.2637c-8.2226-10.235-15.393-18.195-21.713-24.039-6.3732-5.8875-13.864-11.541-22.398-17.189-6.2766-4.1541-12.828-8.1119-19.559-11.916-2.4143-1.3646-4.7104-2.6303-7.0117-3.873-0.0613-0.03309-0.1265-0.06749-0.19336-0.10352l-0.42773-0.23047c-0.15053-0.0809-0.30678-0.16416-0.4668-0.25l-0.34765-0.18555c-1.1013-0.59021-2.2159-1.1858-2.1973-1.1758-9.8943-5.3428-18.24-9.0529-28.514-12.053-10.029-2.9283-20.585-4.6468-31.852-5.043zm-1.0664 39.99c19.465 0.75331 32.381 6.877 42.418 12.297 3.9998 2.1612 29.715 15.481 44.459 29.102 4.125 3.8143 9.083 9.2366 14.875 16.27-0.19355-0.0559-0.38693-0.10916-0.58007-0.16211-10.281-2.8156-27.098-3.2837-51.115-1.6406-0.48589-0.54273-1.0355-1.0367-1.6406-1.4688l-47.078-33.613c-1.8714-1.3362-4.1465-1.9867-6.4414-1.8418l-602.92 38.066-0.26172 0.0195c-8.2779 0.72536-12.136 10.734-6.375 16.83l20.723 21.928-38.533 1.4883c-1.6638 0.0642-3.2849 0.54101-4.7168 1.3906-10.884 6.4582-19.002 12.725-24.406 19.004-3.3963 3.9445-7.1698 9.5956-11.4 17.023-8.9761-11.289-16.48-19.673-22.6-25.211-8.3243-7.5287-19.447-14.674-33.385-21.531-0.445-0.21894-0.89821-0.40108-1.3574-0.54882 7.5551-28.887 23.855-43.858 48.898-44.902 43.847-1.8294 648.21-41.44 672.69-42.475 3.0588-0.12932 5.9731-0.13105 8.7539-0.02344zm-7.3906 39.125 26.234 18.73-586.33 36.801-17.986-19.033zm86.828 35.857c7.2389 0.18484 12.749 0.79857 16.451 1.8125 7.3637 2.0184 16.702 8.452 27.604 19.484 0.63776 0.64541 1.3414 1.1858 2.0898 1.6211l2e-3 78.891c-3.5089-2.7662-7.9586-4.1544-12.518-3.8203l-60.461 4.3633v-101.59c10.624-0.69965 19.593-0.94266 26.832-0.75781zm-46.832 2.0488v100.44l-594.47 43.688v-106.82zm-766 31.102c10.279 5.3661 18.409 10.781 24.379 16.18l0.31055 0.28126c6.5535 6.0025 15.588 16.507 26.918 31.375l0.16992 0.2246 2e-3 123.65 0.0059 0.33203c0.08409 2.5372 1.1299 4.9519 2.9336 6.75l11.895 11.857v447.96c0 1.2922 0.042 2.5749 0.12305 3.8457-29.478-26.579-48.163-45.613-56.053-57.146-9.5153-13.897-10.562-26.044-10.674-38.332l-0.0059-1.0547c-0.0028-0.52706-0.0051-1.0541-0.0059-1.582zm151.52 7.2012v107.79l-50.129 3.6172c-4.1117 0.29219-8.032 1.9554-11.121 4.7109l-18.496 16.471 2e-3 -92.172c6.2686-12.241 11.412-20.662 15.176-25.033l0.26172-0.30078c3.4575-3.9148 9.0531-8.3201 16.756-13.076l0.29492-0.18164zm695.41 77.654 14.17 17.266 0.0605 0.0684c-1.6932-0.36232-3.4358-0.47942-5.1738-0.34766l-742.44 55.389c-2.6721 0.19611-5.2852 0.97683-7.6445 2.2812l-27.164 14.996-6.9688-6.9453v-0.99219l31.494-28.047z"/>
    <!-- Terminals -->
    <path id="1" d="M314.953488,250.429135 C314.953488,276.282301 295.2573,298.447986 270.517781,299.881074 C245.35124,301.337883 225.046512,280.821131 225.046512,254.56688 C225.046512,228.694918 244.745452,206.527664 269.490061,205.116874 C294.65169,203.681482 314.953488,224.1937 314.953488,250.429135 Z M280.12579,224.386933 L280.214234,224.544726 C283.258497,230.010443 285,236.453001 285,243.429135 C285,260.126487 275.023233,274.914804 261.085718,281.023343 C263.727116,281.823201 266.551069,282.17374 269.482578,282.004045 C284.506991,281.133724 297.046512,267.022006 297.046512,250.429135 C297.046512,237.979284 290.007354,227.979127 280.12579,224.386933 Z"/>
    <path id="2" d="M436,240.431017 C436,266.308005 416.285031,288.493829 391.520183,289.927588 C366.326246,291.385181 346,270.845555 346,244.564936 C346,218.668236 365.717866,196.480669 390.488078,195.070256 C415.676846,193.63519 436,214.170129 436,240.431017 Z M401.160025,214.449772 L401.213869,214.545922 C404.258357,220.01191 406,226.454723 406,233.431017 C406,250.101705 396.054731,264.869105 382.151745,270.994821 C384.772556,271.781506 387.57341,272.125829 390.480175,271.957658 C405.479262,271.089287 418,256.999339 418,240.431017 C418,228.022288 410.997182,218.051877 401.160025,214.449772 Z"/>
    <path id="3" d="M558,233.40761 C558,259.281409 538.288232,281.475718 513.526183,282.925906 C488.330067,284.400502 468,263.870922 468,237.588232 C468,211.693808 487.714795,189.497615 512.482459,188.071811 C537.673175,186.620829 558,207.145564 558,233.40761 Z M523.169066,207.445871 L523.220076,207.537686 C526.260725,212.999077 528,219.436431 528,226.40761 C528,243.085802 518.044714,257.865593 504.130743,263.994724 C506.756121,264.783067 509.561945,265.127112 512.474177,264.956674 C527.47606,264.07809 540,249.976859 540,233.40761 C540,221.003608 533.001712,211.042055 523.169066,207.445871 Z"/>
    <path id="4" d="M681,225.406222 C681,251.279404 661.288479,273.474131 636.526709,274.925758 C611.330358,276.40185 591,255.872781 591,229.589538 C591,203.694813 610.71468,181.498052 635.482316,180.071852 C660.673033,178.620466 681,199.144543 681,225.406222 Z M646.168527,199.445433 L646.220441,199.537451 C649.260864,204.998529 651,211.435476 651,218.406222 C651,235.084846 641.04376,249.865528 627.128742,255.994825 C629.75427,256.783141 632.560728,257.127238 635.47365,256.956588 C650.475814,256.077105 663,241.975155 663,225.406222 C663,213.002376 656.001481,203.041117 646.168527,199.445433 Z"/>
    <path id="5" d="M803,217.382131 C803,243.252032 783.291768,265.455484 758.53288,266.924005 C733.334293,268.41759 713,247.898874 713,221.613514 C713,195.721148 732.71152,173.515521 757.476529,172.073472 C782.669249,170.60569 803,191.119256 803,217.382131 Z M768.1777,191.441371 L768.226645,191.528643 C771.26323,196.98506 773,203.416509 773,210.382131 C773,227.068231 763.033737,241.861485 749.107734,247.99446 C751.737643,248.78478 754.54908,249.128544 757.467482,248.955563 C772.472524,248.06557 785,233.952015 785,217.382131 C785,204.983094 778.006082,195.030918 768.1777,191.441371 Z"/>
    <!-- Connectivity -->
    <path id="matter" d="M896.080068,755.757336 C861.274935,765.236175 830.073936,787.812258 810.608134,821.338781 C791.142332,854.865304 787.072448,893.04901 796.217718,927.757141 L830.322047,908.167541 C827.560723,890.960931 829.215186,873.339539 835.131911,856.938529 L914.827655,902.683665 L933.557831,891.91934 L933.557831,870.420987 L853.862086,824.68018 C865.19005,811.380241 879.711377,801.139175 896.080068,794.906239 L896.080068,755.757336 Z M648.025662,755.757336 L648.025662,794.905254 C664.396639,801.13637 678.919589,811.377452 690.247234,824.678446 L610.557771,870.42243 L610.557771,891.920242 L629.28954,902.684296 L708.979003,856.940311 C715.029935,873.68151 716.492606,891.296991 713.802335,908.168034 L747.896505,927.757141 C757.042554,893.045555 752.976676,854.867138 733.504865,821.341459 C714.84502,789.111065 684.114211,765.532779 648.025662,755.757336 L648.025662,755.757336 Z M772.053465,612.757499 L753.394501,623.573382 L753.394501,715.612895 C735.849958,712.42996 719.849127,704.831845 706.545455,694.011607 L672.557783,713.701392 C698.120086,739.086498 733.265542,754.757337 772.057801,754.757337 C810.850059,754.757337 845.995516,739.086498 871.557819,713.701392 L837.583155,694.011607 C824.022304,705.058211 807.903556,712.488225 790.721101,715.612895 L790.721101,623.573382 L772.053465,612.757499 Z"/>
    <path id="wifi" d="M765.5796,919.601014 C756.060639,918.410818 747.187593,913.959724 740.306944,906.923303 C732.748465,899.193419 728.708594,890.040662 728.152329,879.382855 C727.07849,858.840724 740.940077,840.759437 761.601928,835.746937 C764.362492,835.077836 765.828822,834.946552 770.768291,834.928969 C778.678682,834.897859 783.961227,836.025895 789.932669,839.002204 C804.58473,846.306051 813.432982,859.747088 814.059852,875.652424 C814.680203,891.49172 806.819913,905.750906 792.858809,914.0946 C785.072385,918.748421 775.008997,920.779338 765.5796,919.600368 L765.5796,919.601014 Z M721.127069,824.227027 C719.238235,823.294126 702.604267,806.750383 701.702282,804.906938 C701.107378,803.685159 701.03325,802.95257 701.128765,799.269282 C701.235698,795.775746 701.372538,794.793592 701.967953,793.649049 C702.807226,792.039213 709.39633,785.61918 714.099157,781.82485 C724.440195,773.481822 738.033183,766.911138 751.01201,763.980523 C758.17378,762.36339 762.428085,761.929054 771.107874,761.929054 C779.788856,761.929054 784.042224,762.363288 791.203994,763.980523 C804.182821,766.910825 817.766095,773.476967 828.119063,781.82485 C833.430256,786.107719 839.662775,792.283482 840.318175,793.913607 C841.051197,795.725247 841.369866,802.66814 840.806658,804.411967 C840.264922,806.09099 823.152951,823.250584 821.034745,824.240984 C819.115238,825.137987 815.79146,825.160181 813.86224,824.29395 C813.044438,823.923088 811.562461,822.646809 810.254899,821.181497 C807.222098,817.780622 802.475816,813.915707 798.160759,811.332378 C778.953928,799.833804 754.612961,801.739053 737.317117,816.094811 C735.593156,817.526522 733.184911,819.815396 731.966388,821.181497 C730.659763,822.646809 729.181279,823.922893 728.359985,824.29395 C726.4415,825.160309 722.947823,825.130716 721.127069,824.230645 L721.127069,824.227027 Z M671.335647,774.307138 C669.531033,773.388571 651.816676,755.432007 651.367231,754.066134 C651.165152,753.438423 651.047664,751.145749 651.111492,748.820241 C651.218812,745.455226 651.355952,744.43229 651.942366,743.30135 C653.332483,740.617826 666.008275,728.814169 674.291729,722.490377 C687.506427,712.402811 705.37621,703.054797 721.369177,697.864733 C757.34953,686.187796 796.589723,687.43465 831.352645,701.359462 C844.253074,706.527182 858.392295,714.490497 868.871533,722.490377 C877.154987,728.814169 889.831719,740.617826 891.22175,743.30135 C891.807737,744.43229 891.95684,745.455226 892.052625,748.820241 C892.159944,751.151307 892.052625,753.437994 891.796971,754.068802 C891.317535,755.545253 873.237811,773.744451 871.556923,774.449684 C869.990958,775.106267 866.671732,775.084875 864.98435,774.406884 C864.078881,774.04331 862.490444,772.630914 860.144788,770.103514 C847.805823,756.808661 829.915618,745.430283 811.452499,739.13622 C798.025725,734.558883 786.178842,732.623899 771.580435,732.623899 C756.983053,732.623899 745.13523,734.558883 731.708712,739.13622 C713.246277,745.430283 695.355132,756.808661 683.017363,770.103514 C680.67145,772.630914 679.083356,774.04331 678.177887,774.406884 C676.358234,775.137248 672.863161,775.085922 671.3324,774.310638 L671.335647,774.307138 Z M620.822611,723.265588 C618.822578,722.360551 601.92627,705.343712 601.393378,703.698631 C601.158855,702.967395 601.041849,700.842659 601.116463,698.386429 C601.223725,695.054404 601.360986,694.037661 601.947552,692.921829 C603.013165,690.894916 613.911511,680.461058 622.034117,673.700468 C655.444264,645.893269 695.471331,628.076203 738.160294,622.010179 C751.235505,620.152298 754.816778,619.92922 771.585312,619.92922 C788.353674,619.92922 791.934947,620.152825 805.010159,622.010179 C847.699122,628.076203 887.726188,645.893269 921.135309,673.700468 C929.257916,680.461058 940.161561,690.894916 941.221875,692.921829 C941.808014,694.037661 941.957155,695.054404 942.052964,698.386429 C942.160312,700.842659 942.052964,702.967497 941.775792,703.698631 C941.211192,705.452977 924.321379,722.380893 922.232802,723.288803 C920.232855,724.158869 916.971145,724.139794 914.994616,723.246385 C914.035582,722.815054 911.488897,720.617095 907.930101,717.156202 C892.798192,702.44119 877.884909,691.775557 859.460436,682.492502 C836.667531,671.007985 814.092912,664.676601 787.097382,662.196952 C777.019442,661.271769 758.923252,661.697804 747.298429,663.134852 C725.091236,665.880821 703.860427,672.345101 683.72164,682.491864 C665.297167,691.774817 650.383885,702.440451 635.25206,717.155565 C631.693265,720.616355 629.144358,722.814315 628.188742,723.245637 C626.246143,724.122071 622.750167,724.130545 620.83432,723.266719 L620.822611,723.265588 Z"/>
    <path id="zigbee" d="M772.135743,601.000118 C726.36674,600.928975 682.587765,619.726463 651.094073,652.972286 C749.70293,640.668317 811.242161,644.774327 837.762606,648.191315 C890.466371,656.389274 887.741283,696.05727 887.741283,696.05727 L719.446025,869.747129 C751.739723,872.840698 816.327119,874.893703 913.236308,860.874209 C930.795665,833.794123 940.125632,802.194075 940.093958,769.909208 C940.093958,676.567783 864.943252,601.000118 772.135743,601.000118 Z M775.097312,662.011789 C740.643642,661.814844 693.960396,664.065638 635.047573,672.182564 C615.325623,699.895464 604.094092,733.755846 604.094092,770.359382 C604.094092,863.401577 678.947536,939.000118 771.836091,939.000118 C822.862946,939.000118 868.126437,916.070155 899.093974,880.169991 C796.674783,893.505946 733.038813,889.04656 705.810434,885.628167 C652.745316,877.750388 655.809739,837.742526 655.809739,837.742526 L823.889106,664.318853 C807.667769,662.822604 791.387376,662.057499 775.097312,662.025856 L775.097312,662.011789 Z"/>
    <path id="zwave" d="M837.499376,617.370332 C717.222566,617.370332 619.51195,715.086514 619.51195,835.370177 L648.736193,835.370177 C649.117381,730.995568 733.524612,646.621654 837.512079,646.621654 L837.512079,617.370332 L837.499376,617.370332 Z M837.512079,675.370291 C749.374711,675.370291 677.511984,747.218913 677.511984,835.370177 L706.768197,835.370177 C707.149637,763.140054 765.674782,704.631116 837.512079,704.631116 L837.512079,675.370291 Z M837.518426,748.370239 C814.436839,748.343293 792.292659,757.499571 775.970308,773.819514 C759.647956,790.139457 750.488428,812.282269 750.512027,835.363829 C750.491811,858.445524 759.652019,880.587676 775.97327,896.908906 C792.29452,913.230135 814.436701,922.390331 837.518426,922.370115 C860.600017,922.393714 882.742857,913.234198 899.062821,896.911868 C915.382786,880.589537 924.539075,858.445387 924.51213,835.363829 C924.542465,812.282406 915.386857,790.137591 899.06579,773.816546 C882.744723,757.4955 860.59988,748.339904 837.518426,748.370239 L837.518426,748.370239 Z M808.121818,788.37021 L881.512105,788.37021 L842.399614,850.032369 L881.512105,850.032369 L863.631379,877.370147 L789.51205,877.370147 L829.724506,814.959876 L791.353844,814.959876 L808.109032,788.37021 L808.121818,788.37021 Z"/>
  </g>
</svg>
