<?xml version="1.0" encoding="UTF-8"?>
<svg width="960px" height="960px" version="1.1" viewBox="0 0 960 960" xmlns="http://www.w3.org/2000/svg">
  <g>
    <path id="Shape" d="M805.819831,58.2909583 L860.214827,75.7566395 C866.74932,77.8547986 872.63405,81.5989729 877.303081,86.6290833 L941.710305,156.017236 C948.577248,163.415233 952.393377,173.135867 952.393377,183.229691 L952.392856,216.979857 L952.724166,217.494073 C956.545495,223.539163 958.790238,230.676108 958.88946,238.322983 L958.88946,238.979665 L957.733938,567.583769 C957.730616,568.52857 957.69382,569.472957 957.62362,570.415153 L952.28281,642.097146 C951.640432,650.71885 948.221935,658.900361 942.539392,665.416122 C851.04924,770.321289 798.008713,832.199932 785.183939,848.904662 C770.973806,867.413873 762.110692,876.896908 749.373045,885.062411 C735.540122,893.930044 721.275993,898.169951 699.480959,901.35811 C678.306151,904.455543 572.83259,916.782654 380.717577,938.629861 C364.821938,940.437775 348.706425,939.242101 333.205694,935.1118 C305.563008,927.745519 285.676582,921.596413 272.711755,916.269741 C270.812421,915.489389 268.386965,914.744683 263.355849,913.407609 C246.700496,908.981267 240.508093,907.021835 229.505983,901.700396 C214.330343,894.360328 200.039909,883.908828 185.821696,869.293365 C173.949885,857.089861 151.767649,835.101303 116.408142,800.362166 C116.056,800.016205 116.056,800.016205 115.70384,799.670244 C112.690183,796.709663 104.803139,788.968357 96.1459552,780.470978 L95.2920899,779.632873 C94.0080003,778.372485 92.7100747,777.098511 91.4114915,775.823876 L90.5458165,774.974164 L89.3152656,773.766296 C88.8665699,773.325869 88.4186465,772.886197 87.9720432,772.447819 L87.0807587,771.572945 C78.4851577,763.135572 70.5193734,755.31528 67.1403449,751.993212 C56.5964053,741.627011 48.9669728,734.095279 43.7294985,728.869096 L42.949046,728.089695 C42.8643752,728.005067 42.780384,727.921093 42.6970697,727.837771 L41.72963,726.869039 C39.8590883,724.993511 38.3726189,723.487614 37.2350494,722.315746 C37.2450442,722.326043 37.1842298,722.26597 37.0625774,722.145204 L36.9210148,722.004566 C36.7867621,721.871106 36.6125688,721.697739 36.4042052,721.490063 L36.1381364,721.224742 L36.0667533,721.153518 L35.6823737,720.76971 C35.5740001,720.661433 35.4610825,720.548563 35.3439902,720.431458 L34.5942944,719.680874 C33.535783,718.619981 32.2573605,717.333923 30.9481071,716.006191 L30.4560611,715.506697 C30.3739357,715.423241 30.2917822,715.339713 30.2096467,715.256156 L29.7174198,714.754833 C27.5066972,712.50057 25.3764402,710.290921 24.2352589,709.007635 C8.27394371,691.058751 2.89485647,672.172028 2.89485647,639.27019 L2.89485647,156.627033 C2.89485647,147.560282 5.97514845,138.762512 11.6307862,131.675923 L43.6057359,91.6108897 C51.316973,81.9486079 63.0625438,76.3947072 75.423514,76.5658328 L131.802856,77.3468571 L792.323056,56.3959632 C796.89726,56.2508765 801.462439,56.8918437 805.819831,58.2909583 Z M42.8938565,166.851857 L42.8948565,639.27019 C42.8948565,675.831723 49.9619913,677.99876 65.9362092,694.454601 C81.9104271,710.910442 183.233413,809.268532 214.492927,841.401421 C245.752441,873.534311 268.199601,871.171432 287.912984,879.270786 C298.881842,883.777403 317.412694,889.50735 343.50554,896.460627 C347.41684,897.502826 351.383343,898.273668 355.376743,898.771042 C348.786611,893.592615 341.881871,887.348643 334.319541,879.912602 L333.290787,878.897709 C333.218186,878.825856 333.146137,878.753447 333.074646,878.68049 L199.769027,742.641906 L198.200619,741.084719 C189.787074,732.733654 181.010763,724.022118 171.871685,714.95011 L170.039033,713.130902 C166.256423,709.376032 164.129027,704.266657 164.129027,698.936817 L164.129027,225.645918 C164.129027,225.132765 164.148751,224.621591 164.187787,224.113415 L125.889856,184.553033 L42.8938565,166.851857 Z M912.182195,291.227136 C686.503449,305.688267 515.955398,316.06482 400.515773,322.357855 C342.725205,325.508229 298.719677,327.636729 268.460011,328.744244 C231.303079,330.104201 218.329771,330.168721 211.813744,327.770058 C202.912723,324.493437 193.730106,319.177558 184.129163,311.865122 L184.129027,698.936817 C194.541235,709.272668 204.487485,719.145508 213.967777,728.555337 L347.359581,864.68261 C365.186287,882.32584 377.874598,892.434413 392.683909,897.010836 C570.864573,876.72918 670.898796,865.02897 692.788707,861.909564 L695.560332,861.500177 L696.473944,861.358646 C697.279888,861.23256 698.069636,861.105055 698.843882,860.975768 C699.032285,860.944562 699.220155,860.912931 699.407114,860.881189 C699.86666,860.802914 700.320847,860.724195 700.769671,860.644726 C700.932929,860.616071 701.09459,860.587224 701.255557,860.558275 L700.769671,860.644726 C701.011025,860.601991 701.250827,860.55904 701.489102,860.51586 L701.255557,860.558275 C701.458776,860.521727 701.660888,860.485016 701.861907,860.448136 L701.489102,860.51586 C702.364543,860.357213 703.219364,860.195474 704.054713,860.030043 C704.384224,859.965036 704.709928,859.899364 705.032687,859.833082 L704.759939,859.888555 C705.03404,859.832841 705.306025,859.7767 705.575936,859.720109 L705.032687,859.833082 C705.303686,859.77743 705.572609,859.721349 705.839498,859.664817 L705.575936,859.720109 C705.816675,859.669635 706.055764,859.618803 706.293232,859.567599 L705.839498,859.664817 C706.057809,859.618575 706.27476,859.572031 706.490371,859.525174 L706.293232,859.567599 C706.577702,859.506259 706.859847,859.444385 707.139719,859.381948 L706.490371,859.525174 C706.752006,859.468314 707.011669,859.410994 707.269402,859.35319 L707.139719,859.381948 C707.331756,859.339107 707.522722,859.296001 707.712635,859.252621 L707.269402,859.35319 C707.51406,859.298319 707.756978,859.243013 707.998191,859.187254 L707.712635,859.252621 C708.262335,859.12706 708.803209,858.999207 709.335661,858.868853 C709.366975,858.861434 709.397572,858.853928 709.428141,858.846414 L709.335661,858.868853 C709.522947,858.823002 709.709191,858.776841 709.894411,858.730361 L709.428141,858.846414 C709.683333,858.783684 709.936588,858.720374 710.187952,858.656461 L709.894411,858.730361 C710.144574,858.667585 710.392868,858.604227 710.639337,858.540264 L710.187952,858.656461 C710.398001,858.603053 710.606729,858.549224 710.814162,858.49496 L710.639337,858.540264 C711.529753,858.309189 712.396343,858.070228 713.241152,857.822315 C713.549676,857.732021 713.854999,857.640378 714.157521,857.547492 L714.803635,857.345618 C715.630818,857.083258 716.437053,856.811067 717.22445,856.527941 C717.344815,856.4849 717.464223,856.441552 717.583202,856.397948 L717.22445,856.527941 C717.436812,856.451581 717.647805,856.374425 717.857469,856.296453 L717.583202,856.397948 C717.755689,856.334733 717.927275,856.270977 718.097982,856.206669 L717.857469,856.296453 C718.04791,856.22563 718.237255,856.154132 718.425535,856.081944 L718.097982,856.206669 C718.297145,856.131642 718.495112,856.055862 718.691918,855.979311 L718.425535,856.081944 C718.633712,856.002127 718.840588,855.921466 719.046202,855.839939 L718.691918,855.979311 C718.878248,855.906835 719.063538,855.833669 719.247818,855.759796 L719.046202,855.839939 C719.250006,855.75913 719.452572,855.67747 719.653939,855.594939 L719.247818,855.759796 C719.415366,855.69263 719.582079,855.62488 719.74798,855.556533 L719.653939,855.594939 C719.844475,855.516847 720.033939,855.437974 720.222366,855.358302 L719.74798,855.556533 C719.94848,855.473934 720.147794,855.390463 720.345963,855.3061 L720.222366,855.358302 C720.386187,855.289034 720.549224,855.219162 720.711499,855.148675 L720.345963,855.3061 C720.574157,855.208955 720.800833,855.110627 721.026053,855.011084 L720.711499,855.148675 C720.888221,855.071912 721.064041,854.994419 721.238986,854.91618 L721.026053,855.011084 C721.188245,854.939398 721.349682,854.867082 721.510386,854.794123 L721.238986,854.91618 C721.459531,854.817549 721.678686,854.717733 721.896512,854.616701 L721.510386,854.794123 C721.688199,854.713397 721.865116,854.631885 722.041167,854.54957 L721.896512,854.616701 C722.051884,854.544636 722.206579,854.471953 722.360619,854.398641 L722.041167,854.54957 C722.228931,854.461779 722.415712,854.373074 722.601546,854.283436 L722.360619,854.398641 C722.752053,854.212344 723.139256,854.021982 723.522579,853.827371 C723.572859,853.802073 723.622509,853.776761 723.672094,853.751376 L723.522579,853.827371 C723.661458,853.756862 723.799828,853.685796 723.937706,853.614163 L723.672094,853.751376 C723.868676,853.65074 724.064243,853.548973 724.258844,853.446052 L723.937706,853.614163 C724.114457,853.522333 724.290399,853.429573 724.465565,853.335863 L724.258844,853.446052 C724.422697,853.359393 724.585866,853.271915 724.748378,853.183604 L724.465565,853.335863 C724.641025,853.241997 724.815706,853.147179 724.989646,853.051389 L724.748378,853.183604 C724.924466,853.087915 725.099784,852.991247 725.274366,852.893582 L724.989646,853.051389 C725.546128,852.744933 726.095015,852.428538 726.637462,852.101603 C726.858747,851.968457 727.078865,851.833392 727.297989,851.696534 L727.785755,851.38766 C728.453097,850.959858 729.11166,850.514915 729.763701,850.05165 C729.819986,850.011877 729.876387,849.971634 729.93274,849.931252 L729.763701,850.05165 C729.920579,849.94019 730.077081,849.82767 730.233236,849.714072 L729.93274,849.931252 C730.112209,849.802647 730.291198,849.672642 730.469753,849.541212 L730.233236,849.714072 C730.395296,849.596179 730.556983,849.477126 730.718332,849.356895 L730.469753,849.541212 C730.608005,849.439447 730.745998,849.336827 730.883753,849.233342 L730.718332,849.356895 C730.91821,849.207953 731.11757,849.057203 731.316478,848.90461 C731.324535,848.898642 731.332208,848.892752 731.339881,848.88686 L731.316478,848.90461 C731.443391,848.807248 731.57012,848.709137 731.696682,848.610265 L731.339881,848.88686 C731.516542,848.751181 731.692849,848.614046 731.868848,848.475431 L731.696682,848.610265 C731.861517,848.481495 732.02607,848.351437 732.190378,848.220071 L731.868848,848.475431 C732.030251,848.348313 732.191394,848.219951 732.352316,848.090324 L732.190378,848.220071 C732.352001,848.090852 732.513388,847.960367 732.674575,847.828597 L732.352316,848.090324 C732.496776,847.973958 732.641057,847.856573 732.785185,847.738156 L732.674575,847.828597 C732.827779,847.703353 732.980803,847.576949 733.133678,847.449367 L732.785185,847.738156 C732.96882,847.58728 733.152206,847.434729 733.335398,847.280475 L733.133678,847.449367 C733.297202,847.312899 733.460555,847.175083 733.623776,847.035901 L733.335398,847.280475 C733.471946,847.165496 733.608386,847.049571 733.74474,846.932687 L733.623776,847.035901 C733.797705,846.887587 733.971485,846.737721 734.145161,846.586278 L733.74474,846.932687 C733.919207,846.783134 734.093534,846.632012 734.267767,846.479296 L734.145161,846.586278 C734.277509,846.470873 734.409797,846.354552 734.542045,846.237305 L734.267767,846.479296 C734.410018,846.354613 734.552208,846.228867 734.69436,846.102047 L734.542045,846.237305 C734.852542,845.962028 735.162821,845.681645 735.473146,845.396019 C735.541239,845.333547 735.608945,845.270981 735.676655,845.208164 L735.473146,845.396019 C735.978631,844.930766 736.484239,844.451599 736.991118,843.957919 C737.027927,843.922267 737.064642,843.886438 737.101364,843.850533 L736.991118,843.957919 C737.273786,843.682611 737.55685,843.40279 737.840508,843.118351 C738.004933,842.953669 738.169497,842.787301 738.3343,842.619362 C739.026618,841.913679 739.723398,841.180196 740.427261,840.417471 C740.693989,840.128624 740.961389,839.83577 741.22996,839.538646 C741.596328,839.133136 741.964691,838.720079 742.335624,838.298877 C742.593237,838.006536 742.851693,837.710539 743.111516,837.410558 C743.533333,836.923362 743.958878,836.425702 744.388595,835.917238 C744.986698,835.209711 745.592907,834.481042 746.208717,833.730646 C747.20993,832.510451 748.237183,831.232167 749.296397,829.892953 C749.634167,829.466073 749.975813,829.032022 750.320935,828.591641 C750.791966,827.990426 751.269609,827.377413 751.754273,826.752319 C751.918098,826.541198 752.082356,826.329002 752.247433,826.115421 L753.669856,824.266857 L753.875647,824.001689 C753.889247,823.98411 753.902883,823.966492 753.916553,823.948835 L756.271681,820.891024 C767.59475,806.22941 792.908645,773.808756 832.213365,723.629062 L912.393302,639.12529 L918.060166,289.945244 C916.210665,290.654162 914.234398,291.095635 912.182195,291.227136 Z M918.889708,238.839056 L866.843998,241.588059 C865.650444,242.085506 864.340056,242.358232 862.965874,242.353557 C861.987753,242.350208 861.042912,242.206543 860.150345,241.941687 L184.129027,277.634565 L184.129027,285.779898 C196.979327,297.501562 208.510595,305.242045 218.722833,309.001348 C228.935072,312.760651 459.661877,300.182892 910.90325,271.268071 L918.889708,238.839056 Z M226.257856,181.848857 L184.129027,225.645918 L184.128856,257.605857 L226.022856,255.393857 L226.257856,181.848857 Z M853.306856,142.233857 L246.280901,170.946148 C246.288658,171.113148 246.292316,171.281214 246.291777,171.450245 L246.026856,254.337857 L853.033856,222.287857 L853.306856,142.233857 Z M873.45574,141.280906 L873.278147,141.28967 C873.298912,141.558539 873.309038,141.830373 873.308104,142.10475 L873.037856,221.231857 L912.392856,219.153857 L912.393302,183.229719 L873.45574,141.280906 Z M68.6301937,124.379409 L49.8668565,147.888857 L133.042445,165.629527 C134.984801,166.043809 136.759807,167.027076 138.141211,168.453996 L174.883856,206.406857 L213.480856,166.281857 L173.300806,148.373 L72.7287876,126.330114 C71.1783349,125.990278 69.7914274,125.307707 68.6301937,124.379409 Z M793.591157,96.3758571 L132.166727,117.35522 L124.724856,117.251857 L178.582124,129.056736 C179.245322,129.202098 179.891992,129.414623 180.512125,129.691022 L230.912112,152.155319 C232.348126,151.754244 233.834937,151.512119 235.346848,151.440607 L855.651856,122.099857 L847.986153,113.841538 L793.591157,96.3758571 Z"/>
    <!-- Terminals -->
    <path id="1" d="M300.986253,172.471831 L301.612202,172.475384 C322.427443,172.76355 339.105529,190.520567 339.105529,211.988535 C339.105529,233.54087 322.294161,250.974316 301.387798,250.684888 C280.572557,250.396722 263.894471,232.639705 263.894471,211.171737 C263.894471,190.050449 280.040109,172.884941 300.362836,172.479177 L300.986253,172.471831 Z M310.097571,190.781906 L310.284694,191.199392 C312.027336,195.13778 313,199.513483 313,204.112477 C313,217.395623 304.885926,228.591386 293.5415,232.677737 C296.039727,233.800088 298.766559,234.435988 301.612202,234.475384 C313.29064,234.63706 322.894471,224.677854 322.894471,211.988535 C322.894471,202.568255 317.598747,194.456888 310.097571,190.781906 Z"/>
    <path id="2" d="M387.000734,166.647856 L387.612406,166.651236 C407.949318,166.932781 424.120264,184.746101 424.120264,206.165277 C424.120264,227.666831 407.818351,245.173052 387.387594,244.890208 C367.050682,244.608663 350.879736,226.795343 350.879736,205.376167 C350.879736,184.304644 366.536093,167.070239 386.391613,166.655502 L387.000734,166.647856 Z M396.336489,185.33635 L396.369686,185.41354 C398.057934,189.345316 399,193.71278 399,198.303063 C399,211.611605 391.081123,222.827907 380.018719,226.899191 C382.37711,227.995336 384.94328,228.614285 387.612406,228.651236 C398.661879,228.804205 407.879736,218.905377 407.879736,206.165277 C407.879736,197.012276 403.116085,189.145449 396.336489,185.33635 Z"/>
    <path id="3" d="M470.000803,162.81693 L470.612129,162.820308 C490.937708,163.101696 507.100244,180.905753 507.100244,202.314331 C507.100244,223.805085 490.807064,241.301928 470.387871,241.019244 C450.062292,240.737856 433.899756,222.933799 433.899756,201.525221 C433.899756,180.464282 449.547726,163.239095 469.392026,162.824572 L470.000803,162.81693 Z M478.812419,181.178558 L478.900953,181.364422 C480.882591,185.575074 482,190.326741 482,195.343688 C482,208.218454 474.641121,219.142414 464.20123,223.572939 C466.226413,224.353271 468.383393,224.789453 470.612129,224.820308 C481.673167,224.973437 490.899756,215.065231 490.899756,202.314331 C490.899756,192.915651 485.880728,184.871593 478.812419,181.178558 Z"/>
    <path id="4" d="M555.000807,157.994802 L555.612114,157.99818 C575.937053,158.279559 592.099114,176.083093 592.099114,197.491073 C592.099114,218.981217 575.806427,236.477531 555.387886,236.194856 C535.062947,235.913477 518.900886,218.109943 518.900886,196.701963 C518.900886,175.641622 534.548383,158.416955 554.39205,158.002444 L555.000807,157.994802 Z M564.392391,176.669361 L564.534039,177.008576 C566.118262,180.869993 567,185.142898 567,189.628859 C567,203.032579 559.128103,214.316251 548.165277,218.316559 C550.483938,219.368532 552.998695,219.962 555.612114,219.99818 C566.673804,220.151318 575.900886,210.242583 575.900886,197.491073 C575.900886,188.350894 571.154349,180.491765 564.392391,176.669361 Z"/>
    <path id="5" d="M640.000807,154.171544 L640.612114,154.174922 C660.937053,154.456301 677.099114,172.259835 677.099114,193.667815 C677.099114,215.157959 660.806427,232.654273 640.387886,232.371598 C620.062947,232.090219 603.900886,214.286685 603.900886,192.878705 C603.900886,171.818364 619.548383,154.593698 639.39205,154.179186 L640.000807,154.171544 Z M649.392391,172.846103 L649.534039,173.185318 C651.118262,177.046735 652,181.319641 652,185.805601 C652,199.208914 644.12858,210.492308 633.166275,214.492937 C635.484661,215.545445 637.999071,216.138747 640.612114,216.174922 C651.673804,216.328061 660.900886,206.419325 660.900886,193.667815 C660.900886,184.527636 656.154349,176.668507 649.392391,172.846103 Z"/>
    <path id="6" d="M723.000807,150.320599 L723.612114,150.323976 C743.937053,150.605355 760.099114,168.408889 760.099114,189.816869 C760.099114,211.307013 743.806427,228.803327 723.387886,228.520652 C703.062947,228.239273 686.900886,210.435739 686.900886,189.027759 C686.900886,167.967418 702.548383,150.742752 722.39205,150.32824 L723.000807,150.320599 Z M732.392391,168.995157 L732.534039,169.334372 C734.118262,173.195789 735,177.468695 735,181.954655 C735,195.357968 727.12858,206.641362 716.166275,210.641991 C718.484661,211.694499 720.999071,212.287801 723.612114,212.323976 C734.673804,212.477115 743.900886,202.568379 743.900886,189.816869 C743.900886,180.67669 739.154349,172.817561 732.392391,168.995157 Z"/>
    <path id="7" d="M804.002565,147.395783 L804.612752,147.399242 C824.901049,147.680114 841.145219,165.004124 841.145219,185.938235 C841.145219,206.957017 824.767238,223.970259 804.387248,223.688118 C784.098951,223.407247 767.854781,206.083236 767.854781,185.149125 C767.854781,164.550719 783.584194,147.799233 803.394854,147.402962 L804.002565,147.395783 Z M813.488324,166.113344 L813.526051,166.201193 C815.116006,169.97921 816,174.153545 816,178.533656 C816,191.153103 808.6623,201.861314 798.246313,206.219644 C800.255165,206.956009 802.396382,207.368558 804.612752,207.399242 C815.712992,207.552914 824.854781,198.056537 824.854781,185.938235 C824.854781,177.285765 820.191509,169.795029 813.488324,166.113344 Z"/>
  </g>
</svg>
