<?xml version="1.0" encoding="UTF-8"?>
<svg width="960px" height="960px" viewBox="0 0 960 960" version="1.1" xmlns="http://www.w3.org/2000/svg" xmlns:xlink="http://www.w3.org/1999/xlink">
    <g stroke="none" fill="none" fill-rule="nonzero">
        <path id="1" d="M314.953488,250.429135 C314.953488,276.282301 295.2573,298.447986 270.517781,299.881074 C245.35124,301.337883 225.046512,280.821131 225.046512,254.56688 C225.046512,228.694918 244.745452,206.527664 269.490061,205.116874 C294.65169,203.681482 314.953488,224.1937 314.953488,250.429135 Z M280.12579,224.386933 L280.214234,224.544726 C283.258497,230.010443 285,236.453001 285,243.429135 C285,260.126487 275.023233,274.914804 261.085718,281.023343 C263.727116,281.823201 266.551069,282.17374 269.482578,282.004045 C284.506991,281.133724 297.046512,267.022006 297.046512,250.429135 C297.046512,237.979284 290.007354,227.979127 280.12579,224.386933 Z" fill="#000000"></path>
        <path id="2" d="M436,240.431017 C436,266.308005 416.285031,288.493829 391.520183,289.927588 C366.326246,291.385181 346,270.845555 346,244.564936 C346,218.668236 365.717866,196.480669 390.488078,195.070256 C415.676846,193.63519 436,214.170129 436,240.431017 Z M401.160025,214.449772 L401.213869,214.545922 C404.258357,220.01191 406,226.454723 406,233.431017 C406,250.101705 396.054731,264.869105 382.151745,270.994821 C384.772556,271.781506 387.57341,272.125829 390.480175,271.957658 C405.479262,271.089287 418,256.999339 418,240.431017 C418,228.022288 410.997182,218.051877 401.160025,214.449772 Z" fill="#000000"></path>
        <path id="3" d="M558,233.40761 C558,259.281409 538.288232,281.475718 513.526183,282.925906 C488.330067,284.400502 468,263.870922 468,237.588232 C468,211.693808 487.714795,189.497615 512.482459,188.071811 C537.673175,186.620829 558,207.145564 558,233.40761 Z M523.169066,207.445871 L523.220076,207.537686 C526.260725,212.999077 528,219.436431 528,226.40761 C528,243.085802 518.044714,257.865593 504.130743,263.994724 C506.756121,264.783067 509.561945,265.127112 512.474177,264.956674 C527.47606,264.07809 540,249.976859 540,233.40761 C540,221.003608 533.001712,211.042055 523.169066,207.445871 Z" fill="#000000"></path>
        <path id="4" d="M681,225.406222 C681,251.279404 661.288479,273.474131 636.526709,274.925758 C611.330358,276.40185 591,255.872781 591,229.589538 C591,203.694813 610.71468,181.498052 635.482316,180.071852 C660.673033,178.620466 681,199.144543 681,225.406222 Z M646.168527,199.445433 L646.220441,199.537451 C649.260864,204.998529 651,211.435476 651,218.406222 C651,235.084846 641.04376,249.865528 627.128742,255.994825 C629.75427,256.783141 632.560728,257.127238 635.47365,256.956588 C650.475814,256.077105 663,241.975155 663,225.406222 C663,213.002376 656.001481,203.041117 646.168527,199.445433 Z" fill="#000000"></path>
        <path id="5" d="M803,217.382131 C803,243.252032 783.291768,265.455484 758.53288,266.924005 C733.334293,268.41759 713,247.898874 713,221.613514 C713,195.721148 732.71152,173.515521 757.476529,172.073472 C782.669249,170.60569 803,191.119256 803,217.382131 Z M768.1777,191.441371 L768.226645,191.528643 C771.26323,196.98506 773,203.416509 773,210.382131 C773,227.068231 763.033737,241.861485 749.107734,247.99446 C751.737643,248.78478 754.54908,249.128544 757.467482,248.955563 C772.472524,248.06557 785,233.952015 785,217.382131 C785,204.983094 778.006082,195.030918 768.1777,191.441371 Z" fill="#000000"></path>

        <path d="M810.312105,52.1303878 C820.586154,55.1302278 828.932629,58.8407262 838.826962,64.1835054 C838.808372,64.1734607 839.922958,64.7683305 841.024274,65.3585412 L841.37028,65.5440576 C841.530295,65.6298961 841.687402,65.7142399 841.83793,65.7951381 L842.266111,66.0255449 C842.332962,66.0615729 842.397252,66.0962517 842.458521,66.1293376 C844.759844,67.3720734 847.056226,68.6372589 849.470517,70.0018486 C856.201011,73.8060141 862.753122,77.7636466 869.029696,81.9177583 C877.563743,87.5659644 885.054631,93.2202408 891.427788,99.1077109 C897.747928,104.951775 904.918496,112.910751 913.141065,123.145539 L914.153181,124.410164 C920.596726,132.49163 927.677909,141.945756 935.490742,152.847588 C940.359556,159.641408 942.977851,167.789748 942.977851,176.148058 L942.977,280.3 L951.251885,295.731122 C954.26498,301.350339 955.889608,307.605535 956,313.974393 L956.003065,644.728981 C950.038675,621.06326 935.553295,600.785642 916.000226,587.349429 L916.000241,340.454304 C916.00008,340.43094 916,340.407556 916,340.384155 L915.999287,322.673 L901.097287,317.025 L159.336287,372.363 L130.616,388.221491 L130.616191,833.819838 C130.616191,854.850542 146.846582,871.816827 167.375405,872.941012 C167.802506,872.917307 168.229672,872.886511 168.657039,872.848524 C180.603767,871.769633 192.39609,870.704141 204.034009,869.652066 L206.974512,869.349128 C207.307014,869.314849 207.637388,869.297278 207.964798,869.295734 C343.810449,857.014101 458.491728,846.57176 552.008675,837.997109 L552,861 C552,866.807772 552.500103,872.498739 553.459596,878.032186 L553.470284,878.030052 C446.987761,887.790617 317.64695,899.55622 172.198533,912.691438 C151.046975,914.571525 130.065959,907.807356 114.088985,893.942918 C64.4208756,850.967475 34.5814517,821.974699 21.6813473,803.118714 C13.7087701,791.47498 8.71007527,779.431851 6.17875998,766.627785 C4.4169855,757.716261 4.01745676,750.910338 4.00056994,739.306608 L4,190.140024 C4,188.310347 4.12553928,186.482825 4.37573343,184.670335 C8.04519516,158.08752 16.4198789,136.215841 30.681392,119.589898 C46.7651624,100.839583 68.8745571,90.6704092 94.2868087,89.6101675 C112.22527,88.8617449 219.286985,82.1135444 428.859924,68.6455351 C430.436314,68.5442285 430.436314,68.5442285 432.012666,68.442919 C781.069192,46.0093553 756.614906,47.5736558 766.950462,47.1366729 C782.631849,46.4736705 796.940153,48.2260153 810.312105,52.1303878 Z M44.0015356,195.210099 L44,739.550575 C44.0007262,740.078496 44.00218,740.60591 44.0049545,741.132969 L44.01244,742.186654 C44.1244156,754.475124 45.170698,766.623356 54.6859584,780.520138 C62.576241,792.053301 81.260282,811.085661 110.738081,837.665068 C110.657053,836.394298 110.616191,835.112058 110.616191,833.819838 L110.616,385.864 L98.7208189,374.006448 C96.9171115,372.208371 95.8704113,369.793108 95.7863177,367.255924 L95.7808249,366.924336 L95.78,243.272 L95.6085452,243.046176 C84.2783683,228.177957 75.2446241,217.675231 68.6911168,211.672733 L68.3809204,211.390302 C62.4113469,205.991257 54.2805182,200.576235 44.0015356,195.210099 Z M890.94,280.066 L147.274,333.735 L115.779,361.781491 L115.78,362.773 L122.749,369.719491 L149.912116,354.72173 C152.271494,353.41731 154.88457,352.637017 157.556665,352.440904 L899.996622,297.052214 C901.734617,296.920454 903.475883,297.03859 905.169085,297.400907 L905.109561,297.332452 L890.94,280.066 Z M195.526,202.411491 L148.27,204.236 L147.974892,204.417575 C140.272133,209.173688 134.675328,213.579277 131.217849,217.49408 L130.95611,217.794248 C127.19206,222.16593 122.049585,230.58791 115.780958,242.829062 L115.779,335.000491 L134.276221,318.529187 C137.365299,315.773612 141.284503,314.11099 145.396194,313.818799 L195.526,310.200491 L195.526,202.411491 Z M810,164.109491 L215.526,201.420491 L215.526,308.237 L810,264.548 L810,164.109491 Z M830.000375,162.81846 L830,264.411491 L890.460283,260.04891 C895.019279,259.714861 899.468954,261.10197 902.977867,263.868217 L902.977032,184.978407 C902.228552,184.543158 901.524672,184.002766 900.886912,183.357357 C889.985235,172.324943 880.645989,165.890518 873.282241,163.87212 C865.87796,161.844272 851.248397,161.419167 830.000375,162.81846 Z M768.640136,87.1009695 C744.169487,88.1355782 139.801571,127.746014 95.954225,129.575399 C70.9111676,130.620237 54.6120984,145.590301 47.0570174,174.477684 C47.5162271,174.625429 47.9696012,174.808252 48.4146034,175.027192 C62.3519981,181.884363 73.4744454,189.030463 81.798776,196.559215 C87.9185482,202.097584 95.4222068,210.479754 104.39831,221.768856 C108.628878,214.341031 112.402546,208.690544 115.798822,204.746006 C121.203492,198.466652 129.321325,192.201372 140.205715,185.743126 C141.63762,184.893506 143.259006,184.414864 144.922761,184.35063 L183.455,182.862491 L162.732014,160.935124 C156.971347,154.83941 160.829087,144.831657 169.107014,144.106294 L169.369885,144.086489 L772.291237,106.019872 C774.586103,105.874981 776.860792,106.525391 778.732176,107.861553 L825.810824,141.47555 C826.415953,141.90761 826.964464,142.400829 827.450358,142.943555 C851.467751,141.300441 868.28651,141.7674 878.567204,144.583026 C878.760352,144.635967 878.9537,144.690411 879.147252,144.746356 C873.355262,137.713461 868.396298,132.290765 864.27128,128.476471 C849.526809,114.855664 823.81174,101.536043 819.811974,99.374843 C808.341013,93.1807125 793.110784,86.0663608 768.640136,87.1009695 Z M770.004,126.204 L191.919,162.702 L209.907,181.734491 L796.238,144.934491 L770.004,126.204 Z" id="Combined-Shape" fill="#000000"></path>

        <path id="zwave" d="M837.499376,617.370332 C717.222566,617.370332 619.51195,715.086514 619.51195,835.370177 L648.736193,835.370177 C649.117381,730.995568 733.524612,646.621654 837.512079,646.621654 L837.512079,617.370332 L837.499376,617.370332 Z M837.512079,675.370291 C749.374711,675.370291 677.511984,747.218913 677.511984,835.370177 L706.768197,835.370177 C707.149637,763.140054 765.674782,704.631116 837.512079,704.631116 L837.512079,675.370291 Z M837.518426,748.370239 C814.436839,748.343293 792.292659,757.499571 775.970308,773.819514 C759.647956,790.139457 750.488428,812.282269 750.512027,835.363829 C750.491811,858.445524 759.652019,880.587676 775.97327,896.908906 C792.29452,913.230135 814.436701,922.390331 837.518426,922.370115 C860.600017,922.393714 882.742857,913.234198 899.062821,896.911868 C915.382786,880.589537 924.539075,858.445387 924.51213,835.363829 C924.542465,812.282406 915.386857,790.137591 899.06579,773.816546 C882.744723,757.4955 860.59988,748.339904 837.518426,748.370239 L837.518426,748.370239 Z M808.121818,788.37021 L881.512105,788.37021 L842.399614,850.032369 L881.512105,850.032369 L863.631379,877.370147 L789.51205,877.370147 L829.724506,814.959876 L791.353844,814.959876 L808.109032,788.37021 L808.121818,788.37021 Z" fill="#000000"></path>
        <path id="wifi" d="M765.5796,919.601014 C756.060639,918.410818 747.187593,913.959724 740.306944,906.923303 C732.748465,899.193419 728.708594,890.040662 728.152329,879.382855 C727.07849,858.840724 740.940077,840.759437 761.601928,835.746937 C764.362492,835.077836 765.828822,834.946552 770.768291,834.928969 C778.678682,834.897859 783.961227,836.025895 789.932669,839.002204 C804.58473,846.306051 813.432982,859.747088 814.059852,875.652424 C814.680203,891.49172 806.819913,905.750906 792.858809,914.0946 C785.072385,918.748421 775.008997,920.779338 765.5796,919.600368 L765.5796,919.601014 Z M721.127069,824.227027 C719.238235,823.294126 702.604267,806.750383 701.702282,804.906938 C701.107378,803.685159 701.03325,802.95257 701.128765,799.269282 C701.235698,795.775746 701.372538,794.793592 701.967953,793.649049 C702.807226,792.039213 709.39633,785.61918 714.099157,781.82485 C724.440195,773.481822 738.033183,766.911138 751.01201,763.980523 C758.17378,762.36339 762.428085,761.929054 771.107874,761.929054 C779.788856,761.929054 784.042224,762.363288 791.203994,763.980523 C804.182821,766.910825 817.766095,773.476967 828.119063,781.82485 C833.430256,786.107719 839.662775,792.283482 840.318175,793.913607 C841.051197,795.725247 841.369866,802.66814 840.806658,804.411967 C840.264922,806.09099 823.152951,823.250584 821.034745,824.240984 C819.115238,825.137987 815.79146,825.160181 813.86224,824.29395 C813.044438,823.923088 811.562461,822.646809 810.254899,821.181497 C807.222098,817.780622 802.475816,813.915707 798.160759,811.332378 C778.953928,799.833804 754.612961,801.739053 737.317117,816.094811 C735.593156,817.526522 733.184911,819.815396 731.966388,821.181497 C730.659763,822.646809 729.181279,823.922893 728.359985,824.29395 C726.4415,825.160309 722.947823,825.130716 721.127069,824.230645 L721.127069,824.227027 Z M671.335647,774.307138 C669.531033,773.388571 651.816676,755.432007 651.367231,754.066134 C651.165152,753.438423 651.047664,751.145749 651.111492,748.820241 C651.218812,745.455226 651.355952,744.43229 651.942366,743.30135 C653.332483,740.617826 666.008275,728.814169 674.291729,722.490377 C687.506427,712.402811 705.37621,703.054797 721.369177,697.864733 C757.34953,686.187796 796.589723,687.43465 831.352645,701.359462 C844.253074,706.527182 858.392295,714.490497 868.871533,722.490377 C877.154987,728.814169 889.831719,740.617826 891.22175,743.30135 C891.807737,744.43229 891.95684,745.455226 892.052625,748.820241 C892.159944,751.151307 892.052625,753.437994 891.796971,754.068802 C891.317535,755.545253 873.237811,773.744451 871.556923,774.449684 C869.990958,775.106267 866.671732,775.084875 864.98435,774.406884 C864.078881,774.04331 862.490444,772.630914 860.144788,770.103514 C847.805823,756.808661 829.915618,745.430283 811.452499,739.13622 C798.025725,734.558883 786.178842,732.623899 771.580435,732.623899 C756.983053,732.623899 745.13523,734.558883 731.708712,739.13622 C713.246277,745.430283 695.355132,756.808661 683.017363,770.103514 C680.67145,772.630914 679.083356,774.04331 678.177887,774.406884 C676.358234,775.137248 672.863161,775.085922 671.3324,774.310638 L671.335647,774.307138 Z M620.822611,723.265588 C618.822578,722.360551 601.92627,705.343712 601.393378,703.698631 C601.158855,702.967395 601.041849,700.842659 601.116463,698.386429 C601.223725,695.054404 601.360986,694.037661 601.947552,692.921829 C603.013165,690.894916 613.911511,680.461058 622.034117,673.700468 C655.444264,645.893269 695.471331,628.076203 738.160294,622.010179 C751.235505,620.152298 754.816778,619.92922 771.585312,619.92922 C788.353674,619.92922 791.934947,620.152825 805.010159,622.010179 C847.699122,628.076203 887.726188,645.893269 921.135309,673.700468 C929.257916,680.461058 940.161561,690.894916 941.221875,692.921829 C941.808014,694.037661 941.957155,695.054404 942.052964,698.386429 C942.160312,700.842659 942.052964,702.967497 941.775792,703.698631 C941.211192,705.452977 924.321379,722.380893 922.232802,723.288803 C920.232855,724.158869 916.971145,724.139794 914.994616,723.246385 C914.035582,722.815054 911.488897,720.617095 907.930101,717.156202 C892.798192,702.44119 877.884909,691.775557 859.460436,682.492502 C836.667531,671.007985 814.092912,664.676601 787.097382,662.196952 C777.019442,661.271769 758.923252,661.697804 747.298429,663.134852 C725.091236,665.880821 703.860427,672.345101 683.72164,682.491864 C665.297167,691.774817 650.383885,702.440451 635.25206,717.155565 C631.693265,720.616355 629.144358,722.814315 628.188742,723.245637 C626.246143,724.122071 622.750167,724.130545 620.83432,723.266719 L620.822611,723.265588 Z" fill="#000000"></path>
        <path id="matter" d="M896.080068,755.757336 C861.274935,765.236175 830.073936,787.812258 810.608134,821.338781 C791.142332,854.865304 787.072448,893.04901 796.217718,927.757141 L830.322047,908.167541 C827.560723,890.960931 829.215186,873.339539 835.131911,856.938529 L914.827655,902.683665 L933.557831,891.91934 L933.557831,870.420987 L853.862086,824.68018 C865.19005,811.380241 879.711377,801.139175 896.080068,794.906239 L896.080068,755.757336 Z M648.025662,755.757336 L648.025662,794.905254 C664.396639,801.13637 678.919589,811.377452 690.247234,824.678446 L610.557771,870.42243 L610.557771,891.920242 L629.28954,902.684296 L708.979003,856.940311 C715.029935,873.68151 716.492606,891.296991 713.802335,908.168034 L747.896505,927.757141 C757.042554,893.045555 752.976676,854.867138 733.504865,821.341459 C714.84502,789.111065 684.114211,765.532779 648.025662,755.757336 L648.025662,755.757336 Z M772.053465,612.757499 L753.394501,623.573382 L753.394501,715.612895 C735.849958,712.42996 719.849127,704.831845 706.545455,694.011607 L672.557783,713.701392 C698.120086,739.086498 733.265542,754.757337 772.057801,754.757337 C810.850059,754.757337 845.995516,739.086498 871.557819,713.701392 L837.583155,694.011607 C824.022304,705.058211 807.903556,712.488225 790.721101,715.612895 L790.721101,623.573382 L772.053465,612.757499 Z" fill="#000000"></path>
        <path id="zigbee" d="M772.135743,601.000118 C726.36674,600.928975 682.587765,619.726463 651.094073,652.972286 C749.70293,640.668317 811.242161,644.774327 837.762606,648.191315 C890.466371,656.389274 887.741283,696.05727 887.741283,696.05727 L719.446025,869.747129 C751.739723,872.840698 816.327119,874.893703 913.236308,860.874209 C930.795665,833.794123 940.125632,802.194075 940.093958,769.909208 C940.093958,676.567783 864.943252,601.000118 772.135743,601.000118 Z M775.097312,662.011789 C740.643642,661.814844 693.960396,664.065638 635.047573,672.182564 C615.325623,699.895464 604.094092,733.755846 604.094092,770.359382 C604.094092,863.401577 678.947536,939.000118 771.836091,939.000118 C822.862946,939.000118 868.126437,916.070155 899.093974,880.169991 C796.674783,893.505946 733.038813,889.04656 705.810434,885.628167 C652.745316,877.750388 655.809739,837.742526 655.809739,837.742526 L823.889106,664.318853 C807.667769,662.822604 791.387376,662.057499 775.097312,662.025856 L775.097312,662.011789 Z" fill="#000000"></path>
    </g>
</svg>
