<svg height="960" viewBox="0 0 960 960" width="960" xmlns="http://www.w3.org/2000/svg"><path d="m364.403036 77.7514257 406.665978 10.2238961c4.442007.1116755 8.834364.9626978 12.996647 2.5181093l20.846022 7.7899921 87.732459 6.6965688c10.368593.791429 20.021429 5.589592 26.912318 13.377385l27.309217 30.863725c6.471103 7.313368 10.04336 16.741326 10.04336 26.506598v617.57756c0 10.941524-4.482062 21.405444-12.402217 28.954489l-27.309217 26.029602c-6.639514 6.32841-15.252272 10.182711-24.395172 10.917097l-90.786204 7.292233-12.306321 6.938935c-5.880572 3.315768-12.504696 5.089237-19.255332 5.155206l-410.08778 4.009416c-1.259477.010398-2.518833-.036789-3.773857-.143314l-51.706969-4.388821-97.671705.573725c-2.271838.013345-4.540683-.166884-6.781923-.538731l-137.7672523-22.85718c-8.7457577-1.451022-16.7616743-5.76635-22.7884331-12.268036l-25.7615134-27.791601c-6.85554299-7.395781-10.6646008-17.108096-10.6646008-27.192542v-628.892128c0-14.667293 8.0274712-28.158247 20.9182568-35.155185l63.1313607-34.2668204c5.219371-2.8330016 11.0040694-4.4682786 16.9341681-4.7871218l105.697101-5.6830083c.954462-.0513184 1.910456-.0684087 2.866142-.0512378l110.319811 1.9821227 36.540282-3.2466105c1.511162-.134267 3.028739-.1824526 4.545374-.1443232zm8.993504 40.2383653-3.42 724.514 24.975214-.243681c.794451-1.951118 1.177088-4.506714 1.177088-7.856305v-23.922464c0-5.522848 4.477152-10 10-10 5.522847 0 10 4.477152 10 10v23.922464c0 2.682628-.196862 5.238631-.588753 7.656141l14.906422-.146478c.503908-1.766991.748685-3.945426.748685-6.631719v-23.981204c0-5.522847 4.477152-10 10-10 5.522847 0 10 4.477153 10 10v23.981204c0 2.234438-.136026 4.381159-.407059 6.43334l15.02231-.146529c.302901-1.526115.451103-3.314511.451103-5.410355v-24.039843c0-5.522848 4.477153-10 10-10 5.522848 0 10 4.477152 10 10v24.039843c0 1.79568-.087497 3.534793-.261982 5.213818l15.080599-.147424c.166009-1.23988.247737-2.630891.247737-4.191426v-24.098383c0-5.522848 4.477153-10 10-10 5.522848 0 10 4.477152 10 10v24.098383c0 1.364339-.050307 2.696072-.150708 3.993661l130.808269-1.277645c1.373972-2.163878 2.036726-5.286092 2.036726-9.77977v-24.35213c0-5.522847 4.477152-10 10-10 5.522847 0 10 4.477153 10 10v24.35213c0 3.399978-.30701 6.598825-.918297 9.57334l14.601979-.143125c.93046-2.081718 1.382672-4.867557 1.382672-8.589074v-24.410136c0-5.522847 4.477153-10 10-10 5.522848 0 10 4.477153 10 10v24.410136c0 2.952205-.230554 5.752981-.689955 8.387223l14.835333-.144483c.618502-1.925877.920976-4.351568.920976-7.403042v-24.468042c0-5.522848 4.477153-10 10-10 5.522848 0 10 4.477152 10 10v24.468042c0 2.513608-.166478 4.917593-.498432 7.202681l14.974496-.146586c.395741-1.713238.590291-3.764311.590291-6.217841v-24.525849c0-5.522847 4.477152-10 10-10 5.522847 0 10 4.477153 10 10v24.525849c0 .317756-.00265.633763-.007948.948002l8.496234-4.791723 6.536-691.646-15.033634-5.617368c.006231.340477.009348.683035.009348 1.027649v24.525848c0 5.522848-4.477153 10-10 10-5.522848 0-10-4.477152-10-10v-24.525848c0-1.779403-.102386-3.347391-.309684-4.728555l-15.087405-.378344c.220309 1.896881.330734 3.871451.330734 5.918706v24.468042c0 5.522847-4.477152 10-10 10-5.522847 0-10-4.477153-10-10v-24.468042c0-2.557224-.212545-4.675523-.645592-6.428856l-14.983891-.376967c.375001 2.408749.563129 4.952133.563129 7.619033v24.410136c0 5.522847-4.477152 10-10 10-5.522847 0-10-4.477153-10-10v-24.410136c0-3.457281-.390497-6.108069-1.192316-8.137563l-14.741528-.370574c.577491 2.903489.86749 6.018164.86749 9.322751v24.35213c0 5.522847-4.477153 10-10 10-5.522848 0-10-4.477153-10-10v-24.35213c0-4.54386-.678027-7.687254-2.084065-9.856258l-130.627072-3.284736c.011231.448654.01685.901007.01685 1.357002v24.098383c0 5.522848-4.477152 10-10 10-5.522847 0-10-4.477152-10-10v-24.098383c0-.64896-.014139-1.268625-.042599-1.860317l-15.113858-.379329c.060034 1.013112.090103 2.046368.090103 3.099058v24.039844c0 5.522847-4.477152 10-10 10-5.522847 0-10-4.477153-10-10v-24.039844c0-1.319509-.058764-2.517246-.177912-3.604468l-15.114486-.379614c.150556 1.564441.226044 3.180368.226044 4.844962v23.981203c0 5.522848-4.477153 10-10 10-5.522848 0-10-4.477152-10-10v-23.981203c0-2.072026-.145683-3.842131-.443626-5.354499l-15.05308-.377498c.28652 2.100683.430352 4.301267.430352 6.594344v23.922464c0 5.522847-4.477153 10-10 10-5.522848 0-10-4.477153-10-10v-23.922464c0-2.93686-.294256-5.263811-.902406-7.108408zm-20.005.877-29.411683 3.315996-2.811729 716.247192 28.812412 3.096812zm-128.841.507-33.145699 40.128089v639.65326l23.750992 33.73226c1.221863 1.735346 1.814218 3.725069 1.82418 5.697832l84.188527-.494441 2.811471-715.986516c.001716-.437188.017526-.871335.047019-1.301982zm-170.7879996 679.746 15.4495134 16.667548 123.9194862 20.559452-17.285-24.548zm760.4649996-660.009-.920813 97.378986c.153287-.416961.311519-.831055.474619-1.242175.021147-.050186.041183-.100491.061294-.150752.356045-.89242.736164-1.770476 1.138432-2.633291.020562-.042837.04097-.086473.061434-.13007.062156-.133555.125087-.266063.188542-.398203.03504-.072031.070134-.14471.105388-.21728.038216-.079485.076911-.158574.115793-.237527.057579-.116255.115554-.232908.173944-.349269.05428-.108656.108855-.216397.163781-.323878.287489-.562473.585054-1.118964.892176-1.668145.029485-.052394.058781-.104541.088163-.156621.080835-.143692.162635-.287061.245089-.429917.049413-.085107.099142-.170651.149102-.256004.061076-.10492.122825-.209555.184928-.313906.033439-.055562.066742-.111259.100144-.166873.097238-.16258.195765-.324531.295147-.485776.017338-.027413.034481-.055161.051649-.082888.465404-.752481.949946-1.489559 1.452527-2.210162.027487-.03884.054787-.077868.08214-.116847.225499-.321818.454777-.640031.687603-.954846.137668-.186004.276604-.371089.416746-.554946.281093-.368548.567539-.732787.858853-1.09201.082325-.102329.164976-.203446.248005-.304153.041342-.04913.082511-.09881.123775-.148392 7.360466-8.852908 17.655902-14.495311 29.278226-14.69615 23.264167-.401674 41.297691 21.17135 41.297691 47.232518 0 25.960631-17.872416 47.868268-41.002485 48.151714-11.284921.138381-21.339463-4.876356-28.696026-13.046742-.032458-.037467-.06547-.074204-.098427-.111004-.097155-.107315-.193274-.215863-.288921-.324953-.035189-.040978-.070464-.081308-.105674-.12171-.092786-.10586-.18502-.212856-.276803-.320357-.064818-.07619-.129608-.152508-.194165-.229074-.053588-.063526-.107024-.127333-.160303-.191313-.088466-.106018-.176164-.212215-.26342-.318875-.084292-.10357-.168511-.207558-.252319-.311985-2.247719-2.797531-4.193346-5.904628-5.793923-9.25025-.004613-.011081-.009698-.021713-.01478-.032348-.194653-.406194-.383678-.816207-.567534-1.229608-.031264-.070961-.062438-.141445-.093463-.212031-.05749-.13031-.114263-.261061-.17052-.392142-.051515-.120269-.102866-.241129-.153782-.362273-.040733-.096907-.080952-.193501-.120892-.290268-.037324-.090249-.074327-.180576-.11109-.271057-.035796-.088476-.071348-.176746-.106668-.265156-.048516-.120863-.096407-.241998-.143867-.363402-.1657-.424905-.326363-.852921-.48164-1.283982-.06264-.172085-.123926-.344989-.18435-.518391l-1.846243 195.234932c.689551-3.351921 1.684749-6.57517 2.952256-9.623918.007216-.016042.014172-.03276.021137-.049474l-.021137.049474c.073293-.176292.147496-.352002.222604-.527119.059061-.13682.118568-.27399.178636-.410801.038122-.087477.076697-.174618.115497-.261608.253056-.567177.515799-1.128668.788008-1.683561.027985-.05658.056139-.113668.084393-.170685.067711-.137236.136029-.273605.204921-.409564.031794-.06199.063563-.124332.095452-.186585.518065-1.012652 1.068255-2.00196 1.649084-2.96623.034291-.05525.067879-.11075.101567-.166165.676134-1.114076 1.394409-2.194466 2.151776-3.237851.043724-.059147.08697-.118456.130339-.177642.112642-.154675.226517-.308017.341244-.46053.01148-.014489.022801-.029529.034131-.044561.265412-.352693.535746-.70068.810555-1.044096.195791-.244855.394223-.48787.594856-.728467.06238-.074109.124829-.148437.187494-.222535.072604-.086785.145842-.17282.219364-.258536.040945-.046569.081472-.093568.122087-.140471 7.361056-8.511831 17.538526-13.837325 28.994761-13.864296 23.197046-.053643 41.14827 21.68895 41.14827 47.699017 0 26.011236-17.953104 47.749883-41.151719 47.688297-11.455026-.03102-21.631296-5.359112-28.992171-13.871598-.055298-.065102-.110921-.129726-.166377-.194528-.070509-.081464-.140064-.163419-.209361-.245661-.05741-.068833-.11463-.137082-.171667-.205523-.070844-.084525-.141219-.16968-.21132-.255134-.061908-.07573-.123812-.151622-.185495-.227742-.150094-.185251-.298821-.371905-.446251-.559914-1.874228-2.388069-3.534521-4.991415-4.955038-7.767341-.050102-.098638-.100116-.197129-.149831-.295841-.057198-.11299-.113455-.225809-.169318-.338904-.034823-.070932-.069676-.141874-.104375-.212926-.055401-.113146-.110172-.226435-.164548-.339994-.039717-.083073-.079261-.16619-.118595-.249455-.181866-.385166-.359102-.77316-.531767-1.164098-.046434-.1044-.09218-.20886-.137602-.313533-.046693-.108543-.093225-.216867-.139408-.325409-.039439-.091546-.078248-.183443-.116808-.2755-.038772-.093898-.077766-.187829-.116498-.281919-1.365028-3.31254-2.40858-6.829021-3.088854-10.491229l-3.179375 336.382008 81.864281-6.574928 27.309216-26.029603v-617.57756l-27.309216-30.863725zm-642.823 27.466-127.9549996 2.963.00072 608.45516c.3414741.000404.6862035.01824 1.0332381.05428l126.9210415 13.18056zm679.838319 489.769966c23.128479.291442 40.999059 22.203023 40.999059 48.162499 0 26.062361-18.035457 47.631426-41.301168 47.221633-11.402177-.201004-21.527019-5.63912-28.856461-14.206591-.056148-.067053-.112599-.133359-.168879-.199848-.080395-.09376-.160047-.188721-.239359-.284055-.041998-.0515-.08427-.102492-.126442-.153588-.087387-.105025-.174127-.211161-.260448-.317744-.25705-.317855-.510146-.63871-.759392-.963363l-.01552-.020155c-.06757-.088159-.134862-.176603-.201874-.265329-.060786-.080379-.121208-.160876-.181396-.2416-.056159-.07553-.112059-.151004-.167758-.226676-.075716-.102554-.150703-.205257-.225315-.308313-.042229-.058737-.084668-.117658-.126987-.176695-.082687-.114873-.16459-.230181-.246025-.345919-.04035-.057908-.080996-.115961-.121527-.174124-.63477-.91015-1.240318-1.846459-1.815886-2.806994-.023284-.039475-.046791-.07882-.070249-.118207-.227576-.381602-.4501-.767048-.667827-1.156164-.002995-.005645-.006161-.011305-.009327-.016966-.106121-.189543-.210902-.379881-.314537-.571073-.036733-.067819-.073512-.136019-.110147-.20433-.070561-.13163-.140462-.263429-.20982-.395623-.046356-.088137-.092507-.176697-.138418-.265436-.058075-.112601-.115643-.224954-.172821-.337584-.039152-.076622-.077999-.153592-.116667-.230693-.053938-.108181-.107765-.216526-.161233-.325119-.391422-.793822-.763534-1.601419-1.115983-2.421742-.028896-.069538-.058379-.138614-.087722-.207776-.063116-.146295-.124849-.293605-.18595-.441313-.019412-.049643-.039559-.098588-.059636-.147574-1.960548-4.778095-3.258882-9.97035-3.770264-15.401794-.010423-.11757-.021116-.234907-.03144-.352344-.044645-.502106-.081992-1.006601-.112506-1.512966-.020274-.340837-.037767-.682499-.052126-1.024874-.001854-.040302-.003481-.080249-.005065-.120207-.006968-.179034-.013238-.358418-.018645-.53799-.003241-.10493-.006104-.210244-.008672-.315629-.011046-.454527-.016627-.909764-.016627-1.366066 0-.221722.001319-.443163.003949-.664311l-.003949.664311c0-.409955.004492-.818809.013424-1.226493.00161-.071258.003323-.142928.005174-.214565.003481-.137415.007509-.274185.012036-.410819.003755-.110186.007777-.221229.012129-.33219.013247-.341918.029709-.682278.049253-1.021733.009043-.152301.018497-.305097.028575-.457722.012796-.199033.026942-.397371.042139-.595383.025427-.325381.053356-.650675.084115-.975125.256121-2.711929.710008-5.359133 1.345327-7.920395.01306-.047468.024973-.095221.036951-.142946.235051-.941585.49597-1.871613.780651-2.788866.009724-.028061.018428-.056036.027154-.083999.048561-.158767.098893-.317308.149934-.475459.018333-.05395.035853-.107964.053457-.161933.200215-.616251.412067-1.226367.634461-1.830172.126256-.341613.255632-.681898.388376-1.020164.038079-.097632.076414-.194377.115022-.290949.055628-.13878.11174-.277455.168419-.415778.013808-.033844.027952-.068233.042131-.102599.169544-.411098.34396-.818821.523322-1.223308.006865-.014764.013536-.029777.020214-.044787.277569-.625049.567218-1.242218.868411-1.851205.023213-.04514.045762-.090532.068375-.135877 1.552045-3.115849 3.407743-6.015599 5.529945-8.640191.051208-.062805.102538-.125997.154019-.189024.090615-.111229.181854-.221735.273571-.331737.055982-.067156.111948-.133953.168085-.200559.062435-.073832.124979-.147467.187738-.220869 7.417623-8.686273 17.783706-14.064188 29.468652-13.916821zm-598.912857 73.17155c4.092832.073803 7.410728 4.184185 7.410728 9.18081s-3.317896 8.983091-7.410728 8.904006c-4.092833-.0791-7.410729-4.189517-7.410729-9.180859s3.317896-8.977774 7.410729-8.903957zm591.198696-51.429882c-7.506092 3.676979-13.078221 12.936295-13.509938 24.084081-.009897.248039-.016848.497166-.021255.747315-.003764.215622-.005706.431793-.005706.648604 0 11.868727 5.831531 22.084935 13.808251 26.196455 7.790956-3.795364 13.50184-13.673366 13.50184-25.48116 0-11.909905-5.822638-22.119615-13.773192-26.195295zm-598.224288-177.10971c.642991.001664 1.280092.02562 1.910889.071199.71877-.044278 1.444053-.065803 2.174902-.064038 19.603835.048214 35.171986 16.873888 35.171986 37.231966 0 20.390268-15.619321 37.134847-35.259213 37.011631-.703381-.004463-1.401568-.030461-2.094024-.077382-.658382.043049-1.324215.062995-1.996449.05855-17.771039-.118714-31.043267-17.228691-31.043267-37.213191 0-20.014869 13.320429-37.064081 31.135176-37.018735zm-137.964058 3.461386c2.864964-.071186 5.991878.073687 5.991878 4.153286l-.000238 42.225651c-.00578 4.727991-.151687 7.767298-3.825393 7.745792-2.545181-.015397-8.540409-.278468-17.9856817-.789059v-53.324924c6.2064711.012459 10.5298087.021135 12.9700117.026031l.399873.000803c.063571.000127.125605.000252.186102.000373l.344532.000691.158431.000318c.442568.000888.913615-.014887 1.396429-.028988zm139.578791 16.758755-.168138.031644c-7.036282 1.357891-12.581771 8.218697-12.581771 16.76695 0 8.658279 5.692585 15.665291 12.858457 17.002583 4.87661-1.246313 9.36033-7.900064 9.36033-16.808092 0-8.953915-4.541483-15.711238-9.468878-16.993085zm596.743846-67.586764c-7.677715 3.858106-13.350156 13.464805-13.658017 24.856603-.008822.323408-.013173.649019-.013173.976209 0 .216532.001906.432373.005694.647501.20668 11.536827 5.915305 21.294915 13.668266 25.193743 7.869777-3.933082 13.636131-13.974716 13.636131-25.83301 0-11.859253-5.76744-21.904607-13.638901-25.841046zm-598.13728-67.164932c.73376-.004383 1.459886.020301 2.177766.073063.531514-.028328 1.066808-.044049 1.605145-.047155 19.637571-.112114 35.253567 16.637771 35.253567 37.025955 0 20.3602-15.571514 37.180599-35.17774 37.217455-.71068.001317-1.416095-.019386-2.115691-.061482-.549595.034066-1.104369.05204-1.663598.053146-13.474673.026306-24.375921-9.729299-28.88679-23.148423-1.645391-4.292538-2.549134-8.976746-2.549134-13.869062 0-4.736368.846968-9.282522 2.394408-13.470807 4.403972-13.658896 15.366139-23.68957 28.962067-23.77269zm-139.945842 9.172343c3.153294-.018608 7.752363-.894567 7.752363 4.053031l-.000238 42.225653c-.00578 4.728037-.151687 7.768495-3.825393 7.775963-2.545181.004799-8.540409-.21086-17.9856817-.646727v-53.324924c7.2704376-.042928 11.9567537-.070589 14.0589497-.082996zm141.72339 11.032497-.17135.029244c-5.219713.92701-9.671561 4.861696-11.734577 10.261465-.586541 2.037108-.921286 4.299025-.921286 6.719737 0 2.5058.357917 4.835884.981818 6.918482 2.080258 5.273073 6.470052 9.077026 11.614192 9.946707 4.985006-1.173473 9.622777-7.978422 9.622777-17.034242 0-8.934123-4.504117-15.60768-9.391574-16.841393zm596.494014-177.518593c-7.708811 3.97057-13.413684 13.645119-13.786104 25.004762-.012963.392075-.019368.786555-.019368 1.183215 0 .238456.002307.476024.006891.712674.225478 11.45249 5.872122 21.020108 13.53277 24.775711 7.948866-4.072286 13.77043-14.278265 13.77043-26.187213 0-11.808752-5.711981-21.690465-13.504619-25.489149zm-645.631731-109.221616-91.583639 4.924999-44.7183606 24.271001 114.3729996-2.649z"/></svg>