<svg height="960" viewBox="0 0 960 960" width="960" xmlns="http://www.w3.org/2000/svg"><g fill="#000"><path d="m317.232704 246.053867 46.471605 9.601661c1.768927.365485 3.485933.842394 5.123792 1.459699.791896.211424 1.579796.435279 2.359504.683919 6.994133-.119595 13.959227 1.406444 20.33719 4.490865l13.216189 6.396275c9.231429 4.47133 16.467068 11.828697 20.814659 20.692891 2.475123 2.291564 4.865301 4.699561 7.171352 7.215002 4.083622-2.236638 8.236621-4.266549 12.448291-6.089919 9.76729-8.688464 22.48534-13.623497 35.83512-13.623497h17.880738c4.515368 0 8.993757.56614 13.328885 1.692247 5.333532.369524 10.648666 1.074338 15.929242 2.100778 2.898965.563502 5.772907 1.221103 8.617651 1.977544l49.760362 10.67682c1.772859.380393 3.492618.872705 5.131439 1.505997.885711.242069 1.766704.498931 2.638948.782399 7.062588-.124883 14.089598 1.426425 20.497172 4.561878l14.164311 6.9311c9.266546 4.53445 16.49707 11.999547 20.77353 20.972075 4.099007 3.811927 7.998967 7.897069 11.696573 12.228615l118.365102 21.190949c2.882585.302491 5.752939.734045 8.607043 1.288827 1.902933.369893 3.792261.793327 5.666561 1.270544l.164723.029739c3.563878.643418 6.926619 1.737897 10.012927 3.257813 17.68042 6.397589 33.132582 17.591028 45.78263 32.463221l20.247159 3.345114c4.612017.423493 9.180029 1.24833 13.678807 2.453545 32.703637 8.761248 55.480002 35.097518 66.887205 70.020198 10.62343 32.523188 10.800203 71.231432.624124 109.201862-10.175926 37.969859-29.686239 71.402823-55.149807 94.256881-23.0138 20.655341-49.965252 32.028651-77.506532 29.821206-4.207495.484552-8.5636.261933-12.921779-.712468l-13.514393-3.021549c-22.912352 12.544571-48.000033 17.175171-72.91376 12.332433-.170965-.033233-.341818-.066897-.510896-.107355-2.406087-.016983-4.843978-.275947-7.287147-.76904l-116.064808-23.424836c-27.760468 15.225838-58.089369 21.477852-88.211289 17.148902-9.358618 2.947603-19.397731 3.262595-29.022911.871222l-11.882324-2.966355c-32.479376-8.139103-42.51742-10.914137-48.782572-14.131508-7.220652-3.708052-12.525387-8.761484-16.616368-14.665328-9.682583-6.027433-18.678613-13.284856-26.872333-21.65648-4.791296-1.979036-9.163437-4.692362-12.999958-7.990778-23.696204 10.452498-48.939837 14.236493-73.976064 10.436914-9.317436 2.672674-19.229971 2.820218-28.702855.382219l-13.219958-3.40777c-29.484772-7.635147-38.955547-10.406885-44.787477-13.440257-7.019142-3.650127-12.200363-8.568934-16.198649-14.303525-9.276206-5.844277-17.901815-12.838312-25.765815-20.8773-3.390643-1.492672-6.576128-3.356868-9.509913-5.541048l-35.241242-7.113184c-3.459286-.698231-6.725029-1.824111-9.727024-3.351058-73.9703813-23.319026-115.2167378-108.335303-98.35866242-195.062583 16.49862482-84.878066 84.03797782-147.567302 159.71703842-144.283323 3.79973-.456691 7.730384-.357096 11.692466.352234l37.444494 6.703678c11.491987-6.379911 23.495188-11.199955 35.81381-14.311798 7.196322-3.498409 15.13713-5.370619 23.262919-5.443813l18.91022-.175118c8.615695-.071921 17.064046 1.875756 24.670755 5.672624zm345.860008 276.435664c-14.217959 73.156181 11.565349 140.300649 57.968352 154.264547l1.681607.480247.595538.157836.985575.247348.525868.124971.527516.120507c.132059.029607.264396.058773.396887.087517l1.317571.270941 1.697709.305607 1.194039.18599.844977.117106.842127.105016.693359.07768.79451.079303c.388377.036238.776807.06878 1.165272.097645l.908362.060801.921441.048036 1.173585.041386.300141.007036c.373588.007861.747171.01355 1.12072.01355h.449856l.702622-.006926.840488-.018334.703829-.023943.763658-.034813.783491-.045251.782893-.054835.691502-.056412.725028-.067173.589177-.060627.945788-.108628 1.268058-.169387.336-.048 1.42647-.224238 1.534739-.277898 1.463333-.298874.615084-.135494.869898-.201602.522136-.126618.455825-.11398.527611-.135938c.441558-.115565.882708-.235542 1.323421-.359902l.057483-.018456-33.904885-7.583256c-1.80011-.402663-3.488043-1.035871-5.026584-1.880669-22.35362-8.040357-38.499029-27.859657-47.193459-54.415765-9.237637-28.215271-9.394164-62.410972-.31841-96.197432 9.07474-33.782687 26.347196-63.312432 48.481794-83.13275 17.525222-15.692876 37.25836-24.660254 57.150028-24.565657l.655824.006405c.874501.012925 1.749265.043408 2.624118.091649 1.646405-.167984 3.340304-.111437 5.046028.170199l20.839355 3.437989-.717809-.498713-.824771-.558739-.848409-.556243-.928068-.588661-.455053-.280222c-.495207-.302814-.993663-.598814-1.495334-.887919l-1.026211-.579736-.036539-.01972c-.367954-.203084-.737594-.402495-1.108909-.598201l-.355706-.185559-.925-.471-.313877-.156389c-.565212-.277943-1.133871-.54747-1.706125-.808452l-.990448-.441912-.389554-.167808c-1.325914-.567062-2.671073-1.088666-4.034961-1.563554l-1.086035-.366885-.814172-.260621c-.876275-.273785-1.759993-.528528-2.651022-.763909l-.893462-.228915-1.422344-.334555-.890903-.19298c-.26483-.055087-.530269-.108495-.796312-.160216l-1.487878-.270465-.14961-.025129c-.590414-.098477-1.181052-.188184-1.77189-.269211l-1.136407-.145999-.525791-.059068-.775976-.080144c-48.351369-4.686079-97.581184 47.975804-111.828779 121.284471zm-181.026501-163.687002c-.527648-.426263-1.21578-.654785-1.944463-.586252l-4.474369.420814c-1.964258.184739-3.813393 1.009801-5.262885 2.348238l-8.667871 8.003771c-1.845077 1.703714-2.894384 4.100856-2.894384 6.61222v3.238705c0 .788986.311331 1.546102.866355 2.106859.090588.091523.185617.175981.282974.25183-20.158079 24.600492-35.605772 56.685703-43.074878 93.233971l-.34123 1.702744-.224152-.024157c-.531085-.040863-1.079362.032397-1.609889.235382-.553221.211668-1.0478.552568-1.445779.997955-2.639079 2.953455-4.289188 6.657824-4.719594 10.595131l-1.013595 9.272257c-.322675 2.951787.400086 5.923257 2.042451 8.39708l.459456.692151c.615653.927333 1.480893 1.589566 2.443238 1.957484-2.035874 36.052691 4.61953 69.838851 18.023468 97.237432l1.116267 19.426057c.248563 4.335457 3.266801 8.014959 7.469947 9.106535l12.58973 3.271462c14.030992 15.624545 31.31179 26.745078 51.048814 31.678209l1.262616.306339 1.001705.229971.807112.176961.473325.10034c.442153.092549.88548.182033 1.329973.268433.586062.113919 1.172252.22211 1.758537.324604l1.120721.188978c.420157.068245.840352.133576 1.260572.196004.749272.111308 1.498474.21337 2.247636.306265l1.188332.139683.767449.082071c.48236.049582.9647.095389 1.447.137439l.529891.044688.623114.048694.737151.052239.816549.051074 1.0409.054786.644224.028133.833533.029859c.838751.026292 1.672135.041362 2.505099.04593h.826665c1.10986-.004205 2.218917-.027854 3.32694-.070733l.252333-.010104c.749493-.030983 1.498505-.07076 2.246965-.119264l.821772-.056774.563632-.043013 1.093645-.092885.698375-.065836.966621-.099483.972802-.109921c.502398-.059309 1.004906-.122568 1.507067-.189709l.422882-.057462c.597549-.082519 1.194597-.170529 1.791108-.263998.361154-.056595.7225-.11525 1.083641-.175903l.811539-.139712.821693-.148436.460598-.086279c.292261-.055443.584376-.112191.876341-.17024l.92011-.187339 1.034372-.221135.742744-.165666 1.294519-.302496c.410108-.098605.819878-.199764 1.229295-.303467l.994041-.256953.810297-.218818-33.671456-6.909702c-60.162774-11.696237-93.281415-91.520833-76.60827-177.309773 16.506479-84.93139 76.07149-146.159181 135.637607-136.026282l1.631771.296855 42.020348 7.402902-.975602-.870859-.826206-.721934-.549415-.472016-.485698-.411855c-.393083-.331543-.788088-.65997-1.185002-.985256l-.449784-.366605c-.411576-.333633-.825186-.663901-1.240815-.990775l-.857998-.667742c.025933-.166592.039392-.337312.039392-.511176v-2.161357c0-1.909302-1.087346-3.651927-2.802331-4.49113l-14.164311-6.9311c-.643024-.314655-1.342194-.485726-2.049675-.506683l-.265601-.000809-.265821.01334c-.177162.013627-.354095.036738-.530054.069435l-4.063571.751601-1.078048-.418294-.399666-.151241-.846794-.313544-.445-.162-1.180134-.414462-.492092-.16795-1.137774-.376588-.786-.251-.575-.179-1.037-.313-1.152-.331-.719-.199-.834-.223-1.290965-.329276c-1.541727-.381667-3.098399-.72561-4.669638-1.031027-31.871383-6.19517-64.122089 4.550352-91.329444 27.22856zm-21.012027 129.028889c-14.668631 75.475042 13.017284 143.313649 59.381683 153.568637l1.512634.313453 61.224786 12.565087c.614683-.383499 1.227545-.772816 1.838534-1.167904.474768-.306999.947993-.617214 1.420064-.930884l.910425-.61019.944429-.644135 2.702519.54579 75.463 14.655 6.27056 1.220812c-28.748871-33.807894-40.636887-90.149455-29.262758-148.673174 11.270323-57.989607 42.914787-105.436065 81.743311-126.31467-41.089288-7.206849-62.944803-11.041233-65.566546-11.503152-18.759159-3.305132-46.897898-8.26283-84.416217-14.873094l-.173219-.032094c-47.210836-9.178253-99.176473 45.643444-113.993205 121.880518zm-29.136066 164.909978.023094.055678c1.227429 3.08442 2.570389 5.001122 4.02888 5.750107l.080855.040029.274486.121624.251111.100564.58395.21429.922022.310101 1.528964.478034 1.04042.310986.818054.239191 2.053777.585926 1.575473.439223 1.741061.477897 1.942841.526041c-2.586124-2.261254-5.102314-4.64299-7.544697-7.141775l-7.168446-1.862733c-.729486-.189451-1.447075-.404886-2.151845-.645183zm349.46446-223.720571-.074058.306156c-1.683055-.1992-3.37107-.299828-5.061375-.306156h-.563516c-14.841296.132853-29.83609 7.517961-43.177158 19.464156-18.661279 16.710152-34.217841 42.55869-42.508283 73.421657s-7.774739 61.007284.010378 84.786003c6.927253 21.158475 19.614911 37.475514 37.647935 42.716433l-.069267.285276 42.272069 9.457022c-5.966944-8.342017-10.781035-18.152449-14.354759-29.093255-9.367854-28.679298-9.526652-63.451521-.317339-97.81462 9.209238-34.362813 26.735887-64.396563 49.190424-84.549954l4.304825-3.693753c3.866002-3.167305 7.823862-6.012799 11.852308-8.514848zm33.905186 50.389219c-13.784028 15.696506-24.748696 36.814125-31.123153 60.599401-7.759166 28.952102-7.62733 57.820293-.142838 80.733756.835691 2.558435 1.755279 5.019314 2.76252 7.361468 9.37748-.759057 18.945031-4.565386 27.912861-11.034159 6.414294-4.626829 12.219918-10.413991 17.213218-17.116278 5.550154-12.969994 9.93822-27.124165 12.857578-42.145241l.542449-2.895299.389859-2.23442.795-5.044.301331-2.147392.328669-2.563608.008-.075-.001.023.072979-.59509.423021-3.84591.294-3.147.048-.588-.003.059.233-3.08.236-4.045.079-1.775.076096-2.202967.026741-1.016648.006754-.422372c-1.144212-4.918369-2.723959-9.643163-4.726579-14.100271-6.387002-14.215159-16.341666-24.310089-28.610506-28.70297zm-418.699888 136.490857c.109909 1.003845.068411 2.041533-.143643 3.084134-.269034 1.322748-.787696 2.53098-1.496909 3.585587l1.557755.454976.289179.338674 14.89184 3.108632-.02583-.403349-.40901-7.108283zm-112.315835 3.240331.602835.145512.604389.14155 1.236983.276266 1.113682.233411.964845.191393.928044.173871 1.000466.176341.887075.146536 1.134287.174301.873525.124271.730125.097123 1.167084.142576c.500261.057837 1.000503.11142 1.500703.160768l.730694.069165 1.363938.112904.201916.014852c1.028884.07497 2.057446.132148 3.085487.171712l.375094.013739c.302049.010368.604052.019216.906002.026551l.523849.011123.623082.009382.900808.0061h.858994l1.020441-.016371.782341-.018206 1.179076-.040113c1.425644-.057705 2.849392-.148696 4.270712-.272487l.897417-.082548.986687-.100879 1.216777-.138902.833347-.104485 1.078771-.146474.765542-.111622 1.049829-.163528.905885-.150668.754791-.13236 1.260077-.234793.735833-.145114 1.053037-.217585 1.110956-.243326.658791-.150946.720747-.169664.898187-.21995c.598401-.149485 1.196013-.304669 1.792794-.465512l1.031255-.283896 1.063342-.304835.748434-.222217 1.158225-.355346-.423635.131383c.663172-.204977 1.3252-.41693 1.986028-.635806l.757151-.25337c-2.264151-1.25116-4.466217-2.629742-6.604005-4.129389-.997629.105631-2.030517.063537-3.068272-.147532-5.301958-1.078365-10.366512-2.766467-15.174645-5.009144l-9.632007-1.924605c-56.801667-11.280184-88.168046-85.129662-72.558297-164.108938 15.453941-78.306869 71.553056-135.027515 127.738327-125.938447l45.159479 7.806042c-.329204-.348241-.660165-.693932-.992871-1.037051l-.484411-.496497-.936911-.943061-1.128629-1.106621-1.112339-1.060051-.71718-.667792-.726307-.664024-1.02446-.915677-.500016-.438913-.757136-.653524-.660952-.560302-.918763-.76334-.825446-.670695-.684768-.545725-1.055078-.822258c.025339-.161543.038492-.327027.038492-.495478v-1.825107c0-2.007827-1.142996-3.83276-2.948293-4.707172l-13.204903-6.390811c-.598558-.289466-1.24357-.461058-1.900394-.510326l-.282119-.013612-.282959.001444c-.283177.008998-.566706.040698-.84786.09545l-3.735082.724731-1.046089-.39904-1.166634-.427322-.56128-.199553-1.108532-.381225-.990202-.326884-.831986-.265338-.835-.257-.665-.198-1.097-.314-.778-.215-.793717-.209626-.545107-.140101c-1.836928-.465959-3.696282-.875456-5.577359-1.227016-30.628576-5.712819-61.621831 4.881521-87.768665 26.859855-.509673-.402357-1.17329-.61487-1.875691-.544028l-3.990791.402407c-2.087958.210473-4.052063 1.097474-5.587127 2.523035l-7.860247 7.295944c-1.934041 1.794271-3.032533 4.298455-3.032533 6.913419v2.783176c0 .756266.303171 1.479889.842986 2.012105.086206.084996.176526.163432.270007.233937-19.356019 23.653618-34.194209 54.395511-41.382646 89.345125l-.352389 1.747253-.244044-.024464c-.496616-.033185-1.008353.03651-1.50426.222796-.538248.202181-1.018911.530207-1.400756.955933-2.539115 2.830469-4.124754 6.368869-4.537401 10.125801l-.977022 8.894627c-.30951 2.817528.384984 5.65381 1.964123 8.021761l.438518.657726c.590565.885708 1.424225 1.518645 2.352568 1.870127-1.958063 34.487666 4.438121 66.835413 17.321009 93.126599l1.03666 17.985415c.260398 4.527122 3.442807 8.393101 7.879849 9.572758l11.43741 3.045094c13.456282 15.053454 30.022483 25.849622 48.940769 30.767586zm-68.75412-15.400444.039856.091051c1.055043 2.341802 2.194818 3.831152 3.419325 4.467926l.15561.075817c1.128476.520393 4.538708 1.57864 10.230704 3.175883-1.97721-1.793162-3.911347-3.659262-5.799891-5.596972l-6.055102-1.612109c-.673667-.179105-1.337407-.37992-1.990502-.601596zm143.975454-83.96785c1.240259 26.193758 7.145822 50.603287 16.893384 71.482148l28.956433 6.042547c-8.226953-22.016791-12.700031-46.471635-13.099127-71.932995zm-185.339883 51.981094.306766.15724.438.204.227.096.34512.135297.33088.115703.159019.052873 5.0893 1.516048c5.691598 6.715784 11.977429 12.647865 18.795947 17.663515-2.925269-4.397086-4.726919-9.572617-5.04501-15.102762l-.344343-5.991984c-.272151-.043254-.544722-.098035-.81717-.164673l-24.910068-6.09291c.09742.54429.237465 1.075181.416915 1.588896l.155493.41626.104888.253633.201029.440104.18451.361973.27249.479027.050084.082194c.118263.191794.242635.379667.37288.563341.149285.210524.30625.415491.470572.61453l.15695.185719.313514.346216.312.317.381337.353306.276603.23569.234787.187743c.193412.15023.3924.294097.596668.431252l.234316.152911.278186.170474zm191.90519-206.837839-.315856.198162c-26.46194 16.655638-49.523716 53.276107-58.116558 99.531438-9.913506 53.364473 2.628144 102.495976 27.56839 125.941323-20.087987-31.028862-27.95391-77.737306-18.896619-126.492766 7.683654-41.361167 26.152288-76.626172 49.760643-99.178157zm1.949666 27.696315-.549267.712383c-14.508153 19.018402-25.982655 44.7361-31.497463 74.422358-7.640385 41.128244-1.942731 79.742165 12.489195 106.020765-6.474332-21.507972-9.582928-44.981928-9.027708-69.222435l-.032238-.060856-.028811-.062979c-2.492913-5.604868-3.455113-11.770519-2.788518-17.868454l1.245037-11.389465c.672764-6.154373 2.801035-12.060157 6.208795-17.228918l.605143-.917858c.113919-.172788.230054-.343846.360642-.503049 4.821387-22.832978 12.642754-44.406982 23.015193-63.901492zm-6.120549-48.38092-.943115.123322c-35.716209 4.954933-71.270462 48.772276-82.428331 108.835168-8.619674 46.399768-.263041 89.59937 18.45931 115.496748-12.540049-29.627133-16.390345-67.981488-9.012974-107.693932 10.152786-54.652524 39.135741-98.661377 73.92511-116.761306zm-39.827225-4.938886-.960399.406592c-32.310284 13.962755-61.474702 53.870622-71.637615 105.367252-9.320562 47.158428-.053064 91.122411 20.657516 117.199932-14.313114-30.244683-19.069986-70.727394-11.267302-112.729298 9.090208-48.932656 33.275354-89.332965 63.2078-110.244478zm-277.0744851 65.879041c-13.7316418 70.643173 20.4752247 137.089588 76.8170381 151.117755l-.082337.454254 26.575468 5.36352-.160333-1.33582c-15.589671-28.502061-23.535579-63.250841-22.729719-99.787972-2.445791-5.489716-3.38815-11.526513-2.730325-17.499553l1.156515-10.501925c.69131-6.278047 2.878163-12.299038 6.373904-17.567132l.369645-.557119c.081287-.122517.163692-.244146.257302-.35646 6.909614-32.397001 20.161246-62.189493 38.321818-86.816868.235191-7.830292 3.630521-15.230926 9.389876-20.562313l7.856639-7.276569c1.288202-1.193681 2.67324-2.264008 4.136504-3.202213l-20.456689-3.661057-.092545.504227c-56.513064-6.144688-111.4958422 42.198171-125.0027611 111.685245zm511.8799701 69.598364c17.543218 1.844147 28.645233 20.419224 26.535317 40.496793-2.109938 20.077772-16.8311 35.938742-34.374628 34.094562l-3.212218-.538125c-15.667144-3.633776-25.301146-21.135946-23.323099-39.958668 2.109938-20.077772 16.8311-35.938741 34.374628-34.094562zm-411.511297-2.511083c.829284 25.12849 6.173549 48.640071 15.241679 68.879285l.325022.719163c.172456.032769.345.070206.517494.112397l26.881926 6.574773c-8.17439-22.349979-12.348375-47.21712-12.168604-73.021827-.432263.010546-.870858-.007966-1.313055-.056082zm397.02714 38.6959c-1.064852 10.132931 3.624518 17.978842 8.73573 18.516133l.969734.016865c4.898232-.330387 10.42526-6.811844 11.423539-16.311277 1.064852-10.132931-3.624519-17.978841-8.73573-18.516133-5.110902-.537259-11.328442 6.161684-12.393273 16.294412zm-182.222502-41.098411c-1.331162 2.291012-2.17047 4.838825-2.459262 7.480662l-1.245037 11.389465c-.282302 2.582468.125188 5.193614 1.180934 7.567269.406965.914988 1.077796 1.630235 1.879915 2.096032l-.050692 1.087331 28.515395 4.870401c-.548104-3.04912-.661448-6.183356-.319766-9.309025l1.013596-9.272258c.399782-3.657162 1.312228-7.216415 2.693452-10.579241zm34.679539-83.513652c-12.13334 18.653377-21.807212 40.416085-28.019625 64.361722l33.827605 5.77572c6.242536-23.979581 15.84667-46.340551 28.234509-66.066041zm-248.617194 41.182564-.122808.211802c-1.285753 2.294109-2.098932 4.820492-2.386703 7.433851l-1.156534 10.502096c-.232863 2.114392.023367 4.248553.743745 6.244151l28.283261 3.076803c.003423-1.130762.066868-2.2651.191366-3.398426l.977005-8.894468c.435634-3.966216 1.490007-7.81341 3.103144-11.411605l-26.46984-2.880464c-1.127212-.122654-2.190194-.428145-3.162636-.88374zm718.841243 15.310553c-3.339847-.221459-6.694197-.069033-10.043001.427335l-1.03731.163472.068581.155487-1.404473.387724c-3.447272.961018-6.133725 1.78584-8.059357 2.474464l-.283138.102272c-2.209485.806364-5.249156 2.117597-9.119014 3.933699l-.095639-.209785-.041239-.084207c-4.939083 2.676221-9.771956 6.009575-14.427954 9.894523l.245617.074794c7.72132 2.593237 14.744063 6.648356 20.935594 11.931055l1.079084 1.075024c7.623702 7.646642 12.888162 14.052765 15.792918 19.219018 2.93212 5.214922 6.263081 14.13486 9.992885 26.759817l-.003608.265878-.004652.786938c3.426161 16.626447 2.867733 34.688609-1.888205 52.438008-3.684362 13.750227-9.64566 26.403969-17.39194 37.305367l-.028297.063454c-7.277506 9.637789-14.12811 16.840458-20.551813 21.608008-6.43286 4.774346-15.076974 9.272973-25.932341 13.495879l-.161615.184151c-5.281397 1.625954-10.652947 2.616365-16.044239 2.923501 2.060432 2.794866 4.290094 5.363607 6.686369 7.672733l.01571-.013447c2.330137 2.196022 5.031104 4.240454 8.1029 6.133295 3.082218 1.899263 6.290588 3.493582 9.625109 4.782956l-.057865-.021305-.053148.051983c.902643.304631 1.820594.583067 2.752284.832665 1.718744.460449 3.446081.812534 5.179179 1.060485.457811.065493.915802.123699 1.374067.174715l.78949.080771 1.243052.098537.513722.030591c.563363.030319 1.127106.050057 1.691133.059359l.540789.005724h.540943l.87947-.015196.577061-.018583.151161-.007865.046668-.000145.021332-.002855.472-.021.723527-.043712.491473-.036288.633879-.054018.937937-.095508.45249-.052614.870136-.113069.820558-.121791.604-.097.56-.098.951-.179.458-.094.568704-.12059.605869-.136569.841456-.201847.856728-.22c.596971-.158377 1.193393-.327215 1.78915-.506341l.055093-.018653.010148-.001005.632354-.194877.566493-.181256c.637376-.207479 1.273896-.426635 1.909418-.657256.424323-.153981.848195-.31307 1.271578-.477207l.928685-.368427c.320461-.130028.64051-.262885.960244-.398588l.73375-.316653c.418144-.183432.835807-.371751 1.252863-.564857l.78742-.370617.551058-.266535.850057-.422735.797198-.409228 1.178734-.628759.041-.024-.009.007.930733-.514905 1.096267-.630095.105-.063-.026154.018051.813849-.483423c.270916-.163095.541461-.328139.811623-.495112.446899-.276205.892759-.557698 1.337517-.844391l.842799-.550359.430855-.286841.794511-.539925.705612-.487911.342388-.242089.986392-.706422c.686307-.499201 1.369486-1.010586 2.049328-1.533843l.729557-.567076.379723-.302659-.054.045.438991-.348729.905774-.734243.769918-.637876.745156-.629512.47635-.408736c.35497-.306428.708856-.616051 1.061626-.92882l.490885-.437897c18.978571-17.033644 34.799637-43.382585 43.231039-74.843028 8.431402-31.460444 7.906931-62.188325-.010554-86.427377-7.163162-21.929724-20.382778-38.757398-39.215161-43.802561l-.954128-.244294-.775235-.181961-.776042-.167482-.678619-.134484-.654183-.119351-.483817-.081649-.680879-.105683c-.281098-.041372-.562351-.079999-.843745-.1159l-.327376-.040417-.914-.1-.96515-.085331zm-685.660543-94.981557-.100263.155687c-11.471476 17.646211-20.643912 38.142282-26.595901 60.642829l32.212513 3.504177c5.90608-21.697626 14.694922-41.997576 25.895528-60.076973l-27.587545-3.001156c-1.388654-.151102-2.679827-.57969-3.824332-1.224564zm266.830464 3.063259c-.029425.214806-.065966.430077-.109793.645558-1.100754 5.41204-6.380418 8.907028-11.792459 7.806273-9.440934-1.920191-19.130381-.805732-28.601705 2.907886-.549755 1.180841-.843032 2.476609-.843032 3.804302l-.000662 1.319573 34.228888 4.094629c.938041-6.560441 4.104767-12.648642 9.034441-17.200623l2.980671-2.753006zm52.658235-34.036917h-17.880738c-4.539015 0-8.796339 2.200547-11.421341 5.903521l-1.030244 1.44674-1.144107.413908-1.144091.427996-1.112724.429834-.982245.390603-.808396.327907-1.137603.477029-.985822.42364-.989653.436075-1.155477.522893-1.218713.567664-.820732.390699-1.146.56-.993068.497613-.994101.508796-.837403.437424-.888806.47313 27.454672 3.507916c.163679.020909.325925.045665.48666.074164 9.782227-6.872487 19.999384-12.417518 30.482568-16.542152-1.903359-.162702-3.806173-.266664-5.707093-.312377-1.869073-.891173-3.926059-1.363023-6.025543-1.363023zm-293.634886-4.846491.326134-.037566c-2.087959.210944-4.052064 1.096503-5.587128 2.518932l-7.860247 7.279912c-1.934041 1.790326-3.032759 4.288204-3.032759 6.896011v.908711l30.203429 3.286475c.672409.073166 1.321963.211393 1.943076.407733.947911-6.629141 4.15142-12.775955 9.11763-17.383264l.708865-.658944-25.793846-3.212059zm47.843-25.195-.074173.026871-.737827.248129-1.212.422-1.295.469-1.001588.375574-.984023.379623-1.383242.551995-1.32029.546982-1.287477.552414-1.251383.555036-.887997.404376-1.282298.600893-1.713702.830107-1.266.637-1.146.593-1.111.59-.53276.289911.03776-.022911-.967.534 20.676838 2.576216c1.439789.179359 2.769762.656427 3.93587 1.361774 10.927823-8.099107 22.449613-14.473947 34.307652-18.976773l-18.590319.170238c-3.293098.029663-6.445996 1.14343-8.996904 3.099845-.64893.131658-1.2971.269971-1.944457.414888l-.760633.173398-.843386.199573-1.234661.305841-.872804.226507c-.633567.167276-1.266253.340853-1.898006.520684l-.695763.200688-1.125427.335121-1.33.415z"/><path d="m823.589424 523.959725c6.220764-5.744847 13.389275-8.745216 20.149618-6.934132 6.760342 1.811084 11.467986 7.993055 13.982356 16.07803 2.779148 8.93637 2.880259 20.292115-.242482 31.944132-3.122742 11.652016-8.889258 21.435834-15.765105 27.785647-6.220764 5.744848-13.389275 8.745217-20.149618 6.934132-6.760342-1.811084-11.467986-7.993054-13.982356-16.078029-2.779148-8.93637-2.88026-20.292116.242482-31.944132 3.122741-11.652016 8.889258-21.435834 15.765105-27.785648z" fill-rule="evenodd"/></g></svg>