<svg height="960" viewBox="0 0 960 960" width="960" xmlns="http://www.w3.org/2000/svg"><path d="m103.741337 158.995779.382663.015594.535033-.015594h.556561l.556525.011091 790.457377 14.651845c.370203.006862.740293.018864 1.110162.036002 19.197378.889539 35.820849 10.928221 46.746201 26.238259 9.141119 12.809736 13.914141 28.748004 13.914141 45.262372v468.515827c0 16.561096-4.799759 32.545864-13.981335 45.381402-10.971883 15.33833-27.657541 25.377667-46.909096 26.216706-.35014.01526-.700465.025917-1.050885.03197l-790.457377 13.652782c-.345459.008218-.69098.008218-1.036477.008218l-.53383-.01388-.563937.01388c-.912795.007255-1.832371-.014292-2.757681-.067747l-.695041-.046089-36.9999999-2.76946c-3.7610361-.281514-7.3682422-1.076868-10.7549813-2.314155l-.3933598-.147429-.7345531-.204092c-28.1445697-8.084348-48.67113746-34.304573-49.1314469-64.209381v-498.335401c0-1.956769.08741755-3.913305.26118686-5.862115 2.54738025-28.582358 23.14707924-52.634326 50.24342494-59.847424l.1063882-.027587.4230189-.148536c2.6141101-.893953 5.3555436-1.527288 8.195258-1.867738l.6100039-.068459 37-3.869657c1.6509322-.172663 3.2869472-.242706 4.9020562-.221204zm1.595868 40.435594c-13.6186516.12663-25.6699804 11.742405-26.9173965 25.921294-.0687812.781435-.1032256 1.562398-.1032256 2.340477v503.621264c0 12.945911 9.3308547 24.566665 21.4316359 27.44294l3.2517812.242652v-.095627l.306772.02731c.356891.027276.713573.046498 1.069797.057648l.53396.010669 790.457378-13.652782c12.760963-.55616 22.566537-14.209272 22.631766-31.46281l.000327-468.257687c0-17.272813-9.756187-30.952624-22.503329-31.543504zm-40.3589953 3.942256-.1169336.02003c-11.8340295 2.1329-21.6392808 12.65113-22.7580116 25.203619-.0688071.771667-.1032645 1.542868-.1032645 2.311221v497.325999c0 13.328338 10.146066 25.234291 23.000341 27.415144-4.2445881-7.222606-6.6837581-15.580451-6.6837581-24.335234v-503.621264c0-1.364659.060249-2.730705.1801787-4.093247.6414081-7.290634 2.9341566-14.167111 6.4814481-20.226268zm72.9186723 23.625327.27868.001011 745 13.082925c5.453566.095759 9.824438 4.544052 9.824438 9.998459v462.322318c0 5.467387-4.390947 9.921232-9.857782 9.998989l-745 10.597364c-5.577907.078303-10.142218-4.421551-10.142218-10.000022v-486c0-5.498345 4.43333-9.946153 9.896882-10.001044zm10.102972 20.178476v465.679l725-10.312v-442.637z"/></svg>