<?xml version="1.0" encoding="UTF-8"?>
<svg width="960" height="960" version="1.1" viewBox="0 0 960 960" xmlns="http://www.w3.org/2000/svg">
 <path d="m491.74 5.7872 247.3 4.4985c26.711 0.48502 48.11 22.277 48.11 48.992v834.38c0 26.208-20.622 47.776-46.803 48.951l-246.82 11.077c-4.4332 0.19894-8.8728-0.20524-13.197-1.2015l-306.34-70.574c-22.241-5.1239-38-24.925-38-47.749l-3.3e-4 -296.33 7.7e-4 -159.61-4.4e-4 -294.48c0-25.273 19.222-46.401 44.383-48.782l305.86-28.946c1.22-0.11546 2.4437-0.18509 3.6686-0.21796zm6.9123 40.139c-4.4176-0.07887-8.0637 3.4372-8.1452 7.8548v851.63c0 4.4183 3.5817 8 8 8l0.1783-2e-4 236.71-10.623 3.169-0.142 0.25284-0.0149c4.684-0.34467 8.3352-4.2493 8.3352-8.9755v-834.38c0-4.9035-3.9252-8.904-8.8266-8.9983zm-27.428 1.6782-287.08 27.169c-4.6214 0.43737-8.152 4.3179-8.152 8.96v750.43c0 4.1922 2.8944 7.8292 6.9795 8.7703l287.8 66.302c-0.17033-1.2488-0.25833-2.5239-0.25833-3.8194v-851.49c0-0.25418 0-0.25418 5e-3 -0.50834 0.0363-1.9972 0.28079-3.9418 0.71249-5.8134zm150.28 702.48c32.102 0 57.705 28.263 57.705 62.661s-25.603 62.661-57.705 62.661c-32.102 0-57.705-28.263-57.705-62.661s25.603-62.661 57.705-62.661zm0 20c-20.591 0-37.705 18.892-37.705 42.661s17.114 42.661 37.705 42.661c20.591 0 37.705-18.892 37.705-42.661s-17.114-42.661-37.705-42.661zm-343.6-112.82c20.817 1.091 37.584 16.933 46.498 39.698 0.0602 0.15719 0.1212 0.31384 0.18177 0.47078 0.0628 0.16014 0.12431 0.32126 0.18547 0.48271 0.23597 0.62373 0.4664 1.2515 0.69075 1.8836 0.026 0.0747 0.0525 0.14976 0.0789 0.22487 3.2386 9.1976 5.1897 19.316 5.7217 29.853 8e-3 0.1731 0.0168 0.34717 0.0248 0.52137 0.0155 0.33117 0.0293 0.66201 0.0417 0.99324 2e-3 0.0656 5e-3 0.13064 7e-3 0.19568 0.0127 0.34752 0.0236 0.69625 0.0329 1.0454 1e-3 0.0519 3e-3 0.10328 4e-3 0.15471l-4e-3 -0.15471c0.0117 0.43519 0.0209 0.87101 0.0278 1.3074 1e-3 0.0699 2e-3 0.13993 3e-3 0.20999 0.017 1.2169 0.0151 2.4384-6e-3 3.6638-3e-3 0.14891-5e-3 0.29829-8e-3 0.44776-0.0157 0.75271-0.0385 1.5064-0.0684 2.2612-5e-3 0.12083-0.01 0.24214-0.015 0.36349-0.0164 0.38422-0.0347 0.76811-0.0548 1.1523-0.0215 0.40981-0.045 0.81908-0.0706 1.2278l0.0706-1.2278c-0.0258 0.49157-0.0545 0.9821-0.0862 1.4716-0.0524 0.80917-0.11282 1.6159-0.18129 2.4202-6e-3 0.0697-0.012 0.1401-0.0182 0.21045-0.0291 0.33522-0.0596 0.66949-0.0914 1.0033-9e-3 0.0982-0.0189 0.1958-0.0285 0.29339-0.0327 0.33465-0.0669 0.66928-0.10251 1.0034-0.0162 0.15079-0.0326 0.30143-0.0492 0.45196-0.0344 0.31317-0.0702 0.6255-0.10715 0.9374-9e-3 0.0705-0.0171 0.14144-0.0256 0.2124-1.3872 11.526-4.4318 22.46-8.9068 32.179-0.0129 0.0267-0.0251 0.0534-0.0374 0.08-0.12873 0.28009-0.25918 0.55911-0.39081 0.8371-0.0433 0.0915-0.0867 0.18297-0.1303 0.27436-0.029 0.0604-0.058 0.1209-0.087 0.18129-11.102 23.159-30.043 38.312-51.668 37.179-32.894-1.7239-55.673-40.278-53.341-84.774 2.332-44.496 29.016-80.458 61.91-78.734zm-41.937 79.781c-1.8226 34.776 14.688 62.721 34.415 63.755 9.4683 0.49621 18.848-5.2505 26.244-15.207-6.5809-14.361-9.7048-31.661-8.7649-49.595 0.84001-16.028 4.8533-31.228 11.49-44.051-6.0958-8.8272-13.996-14.266-22.494-14.711-19.727-1.0338-39.068 25.032-40.891 59.809zm74.19-16.682-0.12591 0.55166c-1.1589 5.1632-1.906 10.574-2.1971 16.13-0.36428 6.9507 6e-3 13.745 1.0397 20.171l0.0754 0.45885 0.15972-0.69955c1.003-4.503 1.6931-9.1937 2.041-14.004 0.0116-0.15816 0.0227-0.31673 0.0334-0.47549l-0.0334 0.47549c0.0278-0.38441 0.0534-0.76958 0.0768-1.1555l0.0466-0.82449c0.0754-1.438 0.11929-2.8694 0.13241-4.2922 2e-3 -0.097 3e-3 -0.19369 3e-3 -0.29035l-3e-3 0.29035c0.0503-5.454-0.35217-10.782-1.172-15.879zm222.15-85.427c6.5091 0 11.786 5.8249 11.786 13.01 0 7.1854-5.2767 13.01-11.786 13.01s-11.786-5.8249-11.786-13.01c0-7.1854 5.2767-13.01 11.786-13.01zm-254.4-250.27c21.189 1.1104 38.18 17.503 46.967 40.921 0.0357 0.0978 0.072 0.19476 0.10808 0.29185 0.0643 0.17086 0.12764 0.34295 0.19053 0.5154 0.23764 0.65184 0.46914 1.3082 0.69404 1.969 0.0189 0.0577 0.0383 0.11502 0.0577 0.17238 3.0371 8.9783 4.8587 18.792 5.3515 28.99 3e-3 0.0839 7e-3 0.16745 0.0113 0.25108 0.0966 2.0809 0.13736 4.1778 0.12184 6.2868-5.4e-4 0.0638-1e-3 0.12711-2e-3 0.19044-3e-3 0.30036-6e-3 0.6014-0.0115 0.90268-3e-3 0.15561-5e-3 0.31098-9e-3 0.46644-0.0149 0.73115-0.0367 1.4641-0.0652 2.1982-7e-3 0.17675-0.0142 0.35413-0.0219 0.53161-0.0157 0.36238-0.033 0.72473-0.052 1.0873-0.0198 0.37761-0.0413 0.75475-0.0647 1.1314l0.0647-1.1314c-0.0267 0.50934-0.0566 1.0176-0.0896 1.5246-0.0509 0.78074-0.10934 1.5598-0.17528 2.3365-7e-3 0.0803-0.0137 0.16065-0.0207 0.24094-0.025 0.28786-0.051 0.57515-0.0781 0.86212-0.0146 0.15413-0.0294 0.30803-0.0445 0.46181-0.0362 0.36957-0.0743 0.739-0.11401 1.1079-7e-3 0.0645-0.014 0.12886-0.0211 0.1932-0.086 0.78697-0.17975 1.5712-0.28115 2.3526-0.014 0.10617-0.0279 0.2119-0.0419 0.31757-1.4571 10.995-4.4266 21.421-8.7024 30.725-0.0292 0.0613-0.0576 0.12299-0.086 0.18461-0.30697 0.66614-0.62128 1.3259-0.94223 1.9798-0.0306 0.0632-0.0615 0.12603-0.0924 0.18877-0.10426 0.21018-0.20896 0.42023-0.31435 0.62965-11.194 22.282-29.768 36.737-50.906 35.629-32.894-1.7239-55.673-40.278-53.341-84.774 2.332-44.496 29.016-80.458 61.91-78.734zm254.4 135.03c6.5091 0 11.786 5.8249 11.786 13.01 0 7.1854-5.2767 13.01-11.786 13.01s-11.786-5.8249-11.786-13.01c0-7.1854 5.2767-13.01 11.786-13.01zm-296.34-55.254c-1.8226 34.776 14.688 62.721 34.415 63.755 8.8891 0.46585 17.7-4.5708 24.865-13.427-5.6413-13.721-8.2566-29.802-7.3857-46.418 0.9011-17.194 5.4553-33.425 12.954-46.764-6.266-10.143-14.762-16.472-23.958-16.954-19.727-1.0338-39.068 25.032-40.891 59.809zm74.647-13.612-0.0596 0.23482c-1.4576 5.8155-2.3874 11.978-2.7205 18.333-0.30634 5.8453-0.0938 11.582 0.59787 17.086l0.0602 0.47095 0.0477-0.182c1.3081-5.2059 2.1931-10.691 2.6055-16.343 0.0107-0.14464 0.021-0.29015 0.031-0.43583l-0.031 0.43583c0.027-0.37026 0.052-0.74124 0.0749-1.1129l-0.044 0.67707c0.0365-0.53305 0.0688-1.0682 0.0969-1.6055l0.0389-0.8359 0.0154-0.33164c0.0138-0.33863 0.0258-0.67687 0.0361-1.0147 6e-3 -0.19639 0.0117-0.39228 0.0166-0.58793l-0.0166 0.58793c0.0122-0.3996 0.022-0.79861 0.0293-1.197l-0.0128 0.60907c8e-3 -0.30253 0.0136-0.60448 0.0184-0.90586l-6e-3 0.29679c7e-3 -0.38076 0.0119-0.76095 0.0145-1.1405l-9e-3 0.84375c6e-3 -0.37558 0.01-0.75026 0.0114-1.124l-3e-3 0.28026c0.0297-4.2828-0.21969-8.4885-0.73208-12.566zm-32.709-338.77c30.978 1.6235 52.985 35.912 53.496 77.067 3e-3 0.33293 7e-3 0.66594 8e-3 0.99926 3.4e-4 0.0639 5.4e-4 0.12761 6.9e-4 0.19129 9.5e-4 0.3561 1e-5 0.71301-3e-3 1.0703 6e-5 0.0597-3.8e-4 0.11874-8.7e-4 0.17779-2e-3 0.0913-3e-3 0.18327-4e-3 0.27531-0.0163 1.6553-0.0685 3.3204-0.15619 4.9938-2.332 44.496-29.016 80.458-61.91 78.734-32.894-1.7239-55.673-40.278-53.341-84.774 2.332-44.496 29.016-80.458 61.91-78.734zm-41.937 79.781c-1.8226 34.776 14.688 62.721 34.415 63.755 9.8085 0.51404 19.522-5.6716 27.033-16.296-7.3424-14.22-10.786-31.123-9.6911-48.607 0.96167-15.362 5.3475-29.965 12.603-42.482-6.2152-9.6896-14.511-15.709-23.469-16.179-19.727-1.0338-39.068 25.032-40.891 59.809zm74.181-15.302-0.14749 0.57202c-1.2122 4.772-1.9965 9.7424-2.3151 14.831-0.40546 6.477-0.0354 12.819 1.0464 18.853l0.0542 0.29515 0.183-0.71026c1.1297-4.4809 1.8824-9.1362 2.2268-13.9l0.0536-0.7949c0.40545-6.4769 0.0354-12.819-1.0463-18.853z"/>
</svg>
