<svg height="960" viewBox="0 0 960 960" width="960" xmlns="http://www.w3.org/2000/svg"><path d="m748.346659 244c1.632934 0 3.26402.043682 4.892328.130899l60.527022 1.894084.043976-.000752c22.945273.192898 44.49577 8.863265 63.203354 24.238903l.636655.526764c16.38462 13.646948 30.400546 32.293491 41.813254 54.767685 21.587207 42.510076 33.536752 98.144428 33.536752 156.913505s-11.949545 114.403429-33.536752 156.913505c-11.412708 22.474194-25.428634 41.120736-41.813254 54.767684-18.854636 15.704254-40.633995 24.570577-63.840009 24.765668l-.052061-.000753-60.640048 1.898675-.351832.019514c-1.103378.05337-2.207986.086757-3.313534.100115l-1.105851.00668c-37.950734 0-70.667333-22.636283-94.751164-59.698208-15.596484-24.000986-27.598724-54.105293-35.306479-87.797255l-.277717-1.221575-.37855-.02663c-4.175034-.293958-8.218874-.52272-12.130602-.686586l-1.299015-.052219c-6.833387-.263046-15.771054-.170641-26.729107.288218l-.769802 2.481084c-27.666567 87.818295-98.362751 150.347668-182.246549 151.741735l-2.864739.023789c-.55293 0-1.105658-.002684-1.658171-.00805l-1.625364-.024285-.138483.007774c-1.87198.072193-3.773085.014998-5.693951-.179907l-.721233-.079561-.085186-.011028-1.499271-.092815c-6.500751-.432924-12.959297-1.242803-19.358614-2.421871l-.012713-.002397-.994601-.122768c-31.362374-3.866115-55.256242-7.114419-71.918293-9.786885l-.599094-.096344c-16.336558-2.634205-32.36517-5.796018-48.08431-9.486519l-1.429651-.339873-1.506721-.255342c-48.392611-8.457607-91.495922-36.44032-121.858625-77.559383l-.737973-1.008173-1.206802-.819482c-28.3098349-19.385114-50.2168672-45.263321-63.1124558-74.962162l-.3148153-.732209-.1982716-.058526c-3.4293878-1.037545-6.6478676-2.513827-9.5997375-4.356402l-.249712-.159472-.1767914-.080002c-27.45455-12.811064-41.94489397-43.889935-33.33557999-74.314466l.30971064-1.061025c6.46316075-21.482969 23.12327515-37.817745 43.29464515-44.698563l.8289243-.276875.5290301-1.175504c13.0417318-28.71838 34.5597444-53.735961 62.1336794-72.592051l1.099186-.746576.17968-.245626c26.75245-36.558159 63.621345-62.949188 105.471921-74.508459l.303245-.082387.048732-.019548c1.355492-.530827 2.750049-.992454 4.179979-1.380088l.537875-.141885c19.418042-4.98114 38.908463-8.239077 58.447964-9.761443 18.081016-1.408733 52.065453-2.789495 102.57632-4.19218.911003-.025299 1.815643-.020303 2.71297.014061l.07796.004714.069537-.002165c.552076-.010728 1.104376-.018775 1.65689-.024141l1.658171-.00805c87.380688 0 160.688559 66.234957 187.087737 158.329331l.759789 2.714439.251008.012231c7.658903.363448 14.218809.550224 19.653749.562271l.558221.000624c3.83447 0 8.061685-.089971 12.675778-.270805l.427424-.017348.121628-.800837c5.955729-38.976364 17.355534-74.498826 33.316791-103.101695l.632417-1.125458c11.363872-20.083351 24.956115-36.64152 40.621596-48.720361 18.132169-13.980776 38.792693-21.728982 60.647586-21.728982zm-356.955355 55.148348c-1.681532 0-3.359934.032611-5.034811.097704l-.525675.020431-.000307-.105006-.970109.028166-.113072-.002729c-83.271177 4.361245-149.737715 88.998845-149.737715 192.813086 0 96.091401 56.945347 175.753175 131.453285 190.532177.146254.015767.292915.033777.439741.051799 5.964834 1.152643 11.989885 1.881039 18.092653 2.178834.27752.033093.444913.053055.589755.07032l.16859.020093.072334.01182.004845-.056897.525675.020431c1.674877.065093 3.353279.097704 5.034811.097704 39.818774 0 76.594051-18.434538 104.500253-49.15661l.389232-.428893.171211-.192778-.303.335.399-.442.061-.068-.049.056.073-.082.034786-.037779.072214-.082221 1.004609-1.134947c1.429599-1.631034 2.834474-3.294565 4.213853-4.98964 3.464488-4.287439 6.767148-8.773789 9.895646-13.443797l-1.322379 1.478896c-24.83319 27.45972-57.953862 44.262488-94.531729 44.262488-29.995332 0-57.665816-11.299297-80.347792-30.508782-.43649-.273155-.857453-.578322-1.256812-.918204-2.123995-1.807667-4.199683-3.679608-6.22562-5.612965-.608723-.386651-1.215194-.779394-1.819103-1.178384-.594807-.392977-1.146346-.847833-1.645393-1.356961-31.343507-31.976642-49.70528-78.942642-49.70528-129.424704v-.499207c0-55.462676 22.349224-106.542969 59.392016-138.073355 1.1354-.966439 2.445466-1.652254 3.830407-2.043099 22.187569-17.915523 48.905585-28.384339 77.777577-28.384339 37.229274 0 70.877119 17.40657 95.850561 45.739664-1.971488-2.946357-4.013785-5.818399-6.122276-8.613609-28.758727-37.711819-69.586745-60.977707-114.336981-60.977707zm-30.993465 2.632546-.363352.088259c-72.278656 17.479243-126.806567 95.959691-126.806567 190.130847 0 92.860109 53.020209 170.463359 123.798205 189.365463.063551.003871.125493.011605.187467.019342-70.514351-19.273257-123.213592-96.761044-123.213592-189.384805 0-94.013828 54.292895-172.433961 126.397839-190.219106zm387.682315-16.770652.148107-.000352c-48.430228 0-89.478844 69.870613-97.608854 163.541438-.012277.140099-.024331.280441-.03631.420833l.03631-.420833c-.067735.780417-.133185 1.562487-.196336 2.346182l.160026-1.925349c-.086897 1.018369-.169904 2.039385-.248987 3.062985l.088961-1.137636c-.07744.961033-.151422 1.924511-.221918 2.890383l.132957-1.752747c-.767271 9.930956-1.165334 20.105117-1.165334 30.464854 0 17.992625 1.200724 35.425473 3.450956 51.996714l.027063.003157.053112.384711c11.738721 85.028014 50.736594 144.99225 95.528354 144.99225 1.019037 0 2.036244-.030736 3.066117-.092764l1.815478-.053568c52.211662-5.31147 93.880043-91.54984 93.880043-197.2305 0-109.053119-44.37024-197.403273-98.909745-197.489758zm119.919846 197.489758c0 84.875285-25.198718 159.631335-64.886432 195.668073l9.810345-.311021c54.619186 0 99.065217-87.453539 99.065217-195.413691 0-107.960153-44.446031-195.413691-99.081016-195.413938l-9.923184-.314119c39.761894 35.9919 65.01507 110.817746 65.01507 195.784696zm-559.249824-180.633331-.319431.017627c-9.080215.4376-16.452163.872818-22.115581 1.305634l-.520462.040143c-16.575189 1.290367-33.139886 4.006049-49.694354 8.147185l-1.391348.351742.002633.309581-.389439.094161c-36.715499 8.877219-69.281831 32.570385-91.935805 66.365045l-.156433.149909c-.782922.477909-1.55988.961367-2.330814 1.450295-19.286809 29.736561-30.688172 66.51887-30.688172 106.336094 0 39.888521 11.442229 76.731248 30.78999 106.497442.737637.463757 1.478666.924415 2.225116 1.380026l.156456.14993c25.001736 37.299371 61.952357 62.155358 103.179206 68.601059 15.657981 3.748177 31.664156 6.939749 48.018548 9.574699.627252.10106 1.265987.203069 1.916211.306028-49.816655-38.06247-82.496497-105.182645-82.496497-180.943269 0-82.291887 38.557326-154.389338 95.750176-190.133331zm439.749824.133331c54.11675 0 94.5 81.30158 94.5 180s-40.38325 180-94.5 180-94.5-81.30158-94.5-180 40.38325-180 94.5-180zm0 20.224719c-39.092091 0-74.269537 70.820995-74.269537 159.775281s35.177446 159.775281 74.269537 159.775281 74.269537-70.820995 74.269537-159.775281-35.177446-159.775281-74.269537-159.775281zm-332.5 20.954385c-4.843945 0-9.6252.360565-14.326644 1.061664 60.934107 9.515422 107.326644 72.375878 107.326644 147.759232s-46.392537 138.24381-107.325225 147.755608c4.700025.704723 9.48128 1.065288 14.325225 1.065288 65.649157 0 119.783394-66.228219 119.783394-148.820896s-54.134237-148.820896-119.783394-148.820896zm350.582677-1.179104c.747113 0 1.493539.018497 2.238927.055442 5.509873.273093 10.667387 2.798965 14.270136 6.988743 23.121677 26.889096 36.90826 77.634921 36.90826 133.455815 0 55.820354-13.786296 106.565566-36.907673 133.454431-3.616464 4.205746-8.798881 6.734177-14.330538 6.991677l-.344469.016036c-.191505.008914-.383127.015088-.574807.01852l-.90002.016115c-.119927.003221-.23987.003221-.359816.003221-24.270056 0-43.787565-18.244695-56.840399-47.092534-11.40097-25.197084-17.742278-58.331826-17.742278-93.407466s6.341308-68.210382 17.742278-93.407466c13.052834-28.847839 32.570343-47.092534 56.840399-47.092534zm-380.987377 21.20339c-6.067296 0-12.060391.655877-17.930126 1.94335 35.695977 26.725027 58.334826 74.070522 58.334826 126.354053 0 52.786258-23.076405 100.539595-59.365851 127.120227 5.93305 1.378995 11.997377 2.111633 18.140176 2.171585l.820975.004005c56.493381 0 103.204645-57.262558 103.204645-128.79661s-46.711264-128.79661-103.204645-128.79661zm-41.35505 10.79468-.235117.129856c-.852633.470754-1.700539.956243-2.543528 1.456371-8.859411 8.760859-16.705361 19.051608-23.272265 30.557618 8.909298 1.171988 15.81066 9.391924 15.81066 19.358085 0 10.769553-8.058875 19.5-18 19.5-4.709671 0-8.996881-1.959506-12.204854-5.167012-4.896596 16.210563-7.57854 33.78342-7.57854 52.167012 0 16.676707 2.207037 32.686241 6.270268 47.618121 3.299423-4.058487 8.130351-6.618121 13.513126-6.618121 9.941125 0 18 8.730447 18 19.5s-8.058875 19.5-18 19.5c-.336023 0-.669895-.009975-1.001378-.029666 7.156231 13.90159 16.119142 26.215996 26.461093 36.447059l.935638.545967.937647.53464.640333-.346746c36.460056-20.104182 61.184915-64.979696 61.706519-116.003486l.008415-1.646975c0-51.577824-24.742273-97.107893-61.448017-117.502723zm422.342427-11.782243c-30.058206 0-54.425197 53.853059-54.425197 120.284173s24.366991 120.284173 54.425197 120.284173l.90002-.016115.34447-.016035c18.98423-22.077595 32.015353-67.634652 32.015353-120.252023 0-52.618061-13.031465-98.175623-32.015912-120.253374-.413522-.020496-.828182-.030799-1.243931-.030799zm-666.553791 54.926388-.6413031.898559c-14.3933064 20.266386-22.3767133 43.789338-22.3767133 68.442146 0 25.051587 8.2437347 48.93616 23.0801354 69.42183-6.9315794-20.955672-10.7990582-43.473251-11.0751199-66.786726l-.0158851-2.683939c0-24.22671 3.8775363-47.601723 11.028886-69.29187zm465.928146 42.29134c1.190232 9.383049 1.871274 18.961266 2.014458 28.688868.018961 1.290081.02851 2.582567.02851 3.877577 0 2.029319-.023447 4.052438-.070043 6.068965-.034115 1.481705-.080798 2.960141-.139846 4.434861l-.068341 1.578373c-.017397.376816-.035602.753385-.054614 1.129704-.092108 1.829116-.203489 3.652329-.333685 5.469343-.499277 6.978408-1.276272 13.865075-2.317659 20.643314 16.852851-.936472 30.390485-1.207085 40.610343-.813997 8.301413.319299 17.084474.903614 26.347942 1.75295-1.954131-16.021215-2.974097-32.687567-2.974097-49.763513 0-7.747738.209974-15.411155.621776-22.968497-11.410892.762362-21.369071 1.14284-29.871367 1.14284-8.864673 0-20.128745-.413623-33.793377-1.240788zm-435.957032-7.433555c8.284271 0 15 13.431458 15 30s-6.715729 30-15 30-15-13.431458-15-30 6.715729-30 15-30zm-72.0181121 11.349965-.0596025.033029c-6.2469701 3.35981-11.279959 9.116-13.4241498 16.243099-3.606013 11.986065 2.1985037 23.727507 13.1428359 27.818094-1.0072788-6.397012-1.5585662-12.901436-1.6324151-19.484488l-.0085564-1.525922c0-7.818038.6734389-15.528742 1.9818879-23.083812z" fill-rule="evenodd"/></svg>