<svg height="960" viewBox="0 0 960 960" width="960" xmlns="http://www.w3.org/2000/svg"><path d="m88.3886552 108.770553 830.8744198 42.912695c21.261222 1.098092 37.936845 18.657197 37.936845 39.946757v551.135262c0 20.808825-15.954341 38.142017-36.691879 39.86297l-830.8744201 68.952043c-3.370221.279685-6.7623061.13703-10.0950771-.442959l-43.1255804-7.424946c-19.1903338-3.304006-33.21304387-19.947327-33.21304387-39.42001v-645.910185c0-18.721013 12.98470517-34.937804 31.25258337-39.031817l43.1255803-9.664869c3.5452494-.794526 7.1822188-1.102337 10.810572-.914941zm-2.0631553 39.946757v663l745.7282221-61.886714c-.000101-.01603-.000165-.032068-.000192-.048115l-.917904-562.281669c-.000172-.105729.001297-.211078.004383-.316022zm-20.0005804 4.482-23.125 5.18287v645.910185l23.125 3.981945zm53.1910955 19.814012 685.999916 35.445823c5.315213.274639 9.483986 4.664375 9.483986 9.986678v502.6c0 5.202067-3.98838 9.535299-9.172611 9.965712l-685.999917 56.954178c-5.829123.483954-10.827389-4.116534-10.827389-9.965713v-595c0-5.725548 4.798094-10.282124 10.516015-9.986678zm9.483902 20.515501v573.606l666-55.294v-483.899zm788.200003 285.0965-65.59-.000013.44 269.546 65.15-5.406043zm-66.064-290.408013.441 270.408 65.623.000013v-266.995318z"/></svg>