<svg height="960" viewBox="0 0 960 960" width="960" xmlns="http://www.w3.org/2000/svg">
  <path d="m881.863141 278.160439 15.654565 11.709138c17.134281 12.815921 27.633603 32.033077 29.627143 52.671655l.013929.148949.0664.321121c.518149 2.62809.785379 5.351563.774503 8.146348l-.010322.763963-2.292925 103.725203.022343.577362c.573938 16.93405-4.597686 33.690247-15.008246 47.507099l-.449373.590343c-8.281386 10.769036-19.339494 19.074199-31.984662 24.02201-.272759.106725-.546656.210516-.821642.311353-281.048212 103.060216-345.6893 126.764065-466.596241 171.10057l-9.539977 3.498304c-33.821946 12.402488-72.355746 26.53281-121.132709 44.419294-8.619204 3.160657-19.096875 6.514085-30.257442 9.380932-17.007708 4.368818-32.954477 6.945917-47.719859 6.945917-28.803603 0-66.715681-12.52502-83.234535-24.890992-9.682754-7.248485-18.397616-15.736207-25.9353239-25.290118l-31.0874592 10.934655-.0964352.065333c-2.0857177 1.367759-4.3634315 2.439929-6.8028043 3.156714-1.9065927.691794-3.9244445 1.162893-6.039732 1.381276-3.8550326.397994-7.4661566-.048885-10.7903461-1.170661l-.0936824-.032468-1.2551116.464694c-2.2591982 1.252762-4.7192806 2.182907-7.362067 2.722365l-33.57344995 12.417363c-4.16663285 1.541023-8.41626795 1.607044-12.27191445.530215-8.3393661-2.098527-14.9709711-9.518121-15.1612562-19.001969l-.0042008-.419317v-36.00522c0-3.789867 1.0684788-7.397675 2.9660846-10.480873 2.2197883-4.044732 5.8215192-7.292435 10.3171661-9.031732l40.1337493-15.526526.1378521-.177055c2.8174823-3.583723 6.3482126-6.439064 10.6175855-8.202787 1.0693343-.645017 2.2118238-1.19605 3.4185154-1.639938l.345047-.123391 32.563-11.313531.0006921-97.4543c0-1.864418.1262449-3.707634.372001-5.51984l.0472725-.331559.0006734-.028604c1.0597203-31.942633 17.1867026-61.922048 44.3296731-80.260023l.888996-.593839c8.043647-5.312231 16.807077-9.441953 26.022489-12.262969l597.30342-182.846095c49.220253-15.067268 102.668058-5.747571 143.898616 25.091631zm-859.348448 398.727777c-.4279533.041896-.8417703.145157-1.2398632.305395l-.0210645-.326521-31.2544574 11.444947.0006921 35.687963 11.43530788-4.082963 21.57717162-8.256604c.3277975.102399.6653534.167518 1.0125399.193622l4.2125549-1.503361c3.4053578-2.735963 5.9464603-8.917873 5.0981725-16.435475-1.1148258-9.879686-5.9595766-17.502935-10.8210538-17.027003zm863.637629-283.223673c-4.21225 3.151426-8.892712 5.675135-13.899219 7.466092l-625.388394 223.717507c-49.737573 17.792408-104.855006 1.443364-136.961012-39.575876l.000819 36.12857c7.849751 1.405336 14.670634 6.293406 20.041363 12.947829 5.809108 7.197584 9.718479 16.468 10.767649 26.293916 1.056231 9.892034-.848695 19.764393-5.113864 27.975069-1.270255 2.445309-2.734357 4.739408-4.38614 6.822417 3.809176 3.995473 7.913617 7.628008 12.259168 10.881076 6.229061 4.66306 34.69198 16.73548 58.735934 16.73548 24.043955 0 54.792488-10.486114 63.906267-13.828131 132.726428-48.670704 331.81607-121.67676 597.268927-219.018168 5.717981-2.237336 10.718306-5.992817 14.46303-10.86242 5.264263-6.845599 7.501178-15.068286 6.920353-23.055674zm-844.110155 269.852326c-.1057082.010913-.2107082.025069-.3149837.04242-.3324265.165178-.655573.365278-.9685337.59853 2.0834657 1.940871 3.8888137 4.174679 5.4512175 6.633132 3.7362577 5.879027 6.1319119 13.190803 6.9997538 20.881695.4842335 4.291321.3584578 8.54861-.3485925 12.612284 2.1811006-4.457656 3.1676235-11.341197 2.3586183-18.901858-1.3575937-12.687566-7.2573523-22.477398-13.1774797-21.866203zm62.481584-22.489404c-.996318.103077-1.929584.495407-2.786229 1.137354l-37.0769557 12.88062c1.0089503 1.287588 1.9441388 2.655637 2.8111549 4.09433 4.0504426 6.721149 6.6781765 15.178854 7.6344053 24.115412.5756717 5.380013.5223438 10.716053-.165795 15.729655l34.0704165-11.985959c.13957-.002923.27921-.011559.418862-.026007 5.907577-.611191 12.751679-11.519369 11.396963-24.206843-1.354715-12.687473-10.395245-22.349753-16.302822-21.738562zm632.366769-343.419427-99.296199 30.365556c7.03725-.575694 14.405178-.58516 21.943611.018875 43.206906 3.462057 78.322539 25.936075 76.706491 53.761969-1.631926 28.099284-39.335538 44.904088-82.674647 41.431438-43.206906-3.462057-78.322538-25.936076-76.706491-53.76197.678923-11.690013 7.601027-21.425211 18.574771-28.55878l-124.333436 38.023081c7.604254-1.73061 15.681275-2.884134 24.05248-3.379298 46.460774-2.748193 87.05143 15.619429 89.469241 44.867409 1.154413 13.964795-6.613538 26.50357-20.049162 36.135085-.49101.510218-1.044711.977115-1.660514 1.389541l-.379257.25379c-15.06289 9.959021-36.074795 16.317388-58.836583 17.676943-3.007676.179648-5.999304.269284-8.964745.270873l-.047559.000279c-42.901666.236075-78.903934-17.643143-81.176677-45.136243-1.638177-19.816836 14.690804-36.762063 39.686387-46.602913l-152.619392 46.670415c7.634797-1.666326 15.693139-2.788216 24.024922-3.292866 50.134595-3.036616 93.854692 17.221518 96.416442 48.953811 2.581747 31.980013-37.725306 57.480586-87.98073 60.52452-50.134596 3.036615-93.854692-17.221518-96.416442-48.953812-1.723322-21.346725 15.662849-39.806478 42.361647-50.627453l-125.751879 38.457555c-5.470395 1.672878-10.672438 4.12207-15.447088 7.272698-27.564524 18.188882-35.164983 55.279345-16.976102 82.843869 25.850611 39.175568 75.125295 55.613468 119.318639 39.804373l625.388394-223.717508c6.108968-2.185335 11.438303-6.122808 15.321843-11.320241 3.281055-4.391112 5.304767-9.332087 6.133511-14.391807l.122642-5.571417-.533524.084434c.206546-5.247552-.807787-10.499937-2.977988-15.30728-2.215292-4.195532-5.374286-7.977712-9.428107-11.006742l-17.798281-13.29894c-1.365514-1.020317-2.749386-2.008326-4.150495-2.963832 10.455223 8.236369 16.364564 18.464355 15.38202 29.706719-1.161635 13.291531-11.563142 23.512387-27.107057 29.745403-.838317.654034-1.805939 1.188694-2.894359 1.566521-13.748933 4.772718-30.647504 6.578617-48.133048 5.047219-2.651862-.232253-5.277178-.537749-7.867372-.913683-38.49121-4.988353-68.46256-24.524599-66.342351-48.784219 1.019681-11.667287 9.158964-20.968525 21.646444-27.283372zm-456.126749 254.47609c9.317801 0 16.871371 4.582743 16.871371 10.235844s-7.55357 10.235844-16.871371 10.235844c-9.317802 0-16.871372-4.582743-16.871372-10.235844s7.55357-10.235844 16.871372-10.235844zm-65.357395-19.233296c1.660803 15.818135-14.473747 28.043413-34.13687 30.112268-19.664435 2.068992-37.988745-6.532558-39.649813-22.353209-1.660804-15.818135 14.473747-28.043413 34.13687-30.112268 19.664434-2.068992 37.988745 6.532558 39.649813 22.353209zm-37.557066-2.463c-5.499028.57858-10.375658 2.386891-13.56137 4.80073-1.242974.941812-2.087924 1.874226-2.523556 2.660547-.221975.400669-.26331.583946-.254024.672389.009245.088059.087396.257975.387097.602952.588808.677759 1.608212 1.413406 3.01889 2.075587 3.616627 1.697668 8.761687 2.451402 14.260412 1.872854 5.499027-.57858 10.375658-2.386891 13.56137-4.80073 1.242974-.941812 2.087924-1.874226 2.523556-2.660547.221975-.400669.26331-.583946.254024-.672389-.009246-.088059-.087397-.257975-.387097-.602952-.588808-.677759-1.608213-1.413406-3.018891-2.075587-3.616626-1.697668-8.761686-2.451402-14.260411-1.872854zm152.542118-31.134134c-15.213259 1.169851-28.973438 6.285338-38.755756 13.696489l-.091163.069707.059083.016076c11.597208 3.156448 24.999337 4.521512 38.927878 3.754252l.929336-.054313c14.568282-.900327 28.214748-4.04448 39.554784-8.85273l.679919-.292285-.302766-.177232c-10.649058-6.173128-25.302219-9.367175-41.001315-8.159964zm134.423668-7.561051c8.188371 0 14.826357 4.353606 14.826357 9.724052s-6.637986 9.724052-14.826357 9.724052-14.826357-4.353606-14.826357-9.724052 6.637986-9.724052 14.826357-9.724052zm-139.002166-43.988011c-40.574446 2.457564-70.664117 21.49403-69.254756 38.95174.544955 6.750328 5.70037 13.159616 14.126762 18.370103 13.237402-14.33702 34.577509-23.899486 58.173083-25.713911 24.34844-1.872317 47.381092 4.793836 62.341956 17.733638 6.767347-5.87687 10.396003-12.413079 9.885084-18.741808-1.42936-17.70543-34.576855-33.064645-75.272129-30.599762zm177.971869-5.155567c-13.074802.970379-24.951673 5.010893-33.696877 10.855946l-.229675.153735.491283.106597c7.424945 1.569906 15.511244 2.410986 23.91123 2.436568 2.475161-.006333 4.990776-.082272 7.539373-.233024 13.800929-.816336 26.249259-3.681263 36.361535-7.724713l.037934.017773c-9.368825-4.392616-21.50527-6.570995-34.414803-5.612882zm122.586461-6.129981c7.623655 0 13.803849 3.666195 13.803849 8.188676 0 4.52248-6.180194 8.188675-13.803849 8.188675-7.623656 0-13.80385-3.666195-13.80385-8.188675 0-4.522481 6.180194-8.188676 13.80385-8.188676zm-130.033208-40.945076c-36.893572 2.182286-64.120987 19.004528-62.894196 33.844875.510581 6.176436 5.821508 12.098595 14.447101 16.796314 12.314402-13.138667 32.308141-21.870667 54.413563-23.511276 21.188256-1.572539 41.333244 3.591463 55.265991 13.896275 4.934068-4.65604 7.521123-9.670045 7.123819-14.476184-1.251035-15.133613-31.321271-28.740655-68.356278-26.550004zm142.069626 4.650786-.374961.059019.682528.155378c4.980491 1.113257 10.195746 1.924074 15.54946 2.395133l.893551.075357c5.960064.4809 11.802699.517806 17.390942.140836l.123519-.009704-.568808-.186797c-5.182223-1.678103-10.85793-2.806081-16.806479-3.257167l-.68757-.049038c-5.604427-.374457-11.070572-.123588-16.202182.676983zm135.204642-14.884931c7.05894 0 12.781342 3.437058 12.781342 7.676883 0 4.239826-5.722402 7.676883-12.781342 7.676883s-12.781342-3.437057-12.781342-7.676883c0-4.239825 5.722402-7.676883 12.781342-7.676883zm-176.782679-14.656372c-.354919 6.111165 4.463751 12.713826 12.897891 18.399694 12.694139-7.189899 29.134507-10.63215 46.215647-9.490881 17.885444 1.195008 34.344257 7.275106 45.992571 16.793717 8.689612-4.19797 13.999787-9.793319 14.342317-15.691175.797839-13.737567-24.547812-29.958793-58.337563-32.666277-33.65755-2.696892-60.328903 9.190744-61.110863 22.654922zm183.564355-17.509114-.571122.038582.326688.061752c1.334203.24534 2.684252.468938 4.048182.670025 1.722397.223119 3.464451.412842 5.223176.566873 4.373055.382996 8.682863.530748 12.867733.456571l.890382.209795c-3.402291-.82986-6.972311-1.438542-10.653042-1.793888l-.69142-.063651c-3.906802-.342161-7.744657-.382164-11.440577-.146059zm-30.125564-39.502809c-9.699596 3.79318-14.721972 8.732233-15.100303 13.061133-.371641 4.252353 3.566788 9.863351 12.133534 15.199082 12.532487-6.935378 29.095426-10.039932 46.277847-8.535081 16.184931 1.417489 31.121526 6.766955 42.114044 14.916144 7.652912-3.572264 11.635379-7.887711 11.970656-11.723976.378429-4.33002-3.712092-10.068768-12.607569-15.49116-10.412391-6.347052-25.309622-10.857063-41.645222-12.287748-16.335414-1.430669-31.788315.421182-43.142987 4.861606zm27.658001-25.269386.232217-.007418c5.513727-.173641 11.206179-.015763 16.997706.491463 9.921939.868972 19.379553 2.697128 27.994001 5.326558-14.520569-4.850166-29.886697-6.837533-45.223924-5.810603z"/>
</svg>
