<svg height="960" viewBox="0 0 960 960" width="960" xmlns="http://www.w3.org/2000/svg"><path d="m563.256713 169.55769.048514.00153 270.079993 8.678257c69.865353 2.160055 123.133823 62.14507 123.133823 133.955198v336.348846c0 71.810129-53.26847 131.795144-123.133823 133.955199l-.20848.005901-270.128507 6.942062c-1.930787.052095-3.85848.066237-5.781823.02605-2.050665.077329-4.144791-.017721-6.268009-.2827-.209686-.026169-.42309-.053684-.643349-.083115-6.051451-.438056-12.023891-1.371954-17.879053-2.79084-83.987339-13.410242-180.186521-25.895241-321.683036-39.051407-3.8756-.360348-8.766158-1.212569-14.45062-2.400409l-1.012114-.213859c-11.112645-2.372038-17.413298-4.036989-23.674763-7.392466-31.306788-16.777096-52.349159-40.778606-62.860132-73.164521-8.9920892-6.70355-16.8474053-13.963445-23.5495201-21.815274-9.1451661-10.713972-19.7809974-26.863433-32.6845412-49.19219-3.5158962-6.084033-5.36703-12.986909-5.3670664-20.013785l-.0001423-27.469872c-8.1677215-5.712764-14.0902881-14.41797-16.1831992-24.544622l-3.7095218.231153c-.29978.010029-.599707.015044-.899655.015044-14.8468746 0-26.8826445-12.024213-26.8826445-26.856831 0-15.494383 12.2808635-28.206565 27.7803838-28.756062l4.1225815-.272486c2.3861614-9.351954 8.0718346-17.404467 15.7720526-22.813589l.0001449-27.72262c.0000348-6.626819 1.6464908-13.149812 4.7914207-18.982834 11.1911186-20.756597 19.7996773-34.953861 26.9363878-43.874624l.0772924-.096309.2068018-.256869.079191-.098046c6.5684135-8.106218 13.7339937-15.347554 21.498576-21.648179l.000037-3.814824c0-53.942105 17.270226-92.900165 51.668187-116.043356 14.306701-9.625649 30.5347-15.814278 49.082397-19.646437 13.586158-2.80705 27.312847-4.236618 45.875751-5.24249.470746-.025508.924317-.049816 1.371728-.073471l.801066-.041994c2.752699-.143039 5.522628-.273677 10.934804-.522763 4.291906-.197527 6.731445-.313088 9.129912-.436473l.575771-.029808c.192279-.010017.385222-.02013.579758-.030385 40.668135-2.143811 135.589664-6.9731 284.809871-14.490234.916811-.047282 1.834501-.060775 2.751209-.033765 1.626855-.027249 3.25837-.013517 4.892346.040269zm-13.736801 579.293585.103131.012629.091.011.143665.019384.121335.014616-.255-.033-.01-.001-.016-.002.026.003.71.087.245.029.03.003.09.01 1.001.106.46.045.08.007.024.002.822.071.232.019.429.032.781.053.139.009-.06-.004-.079-.005-.583693-.037287-.197307-.015713-.181961-.011817.629437.044851.412524.024966.069.005.031.002.118257.007872-.088257-.005872-.03-.002-.01267-.000155.04267.002155.911863.04992c.637314.030871 1.276531.054036 1.917578.069414l.319559.005666.841.013.625371.003966c.852646.00118 1.708961-.011419 2.568194-.037985l270.128507-6.942061c47.510351-1.468897 83.738164-42.830142 84.361753-92.666979.005445-.435135.008175-.870917.008175-1.307324v-336.348846c0-50.418852-36.444754-92.492581-84.369928-93.974302l-270.128507-8.679787-1.332549-.030049c-.097007-.001374-.193975-.00257-.290902-.003587-.761795-.008044-1.521262-.005084-2.27821.008728l-.336585.00727c-45.959202 1.037338-82.537958 42.083317-82.537958 93.75293v352.448715c0 45.221173 28.018325 82.304934 65.81859 91.552418l.045049.010893.106349.025983.048651.011017.232.055.68.159.344.079.736299.161772c.298389.063861.597355.125998.896888.186402l.900293.176.59552.109826.025.004.010349.002913.411651.072087.115.02-.035-.006-.08-.014-.413-.073-.009-.002-.008-.001-.017-.003-.155905-.027934.172905.030934.017.003.409623.073547.083377.013453.039.007.101836.01853-.070836-.01353-.031-.005-.004-.001.035.006.213.037.36.06.912.145.27.041.379.056.536.076.04.005-.018-.002-.022-.003-.233-.032.180573.025464.074427.009536.059.008.157475.022134-.133475-.019134-.024-.003-.041-.006.065.009.352.047.226.03zm192.701936-484.067299c106.612577 16.916799 177.170915 127.626284 158.326869 246.821515-18.844677 119.199225-120.105533 202.652613-226.722935 185.735048l-19.554323-4.250206c-95.528819-26.538426-156.438839-130.82578-138.772546-242.571308 18.844677-119.199226 120.105533-202.652614 226.722935-185.735049zm-39.895813 18.3292-.280915.02416c34.592099 17.580796 63.301811 45.883971 82.525452 81.260197l61.755636-2.067388c4.149545-.138938 7.953307 2.300641 9.55777 6.129965 5.975252 14.260959 11.073279 27.578304 15.293877 39.957069 4.384628 12.859853 7.262166 25.871058 8.625933 39.020969.6281 6.056368-4.256331 11.263584-10.340458 11.023802l-59.415546-2.34173c.464649 9.658997.29162 19.389516-.527434 29.13785l60.117098 7.672786c5.462952.697186 9.333948 5.680174 8.658582 11.145865-2.016884 16.322514-4.631962 29.962892-7.880616 40.97042-3.324037 11.26295-8.984776 23.728226-16.959421 37.459321-2.064958 3.555535-6.095802 5.484731-10.16016 4.862737l-62.70473-9.594607c-27.853204 47.936445-72.6003 82.276477-123.487609 95.312339 6.446787 1.915479 13.071929 3.424172 19.856585 4.50073l17.777069 1.783561c88.500462 3.75405 169.933414-68.901991 186.056916-170.888823 17.199034-108.789949-46.572149-208.850057-141.706513-223.945545-12.36684-1.962314-24.672443-2.39503-36.761516-1.423678zm-35.895454 7.143659-2.214223.722933c-64.254584 21.618753-116.407959 83.248601-128.962793 162.662348-.213152 1.34826-.413867 2.695179-.60224 4.040613 5.58864-6.593989 13.778551-10.200171 22.20099-8.863737 13.579121 2.154674 22.620531 16.341088 20.194555 31.686245-2.425977 15.345156-15.400672 26.038155-28.979793 23.883482-6.457807-1.024695-11.88934-4.770559-15.549259-10.068118 1.654912 70.623597 36.874622 132.995385 90.716074 164.160477.283918-.051561.569351-.086214.858621-.108772 56.421423-4.399828 108.086787-38.027408 138.434381-89.329705-.237101-.854249-.363197-1.751995-.363197-2.675609v-73.118494c0-5.522848 4.477152-10 10-10l17.454763-.000164c.769949-9.349107.886893-18.674174.360406-27.919039l-18.208975-.717555c-5.365472-.211459-9.606194-4.622606-9.606194-9.992243v-69.800595c0-2.227873.729799-4.289975 1.966429-5.955746-22.114491-37.833286-56.434671-65.885826-97.120462-78.408836-.196269-.060411-.389336-.126313-.579083-.197485zm-545.647538 291.103069-28.7275418.00145c9.5592508 16.052911 17.4306398 27.701506 23.6141658 34.945785 1.728768 2.025329 3.589465 4.015524 5.58209 5.970585-.312273-4.604033-.467844-9.3619-.467844-14.278603zm671.715182-78.111406h-10.334528l.000712 54.250823c.144326.112063.284938.227607.421779.346446l51.938855 7.948137.508-57.117zm-671.715182 18.048406-33.5899995 1.236.001 38.827h33.5889995zm734.228-10.07-.11459 12.981644c.784428-3.956145 1.51675-8.195041 2.195526-12.716542zm-737.580536-27.978306-37.3324721 1.934871v17.59776l37.3324721-1.374134zm602.632163-37.234629c12.415196 1.969987 20.681628 14.940424 18.463593 28.970281-2.218036 14.029857-14.080614 23.806314-26.495811 21.836327-12.415196-1.969987-20.681628-14.940424-18.463593-28.970281 2.218036-14.029857 14.080615-23.806314 26.495811-21.836327zm-599.279627-24.143065-33.5889995 2.469-.001 40.448 33.5899995-1.74zm735.389062 6.374502-.087062 9.673498 2.133886.084365c-.567096-3.261072-1.250684-6.513498-2.046824-9.757863zm-19.593062-45.578502-54.415346 1.822776v50.516165l15.98938.628981c.024308-.002643.048646-.005201.073013-.007674.989012-.100362 1.958963-.052991 2.887922.124224l34.976031 1.379528zm-715.795255-17.160923c-3.644114 3.422589-7.117577 7.171919-10.420391 11.247991l-.206801.256869c-4.105467 5.131761-9.737363 14.074238-16.8956878 26.82743l27.5221348-2.021367zm26.884255 288.773923h-.001l.011.03.022.061.08.222.073183.200842.015817.043158.383351 1.032145c.134883.356554.271593.711235.41013 1.064054l.421092 1.052893.013427.033908.022.053.019.047.099.24.005.012.011.027-.016-.039.005.012.022.054.004.009.019.046.029.07.07499.180194.093197.222154.111813.264652.109.254-.016-.036.044.103-.028-.067.141327.328822.259439.592351.184431.413918.106803.236909.014.031.015.033.050434.111223.063566.138777.013.029.037.081.002.004.022.047.048.104.003.007.023312.05118.071688.15482.048.101.42605.901773.484457.991014.205493.411213.015052.029216.124762.246293.014186.028491.043.084.159088.309697.129896.250728.119016.228575-.169-.326.22.422-.017-.031.022.042-.005-.011.038.072.232884.439101.151839.282476.039277.072423.043.08.070526.129182.020474.037818.06.109.079.145.007777.01341.024223.04459.017744.031512.006256.012488.178.321.037.065.043.076.499984.878693c.186376.322681.374703.64355.564983.962623l.048033.080684.042087.070057.049913.083943.040725.066907.070215.116342.17206.282751.023.038.008.013.088.142-.037844-.059874.127844.207874-.081-.133.519763.835436.57753.90042.176068.269244.038639.0589.013.02.002.003.217036.327388.196964.293612-.049-.072.116955.173665.056045.082335.064.094.082731.122759.128269.187241-.079955-.116412.381255.553154.385603.549327.115227.162227.02087.028704.225.314.065623.091521.068377.094479.023837.032877.089163.122123.206514.282638.033486.045362.075.102.057987.078154.101013.135846.030627.041294.039373.052706.576184.762039.625684.806102.197132.250859-.098-.125.099.125.035.045.062959.078188.199041.248812.186.23.065.08.050094.062581.099622.122251.169284.206168.134396.163432.415974.498962.22963.271606-.046-.054.090818.107086c.091777.107988.183846.215735.276209.323241l.030973.035673.068.078h-.001l.091.105.090428.104773.247572.283227.590606.666485c.22728.253448.45625.50553.68691.756259l.031484.034256.033.035h-.001l.065021.070101.071979.076899.017.019.315.338.141.15.682389.714959c.248054.256796.497956.51214.749707.766046.06003.060544.120165.121006.180404.181386l.1875.186609.183871.183278.073129.072722.159.156.225.22.23754.230837.22346.214163-.044-.041.143114.137083-.064114-.062083.146.139-.057-.053.068.064.075151.072397.210849.199603.037313.035545.017687.016455.401662.37662.278118.25778.071806.066184.207387.190301-.140973-.129885.285673.261924.018327.016076.202.183-.069499-.062085-.150828-.136991c.243912.222062.489371.442968.736379.66273l-.153052-.137654.657171.5827c.797921.698982 1.611725 1.386301 2.44141 2.062326l.83498.672273.000439.000701.113.089.023.018.712734.559924c.569674.442599 1.146468.880244 1.73038 1.313048l.046087.03414.033799.024888-.033-.025.158.117.567728.415811c.59745.433872 1.202196.862831 1.814238 1.286992.028104.019476.056043.038818.083998.05815l.161036.110047-.043-.029.207617.143239c.136912.093908.274185.187581.411819.281018l-.086436-.059257.156.106.840651.564276.920627.604324.398679.257568.212768.136459-.481522-.309818.589797.378191.302.192.074039.047686.103111.065132.03185.019182.019.012.301359.190115.160641.099885-.111365-.06907c.691346.432094 1.391076.858972 2.099189 1.280774l.067176.039296h-.001l.066799.039795.013201.007205.091.054.66204.389991-.30804-.180991.460764.270008-.152724-.089017c.642235.374966 1.291231.745887 1.946987 1.112864.103046.057666.206018.115102.309157.172442l.077398.042993.135418.07471.19.105.04.022.445292.244417.86189.466044c1.517021.812961 7.396606 2.306247 13.131057 3.530288l.927927.195983c4.009333.837734 7.826683 1.517171 9.88793 1.708823 127.521414 11.856778 217.98016 23.61607 273.802199 31.689932-20.417464-20.754698-33.053934-50.410146-33.053934-83.401798v-352.448715c0-37.066095 15.950392-69.921067 40.957684-90.677098l-2.046271.104317c-112.966686 5.702936-186.715641 9.464557-221.246863 11.284862-60.937452 3.212303-132.125041.031397-132.125041 102.122638v281.890524c0 11.666265.939342 22.096368 2.818025 31.457586l.270965.166726.06914.042471-.339504-.206204.128241.630196.131094.626962.028302.133173.007867.037873.105328.487366c.047696.218873.095922.43715.144677.654833l.222114.971865.054618.233148.055031.232688.008232.0381.028.113.052074.217753.024926.103247.017.071.037.151.01.04c.266805 1.090628.546997 2.163849.840935 3.222146l.007065.027854.049081.173515.023919.085485.032569.115559.044698.157996.029733.103445.037.13.013.046.018.063.062.214.029.102.053772.182618-.036772-.126618.275131.928116c.108637.359874.218928.717978.330872 1.074323l.017997.056561.332346 1.036427c.237054.724963.481094 1.442554.732119 2.15288l.024535.069693.013.037.003.009z"/></svg>