<?xml version="1.0" encoding="UTF-8"?>
<svg width="960px" height="960px" version="1.1" viewBox="0 0 960 960" xmlns="http://www.w3.org/2000/svg">
  <g>
    <path id="Shape" d="m352-0.10742c-7.9741-0.37143-15.639 0.92547-23.043 4.1523-2.9564 1.2885-5.5507 2.7307-8.1445 4.4023-1.0669 0.68757-1.9297 1.2751-3.0684 2.0781l-1.375 0.97656c-0.73937 0.52861-2.6728 1.8423-5.7344 3.8984l-10.254 6.8516-21.434 14.227c-11.187 7.4085-17.914 19.932-17.914 33.35v264.34l6e-3 0.66015c0.1784 11.003 4.8001 20.927 12.148 28.055l0.29687 0.28125 0.97461 242.8-0.44531 0.40235c-7.9514 7.2843-12.98 17.758-12.98 29.494v246.74c0.16547 12.217 5.9032 23.672 15.541 31.119l0.41211 0.3125 0.12305 0.37696c3.7821 11.226 11.664 21.137 22.623 29.518 16.537 12.647 31.945 16.332 54.52 14.398l0.76367-0.0644c4.0433-0.33854 11.425-0.90618 20.139-1.5566l24.666-1.8066c13.972-1.0068 27.019-1.9202 32.781-2.2774l3.3652-0.1914c1.2522-0.0816 2.494-0.20715 3.7246-0.37305l0.80274-0.11328c8.2672-1.229 15.493-4.0834 22.299-7.9961l0.15429-0.0899 21.793-1.6133c11.476-0.85181 22.909-1.7048 34.053-2.5391l26.537-1.9941c43.389-3.2772 69.076-5.3084 76.463-6.0762-12.133-11.091-23.071-23.626-32.562-37.479-8.1265 0.64452-10.556 0.89857-21.033 1.7012l-37.99 2.8789-71.947 5.3594 8e-3 -154 0.7461 0.26367c4.5305 1.6046 10.741 3.7735 17.51 6.1152l12.82 4.4121c13.039 4.4668 25.637 8.7135 30.652 10.262l1.2559 0.37696c1.6847 0.48655 3.2552 0.85321 4.7441 1.0898 0.96195 0.31326 1.9868 0.4854 3.0527 0.49024l22.111 0.0996c-0.0777-6.7042 0.12287-13.368 0.65821-19.996l-5.3926-0.0254c0.0439-1.1107 0.0658-2.292 0.0703-3.5527v-541.32c0-0.39215-4e-3 -0.77921-0.01-1.1602l167.23 1.8184c0.9225 0.0312 1.7673 0.0603 2.5332 0.084l3.3008 0.0918c12.49 0.38338 16.268 4.9681 16.268 20.631l-0.1875 167.43c-0.0391 40.542-0.0744 84.355-0.0957 126.51l-6e-3 29.693c13.376-2.3229 26.746-3.3822 40.002-3.2461l0.0703-120.31 0.21679-200-4e-3 -1.0605c-0.0447-6.2138-0.52132-11.739-1.666-17.15-1.7949-8.485-5.1797-16.314-10.85-23.271-6.2997-7.7306-14.44-13.068-23.592-16.09-6.3611-2.1001-12.666-2.9692-19.594-3.1328l-0.43359-0.01c-3.4842-0.0888-10.167-0.33004-20-0.71875l-27.104-1.1113-0.0937-0.76367c-1.8282-13.794-8.4305-24.828-17.949-32.26l-0.22266-0.17187v-24.701c0-4.8703-0.22914-8.8381-1.0098-13.27-1.3482-7.6541-4.1609-14.916-9.1932-21.635-5.5887-7.4611-12.952-12.821-21.342-16.164-5.927-2.3617-11.985-3.6106-18.633-4.1992l-1.2422-0.10938c-2.2001-0.18942-5.2051-0.43621-9.0215-0.74219l-23.756-1.8574-0.0859-0.40625-0.19141-0.85742c-1.8852-8.0956-5.6769-15.694-11.846-22.168-5.9799-6.2758-13.118-10.383-20.928-12.846-5.137-1.6199-10.311-2.4667-16.053-2.8809l-167.53-12.289zm18.207 41.402 148.31 10.9c11.119 0.8763 12.803 4.2754 12.803 12.238v4.5586l-104.95-3.9844-0.2793-0.007812-0.27734 2e-3 -0.19336 0.0039c-5.3635-1.4745-10.968-1.1939-16.682 0.27148-3.7032 0.94974-6.8438 2.2099-9.7969 3.666l-19.326 9.541-9.5723 4.7617v-39.658c0-0.75753-0.011-1.4874-0.0332-2.1914zm-26.711 0.1543h0.94336l0.83789 0.02344 0.37305 0.01367c1.5076 0.05678 3.1322 0.17661 4.5293 0.31641l0.0352 2e-3 2e-3 0.01562c0.0205 0.52947 0.0312 1.1185 0.0312 1.7676v50.229c0 1.9027 0.14351 3.4934 0.59766 5.1445 0.86591 3.1482 2.7611 5.9177 6.0078 7.5879 2.9868 1.5365 6.0302 1.6087 9.0449 0.83008 1.7774-0.45906 3.5585-1.2268 5.5762-2.3164l0.53906-0.28516c1.0307-0.54173 2.7168-1.4018 4.9941-2.5469l10.721-5.3437 20.658-10.197c4.3724-2.0892 9.1098-3.2563 12.094-2.3535l0.21289 0.06641c0.41128 0.1308 0.73557 0.25372 0.98242 0.36328l0.10937 0.04883 0.0234 0.14453c0.0923 0.60584 0.14258 1.465 0.14258 2.6348v60.914l4e-3 0.35157c0.18661 9.6375 8.0707 14.437 15.818 12.443l0.1543-0.043v53.998c0 6.3319 2.4546 11.719 8.5644 14.098 4.4384 1.7277 8.768 1.0711 14.219-1.0039l0.17774-0.0664c2.1777-0.79746 10.74-3.5003 21.146-6.7285l15.076-4.6484c8.4361-2.5872 16.734-5.1104 22.928-6.9707l6.4569-1.9238v541.51c-4e-3 0.9497-0.022 1.7893-0.0508 2.5293l-6e-3 0.14062-0.43945-0.13281c-3.5152-1.0781-11.56-3.7633-20.912-6.9414l-9.9688-3.4043-6.1973-2.1289c-9.8018-3.3759-19.131-6.6268-24.775-8.6367l-4.6172-1.668c-2.1721-0.77132-4.1287-1.2446-6.1152-1.377-3.3604-0.2239-6.6119 0.57434-9.3809 2.7266l-0.28516 0.22461c-4.2945 3.4974-5.4785 8.2387-5.4785 14.967l-2e-3 155.73-0.39843-0.11328c-1.601-0.48031-3.5598-1.3106-5.8555-2.541l-0.28906-0.1543c-5.6482-3.0375-15.402-8.5733-28.414-16.092l-9.7344-5.6426-32.547-18.982c-2.3007-1.31-4.0142-2.1292-5.8828-2.6816-4.0836-1.2072-8.3325-0.81255-11.924 2.2539-2.8473 2.4311-4.0994 5.4585-4.7148 9.2305l-0.0547 0.35937c-0.32524 2.1731-0.45312 4.7555-0.45312 8.1524l-2e-3 32.174-0.44726-0.19531c-1.7602-0.79364-3.7125-1.9442-5.7051-3.3828-1.0029-0.72405-1.9837-1.4295-2.9394-2.1191l-15.156-10.914c-0.50793-0.36461-1.0379-0.67476-1.584-0.93164l-11.133-7.9141v-246.21l13.551 1.1894-1.2168-302.88h-12.334v-264.34c22.214-14.712 34.988-23.242 38.318-25.588l1.1445-0.81445c1.1129-0.78812 2.0798-1.4468 3-1.9766zm98.41 44.162 100.5 3.8164c26.658 2.0241 44.61 3.4187 53.855 4.1836l4.7324 0.40625c11.993 1.1589 13.311 5.8328 13.311 15.387v34.203l-168.55-4.7598c-0.69451-0.11252-1.4144-0.1796-2.1602-0.19922l-0.4668-6e-3c-0.30931-1.9e-4 -0.61672 8e-3 -0.91992 0.0234l-0.26367 0.0156v-51.088c0-0.67487-0.0149-1.3362-0.0449-1.9824zm16.021 73.59 167.87 4.7402c4.4002 0.97023 7.1973 3.9384 7.1973 10.525v13.619l-98.457-1.0703c-1.6875-0.3741-3.427-0.42606-5.207-0.23632-1.5186 0.16187-2.6104 0.39301-4.5391 0.91992l-1.1074 0.30859c-3.4349 0.96772-12.829 3.7907-23.688 7.1016l-13.613 4.1719c-9.918 3.0541-19.559 6.0572-25.885 8.084l-2.5684 0.82618zm197.06 416.98c-18.314 0.0617-34.162 14.915-36.25 34.781-0.0485 0.46178-0.0452 0.91557-0.0781 1.375 13.809-13.292 29.38-25.026 46.74-34.547-2.155-0.68267-4.3952-1.1774-6.7207-1.4219-1.2395-0.13028-2.4705-0.19162-3.6914-0.1875zm-296.99 303.24 27.922 16.277 8.3555 4.8379c7.3384 4.2374 13.621 7.8316 18.725 10.707l4.1445 2.3223c-2.5672 0.17799-5.336 0.37112-8.2363 0.57617l-19.152 1.375c-5.7507 0.41834-11.467 0.83934-16.738 1.2324l-16.225 1.2344c0.78492-2.1304 1.207-4.526 1.207-7.1328z"/>
    <path id="led-1" d="m698.68 239.9c-7.3351-0.77095-13.953 4.9907-14.781 12.869-0.82805 7.8784 4.4462 14.889 11.781 15.66 7.3351 0.77094 13.953-4.9907 14.781-12.869 0.82806-7.8784-4.4462-14.889-11.781-15.66z"/>
    <path id="led-2" d="m698.68 285.4c-7.3351-0.77095-13.953 4.9907-14.781 12.869-0.82805 7.8784 4.4462 14.889 11.781 15.66 7.3351 0.77095 13.953-4.9907 14.781-12.869 0.82806-7.8784-4.4462-14.889-11.781-15.66z"/>
    <path id="led-3" d="m698.68 330.91c-7.3351-0.77094-13.953 4.9907-14.781 12.869-0.82805 7.8784 4.4462 14.889 11.781 15.66s13.953-4.9907 14.781-12.869c0.82806-7.8784-4.4462-14.889-11.781-15.66z"/>
    <path id="led-4" d="m698.68 376.41c-7.3351-0.77095-13.953 4.9907-14.781 12.869-0.82805 7.8784 4.4462 14.889 11.781 15.66 7.3351 0.77094 13.953-4.9907 14.781-12.869 0.82806-7.8784-4.4462-14.889-11.781-15.66z"/>
    <!-- Upper top -->
    <path id="top-1" d="m405.12 45.475c9.3828 2.7794 15.05 12.603 13.574 22.843-0.29642 2.0563-2.1177 3.5434-4.1918 3.4225l-7.2137-0.42-15.869 10.86c-1.4837 1.0153-3.4534 0.9121-4.8205-0.22873l-0.16109-0.14187c-5.6292-5.2299-7.8764-13.61-5.6762-21.536 3.0925-11.141 13.944-17.883 24.358-14.798z"/>
    <path id="top-2" d="m459.47 49.459c8.8662 2.6341 14.352 11.749 13.328 21.463-0.22467 2.1329-2.0916 3.7091-4.2319 3.5729l-29.857-1.8994c-2.2137-0.14082-3.89-2.056-3.7364-4.2689 0.10302-1.4845 0.35617-2.965 0.75919-4.4213 3.0098-10.875 13.583-17.463 23.738-14.446z"/>
    <path id="top-3" d="m513.44 53.433c8.8572 2.5517 14.379 11.435 13.362 20.932-0.22809 2.1298-2.0935 3.7019-4.2311 3.566l-29.854-1.8985c-2.2246-0.14148-3.9044-2.0742-3.7345-4.2968 0.10866-1.4214 0.36204-2.8382 0.75972-4.2316 3.0256-10.601 13.588-16.983 23.697-14.071z"/>
    <!-- Upper bottom -->
    <path id="top-4" d="m481.12 96.475c10.359 3.0685 16.05 14.619 12.971 25.712-3.0925 11.141-13.944 17.883-24.358 14.798-10.359-3.0685-16.05-14.619-12.971-25.712 3.0925-11.141 13.944-17.883 24.358-14.798z"/>
    <path id="top-5" d="m535.47 98.459c10.094 2.9989 15.633 14.274 12.638 25.096-3.0098 10.875-13.583 17.463-23.738 14.446-10.094-2.9989-15.633-14.274-12.638-25.096 3.0098-10.875 13.583-17.463 23.738-14.446z"/>
    <path id="top-6" d="m589.44 100.43c10.101 2.9101 15.685 13.93 12.661 24.525-3.0256 10.601-13.588 16.983-23.697 14.071-10.101-2.9101-15.685-13.93-12.661-24.525 3.0256-10.601 13.588-16.983 23.697-14.071z"/>
    <!-- Lower top -->
    <path id="bottom-1" d="m489.25 887.45c9.136 5.0827 21.117 0.92024 26.76-9.2972 5.6429-10.217 2.8112-22.621-6.3247-27.703-9.136-5.0827-21.117-0.92024-26.76 9.2972-5.6429 10.217-2.8112 22.621 6.3247 27.703z"/>
    <path id="bottom-2" d="m538.53 883.19c9.136 5.0827 21.117 0.92024 26.76-9.2972 5.6429-10.217 2.8112-22.621-6.3247-27.703-9.136-5.0827-21.117-0.92024-26.76 9.2972-5.6429 10.217-2.8112 22.621 6.3247 27.703z"/>
    <!-- Lower bottom -->
    <!-- Connectivity -->
    <path id="zwave" d="m837.5 617.37c-120.28 0-217.99 97.716-217.99 218h29.224c0.38119-104.37 84.788-188.75 188.78-188.75v-29.251zm0.0127 58c-88.137 0-160 71.849-160 160h29.256c0.38144-72.23 58.907-130.74 130.74-130.74zm6e-3 73c-23.082-0.0269-45.226 9.1293-61.548 25.449-16.322 16.32-25.482 38.463-25.458 61.544-0.0202 23.082 9.14 45.224 25.461 61.545s38.463 25.481 61.545 25.461c23.082 0.0236 45.224-9.1359 61.544-25.458 16.32-16.322 25.476-38.466 25.449-61.548 0.0303-23.081-9.1253-45.226-25.446-61.547-16.321-16.321-38.466-25.477-61.547-25.446zm-29.397 40h73.39l-39.112 61.662h39.112l-17.881 27.338h-74.119l40.212-62.41h-38.371l16.755-26.59z"/>
  </g>
</svg>
